<?xml version="1.0" encoding="iso-8859-1"?>
<!-- Generator: Adobe Illustrator 20.1.0, SVG Export Plug-In . SVG Version: 6.00 Build 0)  -->
<svg version="1.1" id="_x35_0plus" xmlns="http://www.w3.org/2000/svg" 
	xmlns:xlink="http://www.w3.org/1999/xlink" 
	xmlns:inkscape="http://www.inkscape.org/namespaces/inkscape"
	xmlns:sodipodi="http://sodipodi.sourceforge.net/DTD/sodipodi-0.dtd"
	x="0px" y="0px"
	 viewBox="0 0 200 200" style="enable-background:new 0 0 200 200;" xml:space="preserve">
<g id="layer1_1_" transform="translate(-6.4845205e-5,-172.36221)" inkscape:groupmode="layer" inkscape:label="Layer 1">
	<g id="g4359_1_" transform="matrix(1.2077295,0,0,1.2077295,-1060.8514,-627.14073)">
		<path id="path4357_1_" inkscape:connector-curvature="0" sodipodi:nodetypes="cccccc" style="fill:#FFFFFF;" d="M909.435,784.868
			c0-28.46,0-56.92,0-85.38c32.578,0,65.157,0,97.735,0l-0.019,0.469c0.064,28.45,0.036,59.797,0.034,84.844
			C972.154,784.908,940.329,784.695,909.435,784.868L909.435,784.868z"/>
		
			<path id="path3533_1_" inkscape:connector-curvature="0" sodipodi:nodetypes="ccccccsscccssscsscccsscccsssscscssssssssscssccssssssscccccscscscsscccccccccccccccccccccccssssssssssssssssscsscccccccssssssssscsssssssssscssssssssc" style="fill:#92278F;" d="
			M909.435,784.868c0-28.46,0-56.92,0-85.38c32.578,0,65.172,0,97.75,0c0.023,29.029,0.002,58.851,0,85.312
			C972.154,784.908,940.329,784.695,909.435,784.868L909.435,784.868z M968.873,780.843c3.568-0.605,5.697-2.696,6.186-6.077
			c0.067-0.462,0.123-3.794,0.124-7.403l0.002-6.563h-2.553h-2.553l-0.046,6.313c-0.044,5.985-0.059,6.352-0.305,7.082
			c-0.142,0.423-0.382,0.943-0.534,1.156c-0.644,0.905-2.096,1.318-3.561,1.014c-0.611-0.127-0.832-0.251-1.31-0.734
			c-1.059-1.07-1.051-1.008-1.106-8.393l-0.048-6.438l-2.556,0.012l-2.556,0.012l0.003,6.863c0.003,7.625,0.027,7.91,0.805,9.488
			C960.328,780.148,964.328,781.614,968.873,780.843L968.873,780.843z M988.934,780.848c1.858-0.292,3.777-1.435,4.633-2.76
			c1.229-1.901,1.448-4.834,0.5-6.711c-0.692-1.371-1.841-2.119-4.632-3.015c-1.066-0.342-2.117-0.732-2.337-0.867
			c-1.081-0.662-1.083-1.853-0.004-2.509c1.06-0.645,2.907-0.341,4.307,0.708l0.403,0.302l1.003-2.003
			c0.552-1.102,1.003-2.034,1.003-2.073c0-0.139-1.583-0.802-2.644-1.106c-5.316-1.528-9.376,0.408-10.193,4.861
			c-0.175,0.952-0.183,1.276-0.054,2.184c0.356,2.52,1.459,3.524,5.016,4.569c2.545,0.748,3.324,1.304,3.301,2.355
			c-0.022,1.031-0.797,1.693-2.107,1.798c-1.376,0.11-2.696-0.357-4.176-1.477c-0.368-0.279-0.685-0.489-0.704-0.468
			c-0.019,0.022-0.518,0.962-1.109,2.09c-1.234,2.355-1.279,2.035,0.419,2.933C983.856,780.874,986.283,781.265,988.934,780.848
			L988.934,780.848z M927.95,777.332c0.008-1.736,0.008-3.198,0-3.25c-0.008-0.052,0.956-0.095,2.141-0.096
			c3.239-0.003,4.573-0.373,5.909-1.636c1.181-1.117,1.803-2.816,1.808-4.932c0.007-3.218-1.368-5.292-4.114-6.207
			c-0.774-0.258-1.111-0.278-5.853-0.342l-5.031-0.068l0,9.844l0,9.844h2.563h2.563L927.95,777.332z M928.03,769.787
			c-0.037-0.061-0.063-1.166-0.057-2.455l0.01-2.344h0.959c1.209,0,2.216,0.186,2.619,0.483c0.717,0.529,1.048,1.767,0.753,2.818
			c-0.292,1.043-1.03,1.429-2.937,1.537C928.672,769.866,928.067,769.848,928.03,769.787L928.03,769.787z M953.935,778.3v-2.188
			h-3.062h-3.062l-0.032-7.638l-0.032-7.638l-2.563,0.009l-2.563,0.01l-0.032,9.816l-0.032,9.816h5.688h5.688V778.3L953.935,778.3z
			 M1004.06,702.614c-30.5-0.021-61-0.042-91.5-0.063l0,0.344c0,0.45,0,54.075,0,54.156c32.224,0.095,56.784,0.063,91.5,0.063
			C1004.06,738.158,1004.06,722.05,1004.06,702.614z M932.06,754.028c-4.056-0.416-7.503-1.469-10.837-3.312
			c-1.056-0.583-1.145-0.662-1.093-0.963c0.031-0.18,0.197-1.228,0.369-2.328c0.462-2.961,0.77-4.93,1.056-6.758
			c0.141-0.898,0.256-1.682,0.256-1.742c0-0.06,0.155,0.029,0.344,0.199c1.837,1.646,4.762,3.331,7.123,4.103
			c1.873,0.612,3.143,0.814,5.096,0.811c1.568-0.003,1.846-0.037,2.669-0.331c0.506-0.18,1.137-0.472,1.404-0.649
			c0.266-0.176,0.531-0.32,0.587-0.32c0.259,0,1.761-1.789,2.113-2.516c0.56-1.158,0.709-1.95,0.632-3.356
			c-0.103-1.873-0.73-3.256-2.06-4.547c-1.365-1.325-3.161-2.164-5.532-2.586c-1.084-0.193-4.265-0.16-5.612,0.058
			c-1.72,0.278-4.007,0.928-4.912,1.396c-0.206,0.106-0.408,0.159-0.45,0.117c-0.042-0.042,0.277-2.254,0.708-4.915
			c1.327-8.187,1.974-12.186,2.596-16.058l0.598-3.719h11.848h11.848v5.06v5.06l-7.872-0.029l-7.872-0.029l-0.065,0.313
			c-0.036,0.172-0.208,1.269-0.382,2.438c-0.174,1.169-0.329,2.207-0.344,2.307c-0.031,0.203,0.154,0.203,2.41-0.001
			c4.506-0.408,7.482,0.243,10.644,2.326c1.172,0.772,3.007,2.623,3.849,3.881c1.98,2.96,2.918,6.133,2.934,9.924
			c0.012,2.886-0.422,4.778-1.677,7.313c-2.492,5.03-7.041,7.934-13.692,8.74C937.265,754.094,933.352,754.16,932.06,754.028
			L932.06,754.028z M976.009,753.916c-5.92-0.995-10.362-4.51-13.259-10.491c-1.943-4.012-2.941-8.732-2.938-13.901
			c0.007-12.292,5.516-21.576,14.249-24.014c4.277-1.194,9.642-0.713,13.247,1.19c5.96,3.145,9.803,9.632,10.956,18.496
			c0.252,1.939,0.285,6.251,0.062,8.167c-0.529,4.544-1.979,9.056-3.915,12.176c-2.685,4.329-6.158,6.919-10.904,8.132
			C981.712,754.13,978.003,754.251,976.009,753.916L976.009,753.916z M979.925,743.606c3.02-0.49,5.088-3.362,6.186-8.594
			c1.435-6.834,0.062-14.77-3.11-17.973c-1.008-1.018-1.892-1.493-3.087-1.66c-2.542-0.355-4.823,1.075-6.264,3.928
			c-0.492,0.975-1.163,3.003-1.447,4.376c-0.652,3.151-0.793,5.836-0.457,8.705c0.357,3.054,0.918,5.094,2.008,7.304
			c1.255,2.544,2.847,3.768,5.244,4.03C979.067,743.73,979.484,743.677,979.925,743.606z"/>
		<path id="path3531_1_" inkscape:connector-curvature="0" sodipodi:nodetypes="ccccccc" style="fill:#5F015C;" d="M921.435,790.09
			V784.8h85.75v-73.942h5.75c0,26.369,0,52.862,0,79.231H921.435z"/>
	</g>
</g>
</svg>
