<?xml version="1.0" encoding="iso-8859-1"?>
<!-- Generator: Adobe Illustrator 20.1.0, SVG Export Plug-In . SVG Version: 6.00 Build 0)  -->
<svg version="1.1" id="cda" xmlns="http://www.w3.org/2000/svg" xmlns:xlink="http://www.w3.org/1999/xlink" x="0px" y="0px"
	 viewBox="0 0 200 200" style="enable-background:new 0 0 200 200;" xml:space="preserve">
<g>
	<path style="fill:#027B5F;" d="M70.951,95.517c-2.282-2.995-5.835-4.748-9.6-4.738c-5.901,0-12.33,4.051-14.532,9.177
		c-2.202,5.126,1.286,9.177,7.187,9.177c4.695-0.178,9.242-1.693,13.105-4.368L59.22,122.38c-4.832,1.253-9.805,1.881-14.796,1.867
		c-15.448,0-23.198-10.428-17.615-23.832c5.707-13.722,22.723-24.66,38.611-24.66c4.217-0.029,8.411,0.625,12.418,1.938
		l-6.87,17.914l0,0L70.951,95.517z"/>
	<path style="fill:#027B5F;" d="M85.36,76.423h20.063c18.178,0,29.258,6.923,22.053,24.202
		c-5.813,13.986-20.856,22.899-36.744,22.899H65.79L85.36,76.423L85.36,76.423z M91.349,109.362h1.215
		c6.535,0,12.665-2.625,15.237-8.807c2.765-6.588-0.458-9.406-7.645-9.406h-1.215l-7.574,18.213l0,0H91.349z"/>
	<path style="fill:#027B5F;" d="M175,123.613h-21.137l0.934-6.042H139.93l-4.016,5.989h-20.856l38.4-47.136H175V123.613L175,123.613
		z M158.372,92.1h-0.722l-9.565,14.338h7.909l2.378-14.356l0,0V92.1z"/>
</g>
</svg>
