<?xml version="1.0" encoding="iso-8859-1"?>
<!-- Generator: Adobe Illustrator 20.1.0, SVG Export Plug-In . SVG Version: 6.00 Build 0)  -->
<svg version="1.1" id="christenunie" xmlns="http://www.w3.org/2000/svg" xmlns:xlink="http://www.w3.org/1999/xlink" x="0px"
	 y="0px" viewBox="0 0 200 200" style="enable-background:new 0 0 200 200;" xml:space="preserve">
<g>
	<path style="fill:#002D6A;" d="M0.001,100.364c-0.082-6.248,4.916-11.38,11.164-11.462c0.278-0.004,0.557,0.003,0.835,0.02
		c4.128-0.153,7.942,2.193,9.667,5.946l-4.919,2.267c-0.836-1.886-2.686-3.119-4.748-3.165c-3.544,0-6.416,2.873-6.416,6.416
		c0,3.544,2.873,6.416,6.416,6.416c2.082-0.062,3.938-1.332,4.748-3.251l4.919,2.331c-1.739,3.741-5.544,6.081-9.667,5.946
		c-6.25,0.367-11.613-4.402-11.98-10.652C0.004,100.905-0.003,100.634,0.001,100.364z"/>
	<path style="fill:#002D6A;" d="M34.885,102.096c0.184-1.25-0.681-2.413-1.932-2.597c-0.239-0.035-0.482-0.032-0.72,0.009
		c-1.212,0.018-2.349,0.594-3.08,1.561v10.352H24.02V89.285h5.112v8.063c1.423-1.555,3.453-2.414,5.561-2.353
		c2.563-0.35,4.925,1.443,5.275,4.006c0.045,0.331,0.055,0.666,0.029,0.998v11.421h-5.112V102.096z"/>
	<path style="fill:#002D6A;" d="M43.718,95.402h5.112v2.032c1.264-1.476,3.085-2.359,5.026-2.438v4.941
		c-0.409-0.122-0.835-0.179-1.262-0.171c-1.401-0.037-2.754,0.504-3.743,1.497v10.159h-5.133V95.38V95.402z"/>
	<path style="fill:#002D6A;" d="M55.802,91.017c0.012-1.618,1.333-2.92,2.951-2.909c1.618,0.012,2.92,1.333,2.909,2.951
		c-0.012,1.61-1.32,2.909-2.93,2.909c-1.606,0.012-2.918-1.281-2.93-2.887C55.802,91.06,55.802,91.039,55.802,91.017z
		 M56.166,95.295h5.112v16.041h-5.112V95.295z"/>
	<path style="fill:#002D6A;" d="M65.769,105.86c1.617,1.277,3.589,2.024,5.646,2.139c1.519,0,2.139-0.492,2.139-1.219
		c0-0.727-1.219-1.091-2.738-1.283c-2.716-0.428-6.566-1.069-6.566-5.219c0-2.823,2.417-5.283,6.866-5.283
		c2.409-0.022,4.763,0.728,6.716,2.139l-1.882,3.379c-1.306-1.133-2.977-1.756-4.705-1.754c-0.868-0.201-1.747,0.289-2.032,1.134
		c0,0.706,0.856,0.834,2.567,1.134c2.716,0.492,6.78,1.155,6.78,5.518c0,3.058-2.695,5.304-7.315,5.304
		c-2.709,0.054-5.356-0.813-7.507-2.46L65.769,105.86z"/>
	<path style="fill:#002D6A;" d="M82.152,107.122V99.85h-2.674v-4.449h2.674v-4.278h5.09v4.278h3.251v4.449h-3.272v5.839
		c-0.095,0.798,0.475,1.521,1.273,1.615c0.053,0.006,0.106,0.01,0.16,0.01c0.469,0.023,0.931-0.121,1.305-0.406l0.962,3.85
		c-1.09,0.804-2.436,1.184-3.786,1.069c-2.327,0.405-4.543-1.153-4.948-3.48C82.117,107.943,82.105,107.53,82.152,107.122z"/>
	<path style="fill:#002D6A;" d="M100.503,94.995c4.748,0,8.213,3.486,8.213,8.94v1.091H97.338c0.49,1.79,2.194,2.971,4.042,2.802
		c1.42-0.011,2.797-0.492,3.914-1.369l2.139,3.187c-1.924,1.468-4.297,2.224-6.716,2.139c-4.631,0.46-8.759-2.921-9.219-7.552
		c-0.46-4.631,2.921-8.759,7.552-9.219C99.533,94.966,100.019,94.96,100.503,94.995z M97.209,101.711h6.545
		c-0.169-1.669-1.643-2.896-3.315-2.759c-1.617-0.035-3.001,1.155-3.208,2.759H97.209z"/>
	<path style="fill:#002D6A;" d="M122.105,102.16c0.204-1.259-0.652-2.445-1.911-2.649c-0.238-0.039-0.481-0.04-0.719-0.003
		c-1.227,0.008-2.38,0.585-3.123,1.561v10.352h-5.112V95.38h5.112v1.968c1.418-1.55,3.439-2.408,5.539-2.353
		c2.583-0.375,4.982,1.415,5.357,3.998c0.051,0.354,0.062,0.714,0.033,1.071v11.357h-5.176V102.16z"/>
	<path style="fill:#00AEEF;" d="M131.067,89.285h5.818v12.982c0,2.575,2.088,4.663,4.663,4.663s4.663-2.088,4.663-4.663l0,0V89.285
		h5.775v13.154c0,5.518-3.358,9.389-10.437,9.389c-7.079,0-10.48-4-10.48-9.368V89.285z"/>
	<path style="fill:#00AEEF;" d="M166.699,102.16c0.204-1.259-0.652-2.445-1.911-2.649c-0.238-0.039-0.481-0.04-0.719-0.003
		c-1.227,0.008-2.38,0.585-3.123,1.561v10.352h-5.112V95.38h5.112v1.968c1.423-1.555,3.453-2.414,5.561-2.353
		c2.59-0.328,4.955,1.505,5.284,4.095c0.042,0.33,0.049,0.664,0.02,0.996v11.357h-5.112V102.16z"/>
	<path style="fill:#00AEEF;" d="M175.169,91.017c0.012-1.618,1.333-2.92,2.951-2.909c1.618,0.012,2.921,1.333,2.909,2.951
		c-0.012,1.61-1.32,2.909-2.93,2.909c-1.606,0.012-2.918-1.281-2.93-2.887C175.168,91.06,175.168,91.039,175.169,91.017z
		 M175.532,95.295h5.219v16.041h-5.219V95.295z"/>
	<path style="fill:#00AEEF;" d="M191.851,94.995c4.748,0,8.149,3.486,8.149,8.94v1.091h-11.378c0.493,1.808,2.221,2.993,4.085,2.802
		c1.42-0.011,2.797-0.492,3.914-1.369l2.139,3.187c-1.924,1.468-4.297,2.224-6.716,2.139c-4.632,0.455-8.756-2.93-9.211-7.562
		c-0.455-4.632,2.93-8.756,7.562-9.211C190.879,94.964,191.366,94.959,191.851,94.995z M188.557,101.711h6.609
		c-0.169-1.669-1.643-2.896-3.315-2.759C190.202,98.872,188.767,100.073,188.557,101.711z"/>
</g>
</svg>
