<?xml version="1.0" encoding="iso-8859-1"?>
<!-- Generator: Adobe Illustrator 20.1.0, SVG Export Plug-In . SVG Version: 6.00 Build 0)  -->
<svg version="1.1" id="d66" xmlns="http://www.w3.org/2000/svg" xmlns:xlink="http://www.w3.org/1999/xlink" x="0px" y="0px"
	 viewBox="0 0 200 200" style="enable-background:new 0 0 200 200;" xml:space="preserve">
<g id="svg_26">
	<g id="svg_20" transform="matrix(0.14889354056140794,0,0,0.14889354056140794,-1433.2858716110786,-1383.3365060001597) ">
		<g id="svg_21">
			<rect id="svg_23" x="9787.405" y="9670.515" style="fill:#01A737;" width="1007.428" height="583.703"/>
			<path id="svg_22" style="fill:#FFFFFF;" d="M9959.37,9815.852v204.946h64.775c33.146,0,56.26-15.269,69.336-45.804
				c7.146-16.76,10.72-36.713,10.72-59.865c0-31.956-5.398-56.455-16.193-73.499c-10.646-17.185-31.933-25.778-63.862-25.778
				H9959.37 M10036.005,9761.313c20.83,0.284,38.164,2.557,52.003,6.817c23.567,7.243,42.651,20.522,57.247,39.839
				c11.709,15.623,19.691,32.523,23.948,50.704c4.258,18.18,6.386,35.507,6.388,51.98c0,41.757-8.972,77.121-26.915,106.095
				c-24.328,39.058-61.885,58.586-112.671,58.586h-144.831v-314.021H10036.005 M10272.979,9977.549
				c0,16.617,4.791,30.182,14.369,40.692c9.579,10.51,21.744,15.764,36.494,15.764c14.445,0,25.771-5.042,33.983-15.125
				c8.361-10.227,12.545-23.435,12.545-39.627c0-18.037-4.714-31.814-14.143-41.33c-9.428-9.657-20.983-14.487-34.669-14.487
				c-11.099,0-20.907,3.124-29.422,9.374c-12.772,9.232-19.16,24.144-19.16,44.737 M10364.438,9844.185
				c0-4.971-2.054-10.438-6.158-16.405c-6.995-9.657-17.563-14.486-31.703-14.486c-21.135,0-36.189,11.079-45.159,33.234
				c-4.864,12.213-8.211,30.253-10.035,54.111c8.059-8.947,17.41-15.48,28.055-19.601c10.643-4.119,22.808-6.178,36.493-6.178
				c29.347,0,53.371,9.302,72.074,27.908c18.854,18.606,28.282,42.396,28.282,71.369c0,28.831-9.199,54.254-27.599,76.268
				c-18.399,22.015-46.985,33.022-85.759,33.022c-41.664,0-72.378-16.263-92.145-48.786c-15.356-25.424-23.037-58.231-23.037-98.425
				c0-23.577,1.063-42.751,3.193-57.521c3.801-26.274,11.176-48.147,22.124-65.617c9.428-14.914,21.744-26.913,36.95-36.005
				c15.356-9.091,33.68-13.635,54.967-13.635c30.716,0,55.194,7.387,73.441,22.157c18.247,14.63,28.509,34.158,30.792,58.586
				h-64.775 M10532.079,9977.545c0,16.617,4.79,30.182,14.369,40.691c9.579,10.511,21.744,15.765,36.493,15.765
				c14.446,0,25.772-5.042,33.983-15.126c8.362-10.227,12.546-23.434,12.546-39.626c0-18.037-4.714-31.814-14.143-41.331
				c-9.428-9.657-20.983-14.486-34.669-14.486c-11.1,0-20.907,3.124-29.423,9.373c-12.772,9.233-19.159,24.145-19.159,44.738
				 M10623.537,9844.181c0-4.971-2.053-10.438-6.157-16.405c-6.995-9.657-17.563-14.486-31.703-14.486
				c-21.137,0-36.189,11.079-45.159,33.233c-4.865,12.214-8.211,30.253-10.035,54.111c8.059-8.946,17.41-15.48,28.055-19.6
				c10.643-4.12,22.808-6.179,36.493-6.179c29.346,0,53.37,9.303,72.074,27.909c18.854,18.606,28.281,42.396,28.281,71.369
				c0,28.83-9.198,54.254-27.598,76.268c-18.4,22.014-46.985,33.022-85.76,33.022c-41.664,0-72.377-16.263-92.144-48.786
				c-15.357-25.424-23.038-58.231-23.038-98.425c0-23.577,1.064-42.751,3.194-57.521c3.801-26.273,11.176-48.146,22.124-65.617
				c9.428-14.913,21.744-26.912,36.95-36.005c15.356-9.09,33.68-13.634,54.967-13.634c30.716,0,55.194,7.387,73.441,22.157
				c18.246,14.629,28.509,34.158,30.792,58.586h-64.775"/>
		</g>
	</g>
</g>
</svg>
