<?xml version="1.0" encoding="iso-8859-1"?>
<!-- Generator: Adobe Illustrator 20.1.0, SVG Export Plug-In . SVG Version: 6.00 Build 0)  -->
<svg version="1.1" id="groenlinks" xmlns="http://www.w3.org/2000/svg" xmlns:xlink="http://www.w3.org/1999/xlink" 
	xmlns:inkscape="http://www.inkscape.org/namespaces/inkscape"
	xmlns:sodipodi="http://sodipodi.sourceforge.net/DTD/sodipodi-0.dtd"
	x="0px" y="0px"
	 viewBox="0 0 200 200" style="enable-background:new 0 0 200 200;" xml:space="preserve">
<g>
	<g id="g3553" transform="translate(201.0747,30.0135)">
		<path id="path3555" style="fill:#D20019;" d="M-180.619,77.736c-1.392,1.718-3.551,2.459-5.765,2.459
			c-5.997,0-9.691-4.48-9.691-10.016c0-7.426,5.425-10.4,9.999-10.4c5.173,0,8.441,2.7,9.352,7.285h-5.999
			c-0.228-1.418-1.478-2.426-2.952-2.426c-4.29,0-4.151,4.339-4.151,5.676c0,1.829,0.767,5.02,4.578,5.02
			c1.451,0,2.926-0.708,3.237-2.154h-2.759v-4.177h8.3v10.729h-3.951L-180.619,77.736z"/>
	</g>
	<g id="g3557" transform="translate(215.1539,25.7319)">
		<path id="path3559" style="fill:#D20019;" d="M-188.137,84.013h6.25v-6.799h3.325c2.474,0,2.645,1.938,2.813,3.794
			c0.082,1.009,0.195,2.022,0.512,3.004h6.25c-0.568-0.904-0.596-3.219-0.684-4.179c-0.229-2.43-1.276-4.23-2.985-4.858
			c2.077-0.737,3.044-2.865,3.044-4.89c0-3.682-3.072-5.565-6.622-5.565h-11.904V84.013z M-181.887,69.163h2.921
			c2.389,0,3.098,0.707,3.098,1.938c0,1.744-1.587,1.939-2.749,1.939h-3.27V69.163z"/>
	</g>
	<g id="g3561" transform="translate(257.5909,46.6462)">
		<path id="path3563" style="fill:#D20019;" d="M-210.798,53.352c0,5.952,4.118,10.209,10.287,10.209
			c6.161,0,10.285-4.257,10.285-10.209c0-5.951-4.124-10.207-10.285-10.207C-206.68,43.146-210.798,47.401-210.798,53.352
			 M-204.548,53.352c0-4.339,2.442-5.348,4.037-5.348c1.589,0,4.036,1.008,4.036,5.348c0,4.338-2.447,5.348-4.036,5.348
			C-202.106,58.7-204.548,57.69-204.548,53.352"/>
	</g>
	<path id="path3567" style="fill:#D20019;" d="M69.434,90.253h16.785v4.996H75.686v2.433h9.571v4.634h-9.571v2.432h10.849v4.997
		H69.434V90.253z"/>
	<path id="path3571" style="fill:#D20019;" d="M88.769,90.253h6.395l5.91,10.428h0.061V90.253h5.909v19.492h-6.078l-6.224-10.65
		h-0.059v10.65h-5.914V90.253z"/>
	<path id="path3575" style="fill:#1EA22D;" d="M110.517,90.253h6.251v14.495h8.981v4.997h-15.233V90.253z"/>
	<path id="path3577" style="fill:#1EA22D;" d="M127.158,90.253h6.253v19.492h-6.253V90.253z"/>
	<path id="path3581" style="fill:#1EA22D;" d="M136.165,90.253h6.389l5.909,10.428h0.061V90.253h5.909v19.492h-6.083l-6.225-10.65
		h-0.055v10.65h-5.905V90.253z"/>
	<path id="path3585" style="fill:#1EA22D;" d="M157.208,90.253h6.254v6.714h0.062l5.567-6.714h7.698l-7.362,7.614l8.55,11.877
		h-7.782l-5.003-7.59l-1.731,1.828v5.762h-6.254V90.253z"/>
	
		<g id="g3525" 
			inkscape:groupmode="layer" inkscape:label="VerkiezingsprogrammaGroenLinks2010">
		<g id="g3595" transform="translate(549.7724,39.7921)">
			<path id="path3597" style="fill:#1EA22D;" d="M-366.822,63.401c0,0.49,0.09,0.928,0.232,1.284
				c0.454,1.173,1.82,1.417,2.982,1.417c1.023,0,2.589-0.328,2.589-1.773c0-1.007-0.887-1.279-4.382-2.241
				c-3.208-0.871-6.872-1.717-6.872-5.65c0-4.503,4.006-6.438,8.179-6.438c4.41,0,8.299,1.606,8.47,6.354h-5.907
				c0.111-0.734-0.229-1.223-0.742-1.552c-0.508-0.356-1.225-0.493-1.847-0.493c-0.85,0-2.245,0.225-2.245,1.311
				c0.116,1.394,3.013,1.695,5.882,2.456c2.872,0.767,5.711,2.047,5.711,5.622c0,5.078-4.858,6.718-9.375,6.718
				c-2.303,0-8.865-0.796-8.92-7.015H-366.822z"/>
		</g>
	</g>
</g>
</svg>
