<?xml version="1.0" encoding="utf-8"?>
<!-- Generator: Adobe Illustrator 20.1.0, SVG Export Plug-In . SVG Version: 6.00 Build 0)  -->
<svg version="1.1" id="libertarischepartij" xmlns="http://www.w3.org/2000/svg" xmlns:xlink="http://www.w3.org/1999/xlink"
	 x="0px" y="0px" viewBox="0 0 200 200" style="enable-background:new 0 0 200 200;" xml:space="preserve">
<style type="text/css">
	.st0{fill:#0071CE;}
</style>
<g id="XMLID_2_">
	<path id="XMLID_3_" class="st0" d="M56.2,99c-0.6-0.4-1.1-0.8-1.7-1.1c-0.5-0.3-1-0.8-1.6-1c0-0.1-0.1-0.1-0.2-0.2
		c-1.3-0.8-2.5-1.6-3.7-2.4c-0.8-0.5-1.5-1-2.3-1.5c-0.7-0.5-1.4-0.9-2.1-1.4c-0.9-0.5-1.7-1.1-2.5-1.7c-0.6-0.4-1.2-0.7-1.7-1.1
		c-0.3-0.2-0.3-0.1-0.3,0.2c-0.3,1.8-0.5,3.6-0.8,5.4c-0.1,0.6-0.1,1.1,0.6,1.3c0,0,0,0,0,0c0.2,0.1,0.4,0.3,0.6,0.4
		c0.9,0.6,1.8,1.2,2.7,1.7c0.7,0.5,1.5,1,2.2,1.4c1,0.6,2,1.3,2.9,1.9c0.8,0.5,1.5,1,2.3,1.5c0.1,0.1,0.2,0,0.3,0
		c1.8-1.1,3.7-2.1,5.5-3.2C56.4,99.2,56.4,99.1,56.2,99z"/>
	<path id="XMLID_12_" class="st0" d="M54.7,94.2c-0.3-0.2-0.5-0.4-0.8-0.5c-1.3-0.9-2.7-1.7-4-2.6c-0.2-0.2-0.5-0.3-0.8-0.5
		c-1-0.8-2.1-1.4-3.2-2.1c-0.1-0.1-0.2-0.1-0.3-0.2c-0.8-0.5-1.6-1-2.4-1.6c-0.4-0.2-0.9-0.5-1.3-0.8c-0.6-0.4-1.2-0.8-1.8-1.2
		c-0.1,0-0.1-0.2-0.3-0.1c-0.1,0,0,0.1,0,0.3c0,0.7,0,1.4,0,2.1c0,0.2,0.1,0.4,0.3,0.5c0.7,0.5,1.4,0.9,2.2,1.4
		c0.3,0.2,0.5,0.3,0.8,0.5c0.8,0.5,1.5,1,2.3,1.4c0,0,0,0,0,0c0.1,0,0.1,0.1,0.2,0.1c1.4,0.9,2.7,1.8,4.1,2.7
		c0.3,0.2,0.6,0.4,0.9,0.6c1.3,0.9,2.7,1.7,4,2.6c0.8,0.5,1.5,1,2.3,1.5c0.4,0.3,0.7,0.3,1.1,0.1c0.6-0.3,1.3-0.5,1.9-0.8
		c-0.2-0.1-0.3-0.2-0.5-0.3C58,96.2,56.4,95.2,54.7,94.2z"/>
	<path id="XMLID_16_" class="st0" d="M47.2,101.8c-0.6-0.5-1.3-0.9-1.9-1.3c-0.6-0.4-1.1-0.8-1.7-1.1c-1-0.6-2-1.3-3.1-2
		c-0.5-0.3-0.9-0.6-1.3-0.9c-0.6-0.4-1.2-0.7-1.8-1.2c0.1,0.7,0.3,1.4,0.4,2c0.1,0.5,0.3,0.9,0.7,1.1c0.5,0.4,1.1,0.7,1.7,1
		c0,0,0,0,0.1,0s0,0,0.1,0c0.9,0.6,1.9,1.2,2.8,1.8c0.6,0.4,1.2,0.8,1.8,1.2c0,0,0,0,0,0c0,0,0,0,0.1,0c0.8,0.6,1.7,1.2,2.6,1.7
		c0.2,0.2,0.5,0.3,0.8,0.2c0.2-0.1,0.4-0.1,0.6-0.1c0.5-0.1,1.1-0.3,1.8-0.4c-1.1-0.7-2.1-1.3-3.1-2
		C47.6,101.9,47.3,101.9,47.2,101.8z"/>
	<path id="XMLID_19_" class="st0" d="M70.4,71.2c0.5-0.4,1-0.7,1.5-1c-0.5-0.1-1-0.2-1.4-0.3c-0.2,0-0.4-0.1-0.6-0.1
		c-2.9-0.2-5.7-0.1-8.4,0.8c-1.3,0.5-2.6,1.1-3.7,1.9c-1.3,0.9-2.3,2-3.1,3.4c-0.1,0.2-0.2,0.2-0.3,0c-0.1-0.2-0.3-0.4-0.3-0.6
		c-0.3-0.9-0.3-1.7,0.3-2.5c0.3-0.4,0.6-0.6,1-1c-0.6,0-1.3,0-1.8,0.2c-1.9,0.4-3.5,1.3-5,2.4c-0.9,0.7-1.8,1.4-2.6,2.3
		c-0.4,0.4-0.6,0.9-0.9,1.3c-1.8-0.1-3.7,0-5.5,0.3c-2.7,0.4-5.2,1.3-7.6,2.5c-2,1-3.8,2.3-5.5,3.8c-2.8,2.5-5,5.5-6.5,9
		c-1.6,3.6-2.3,7.4-2.2,11.3c0,1.5,0.2,3.1,0.5,4.6c0.8,3.6,2.2,6.9,4.4,9.9c0.8,1.1,1.6,2.1,2.6,3c0.4-0.7,0.8-1.4,1.1-2.1
		c-0.4,0.7-0.8,1.4-1.1,2.1c0.7,0.8,1.4,1.4,2.3,2c0.9,0.8,2,1.5,3,2.1c0.3,0.2,0.6,0.4,0.9,0.5c0.8,0.4,1.6,0.9,2.5,1.2
		c0,0,0.1,0,0.1,0.1c3.5,1.4,7,2,10.7,1.9c2.3-0.1,4.5-0.5,6.7-1.2c3.5-1.1,6.5-2.8,9.3-5.1c2.7-2.3,4.8-5,6.4-8.2
		c2-4.1,2.9-8.4,2.7-12.9c-0.1-2.1-0.5-4.2-1.1-6.3c-0.3-1-0.6-1.9-1.1-2.8c-0.3,0.3-0.6,0.5-1,0.8c0.3-0.3,0.6-0.5,1-0.8
		c-0.1-0.4-0.3-0.8-0.5-1.2c-0.3-0.4-0.6-0.8-0.9-1.1c-0.2,0.4-0.5,0.6-0.8,0.9c0.3-0.3,0.5-0.6,0.8-0.9c0-0.1,0.1-0.1,0.1-0.2
		c0,0.1-0.1,0.1-0.1,0.2c0.3,0.4,0.6,0.8,0.9,1.1c-0.2-0.5-0.4-1-0.8-1.4c0.2-0.5,0.3-1.1,0.3-1.6c0.2-1.8,1.2-3.1,2.5-4.2
		c0.8-0.6,1.7-1.2,2.6-1.5c0.2-0.1,0.3-0.1,0.1-0.3c-0.1-0.2-0.3-0.4-0.5-0.6c-1.2-1.1-2.5-1.2-3.9-0.9C67,82,66.9,82.1,66.6,82
		c0.7-0.5,1.3-1,1.7-1.8c0.4-0.9,0.3-1.7-0.2-2.5c-0.7-1.3-0.9-2.5-0.2-3.8C68.4,72.9,69.3,72,70.4,71.2z M65.3,95.4
		C65.3,95.4,65.3,95.4,65.3,95.4c0.9,2,1.4,4,1.6,6.1c0.5,4.8-0.3,9.3-2.6,13.6c-2.2,4.2-5.4,7.4-9.5,9.6c-2.3,1.3-4.8,2.2-7.5,2.6
		c-1.1,0.2-2.2,0.3-3.3,0.3c-2.9,0.1-5.8-0.4-8.6-1.4l0,0c0,0-0.1,0-0.1,0c-0.3-0.1-0.7-0.3-1-0.4c-0.7-0.3-1.4-0.6-2-1
		c-0.1-0.1-0.3-0.1-0.3-0.3l0,0c0.1-0.1,0.1-0.2,0.2-0.3c-0.1,0-0.2,0-0.2,0c0,0,0.1,0,0.2,0c0.1-0.1,0.1-0.1,0.2-0.3
		c1-1.2,1.9-2.4,2.9-3.6c0.6-0.8,1.3-1.7,2-2.5c0.5-0.6,1-1.2,1.4-1.8c1-1.3,2-2.6,3.1-3.9c0.1-0.1,0.1-0.1,0.2-0.2
		c1.1-1.4,2.2-2.7,3.2-4.1c0.6-0.8,1.2-1.5,1.8-2.2c0.1-0.2,0.1-0.3-0.1-0.4c-0.7-0.4-1.4-0.9-2-1.3c-1-0.6-1.9-1.3-2.9-1.9
		c0,0,0,0-0.1,0c0,0,0,0-0.1-0.1c-0.1-0.1-0.3-0.2-0.4-0.3c-1.1-0.7-2.2-1.5-3.4-2.2c-0.5-0.3-0.5-0.3-0.9,0.3
		c-0.1,0.1-0.1,0.3-0.2,0.4c-0.5,0.9-1,1.9-1.5,2.8c-0.8,1.4-1.5,2.8-2.3,4.2c-0.5,0.9-0.9,1.7-1.3,2.6c-0.7,1.2-1.3,2.4-2,3.7
		c-0.7,1.3-1.3,2.5-2,3.7c0,0.1,0,0.1-0.1,0.2c-0.4,0.8-0.9,1.5-1.3,2.3c-0.1,0.1-0.2,0.3-0.3,0.4c-1.4-1.5-2.6-3.2-3.5-5
		c-1.2-2.3-2-4.8-2.4-7.4c-0.2-1.5-0.3-3-0.3-4.6c0.2-3.7,1.2-7.2,2.9-10.4c2.1-3.7,4.9-6.6,8.6-8.8c2.6-1.5,5.4-2.5,8.4-3
		c1.3-0.2,2.5-0.3,3.8-0.3c0.1-0.2,0.1-0.4,0.2-0.6c-0.1,0.2-0.1,0.4-0.2,0.6c-0.1,0.7-0.3,1.4-0.4,2.1c-0.1,0.6-0.1,1.3-0.1,1.9
		c0,0.5,0.1,0.7,0.5,0.9c0.3,0.2,0.7,0.4,1,0.6c0,0,0,0,0-0.1l0,0c0,0,0,0,0,0.1c0.1,0,0.1,0.1,0.2,0.1c1.3,0.9,2.7,1.7,4,2.6
		c0.7,0.5,1.4,0.9,2.1,1.4c0.3,0.2,0.6,0.4,0.9,0.6c1.1,0.7,2.3,1.4,3.4,2.2c0.8,0.5,1.7,1.1,2.5,1.7c0.1,0.1,0.2,0.1,0.3,0.1
		c1.9-0.2,3.7-0.6,5.5-1.4c0.3-0.1,0.5-0.3,0.8-0.4c0.3,0.6,0.6,1.2,0.9,1.8C65.3,95.1,65.3,95.3,65.3,95.4z"/>
	<polygon id="XMLID_20_" class="st0" points="99.2,70 79.3,70 79.3,130.3 124.3,130.3 124.3,113.7 99.2,113.7 	"/>
	<path id="XMLID_23_" class="st0" d="M157.8,70h-28.3v60.3h19.9v-15.7h8.3c15.7,0,24.7-8.4,24.7-23.1C182.5,77.8,173.5,70,157.8,70z
		 M156.8,99.5h-7.3V85.1h7.3c4.3,0,6.8,2.6,6.8,7C163.6,96.8,161.1,99.5,156.8,99.5z"/>
</g>
</svg>
