<?xml version="1.0" encoding="iso-8859-1"?>
<!-- Generator: Adobe Illustrator 20.1.0, SVG Export Plug-In . SVG Version: 6.00 Build 0)  -->
<svg version="1.1" id="piratenpartij" xmlns="http://www.w3.org/2000/svg" xmlns:xlink="http://www.w3.org/1999/xlink" x="0px"
	 y="0px" viewBox="0 0 200 200" style="enable-background:new 0 0 200 200;" xml:space="preserve">
<circle cx="100" cy="100" r="62.5"/>
<circle style="fill:#FFFFFF;" cx="100" cy="100" r="56.25"/>
<path d="M70.406,118.825V66.238c-2.338-0.15-4.288,0-5.513,0.362c-0.35-0.762,1.8-1.938,5.513-3.063V53.412h5.475v8.75
	c19.725-4.087,59.05-4.3,59.262,29.8c0.137,24.075-42.512,20.4-54.875,28.213c-13.45,8.475-7.412,26.412-7.412,26.412
	S64.718,129.788,70.406,118.825z M75.881,112.963c5.775-3.925,15.688-8.662,17.6-17.725c3.85-18.225-7.738-25.788-17.6-28.163
	V112.963z"/>
</svg>
