<?xml version="1.0" encoding="iso-8859-1"?>
<!-- Generator: Adobe Illustrator 20.1.0, SVG Export Plug-In . SVG Version: 6.00 Build 0)  -->
<svg version="1.1" id="pvda" xmlns="http://www.w3.org/2000/svg" xmlns:xlink="http://www.w3.org/1999/xlink" x="0px" y="0px"
	 viewBox="0 0 200 200" style="enable-background:new 0 0 200 200;" xml:space="preserve">
<g>
	<g>
		<path style="fill:#E30613;" d="M32.666,109.464c-1.003,0-2.676,0.112-5.144-0.074v19.012H15V73.52
			c5.929-0.456,13.247-0.639,19.176-0.639c10.606,0,19.076,5.777,19.076,17.98C53.252,101.639,42.982,109.464,32.666,109.464z
			 M32.087,83.837l-4.566,0.097l0,14.605l2.966-0.019c4.379-0.127,9.409-1.087,9.335-7.658
			C39.762,85.402,37.319,83.904,32.087,83.837z"/>
	</g>
	<path style="fill:#E30613;" d="M80.401,128.402h-7.428L55.955,93.705h12.006l8.673,17.915l8.251-17.915h11.679L80.401,128.402z"/>
	<path style="fill:#E30613;" d="M116.921,128.449l-15.871-0.047v-34.37c2.755-0.209,4.499-0.409,5.216-0.409
		c3.58-0.159,7.329-0.164,11.385-0.078c12.377,0.261,18.942,8.07,19.025,17.372C136.753,119.554,130.176,128.295,116.921,128.449z
		 M116.475,103.129l-4.5-0.017l0.005,15.924l4.398-0.022c3.02-0.097,8.618-0.859,8.618-8.097
		C124.995,104.553,119.397,103.252,116.475,103.129z"/>
	<path style="fill:#E30613;" d="M172.358,128.402l-4.665-13.544h-13.332l-4.91,13.544h-12.154l20.845-56.852h7.219L185,128.402
		H172.358z M161.234,93.578l-3.73,10.744h6.982L161.234,93.578z"/>
</g>
</svg>
