<?xml version="1.0" encoding="iso-8859-1"?>
<!-- Generator: Adobe Illustrator 20.1.0, SVG Export Plug-In . SVG Version: 6.00 Build 0)  -->
<svg version="1.1" id="pvdd" xmlns="http://www.w3.org/2000/svg" xmlns:xlink="http://www.w3.org/1999/xlink" x="0px" y="0px"
	 viewBox="0 0 200 200" style="enable-background:new 0 0 200 200;" xml:space="preserve">
<g>
	<defs>
		<rect id="SVGID_1_" x="15" y="67.356" width="170" height="65.288"/>
	</defs>
	<clipPath id="SVGID_2_">
		<use xlink:href="#SVGID_1_"  style="overflow:visible;"/>
	</clipPath>
	<path style="clip-path:url(#SVGID_2_);" d="M91.475,89.456v5.765h-2.98V79.912h5.722c3.023,0,5.031,2.008,5.031,4.772
		c0,2.786-2.008,4.772-5.031,4.772H91.475z M93.85,86.886c1.49,0,2.397-0.864,2.397-2.181c0-1.36-0.907-2.202-2.397-2.202h-2.354
		v4.384H93.85z"/>
	<path style="clip-path:url(#SVGID_2_);" d="M103.17,89.11l2.612-0.388c0.605-0.086,0.799-0.389,0.799-0.756
		c0-0.756-0.583-1.382-1.792-1.382c-1.253,0-1.944,0.799-2.03,1.727l-2.548-0.54c0.173-1.663,1.706-3.498,4.556-3.498
		c3.369,0,4.621,1.9,4.621,4.037v5.226c0,0.562,0.065,1.317,0.13,1.684h-2.635c-0.065-0.281-0.108-0.864-0.108-1.274
		c-0.54,0.842-1.555,1.576-3.131,1.576c-2.267,0-3.649-1.533-3.649-3.196C99.995,90.428,101.399,89.37,103.17,89.11 M106.581,90.924
		v-0.475l-2.397,0.367c-0.734,0.108-1.317,0.518-1.317,1.339c0,0.626,0.453,1.231,1.382,1.231
		C105.458,93.386,106.581,92.803,106.581,90.924"/>
	<path style="clip-path:url(#SVGID_2_);" d="M118.198,87.448c-0.324-0.065-0.605-0.086-0.864-0.086
		c-1.468,0-2.743,0.712-2.743,3.002v4.858h-2.872V84.598h2.785v1.576c0.648-1.403,2.116-1.663,3.023-1.663
		c0.238,0,0.453,0.022,0.669,0.044V87.448z"/>
	<path style="clip-path:url(#SVGID_2_);" d="M123.739,84.597h2.138v2.548h-2.138v4.448c0,0.929,0.432,1.231,1.253,1.231
		c0.346,0,0.734-0.044,0.885-0.086v2.376c-0.259,0.108-0.777,0.258-1.62,0.258c-2.073,0-3.368-1.231-3.368-3.282v-4.945h-1.922
		v-2.548h0.54c1.123,0,1.641-0.734,1.641-1.685v-1.49h2.591V84.597z"/>
	<path style="clip-path:url(#SVGID_2_);" d="M129.102,79.329c0.994,0,1.771,0.799,1.771,1.792c0,0.949-0.777,1.749-1.771,1.749
		c-0.971,0-1.77-0.799-1.77-1.749C127.332,80.128,128.131,79.329,129.102,79.329 M127.677,84.597h2.872v10.624h-2.872V84.597z"/>
	<path style="clip-path:url(#SVGID_2_);" d="M133.017,84.598h2.872V96.15c0,2.052-1.274,3.498-3.325,3.498
		c-0.843,0-1.468-0.173-1.62-0.238v-2.397c0.195,0.043,0.476,0.108,0.885,0.108c0.865,0,1.188-0.474,1.188-1.253V84.598z
		 M134.442,79.307c0.993,0,1.77,0.799,1.77,1.792c0,0.972-0.777,1.749-1.77,1.749c-0.971,0-1.77-0.777-1.77-1.749
		C132.672,80.106,133.471,79.307,134.442,79.307"/>
	<polygon style="clip-path:url(#SVGID_2_);" points="149.117,95.221 146.245,95.221 141.904,84.597 145.057,84.597 147.691,91.723 
		150.218,84.597 153.241,84.597 	"/>
	<path style="clip-path:url(#SVGID_2_);" d="M164.475,89.909c0,3.261-2.396,5.636-5.571,5.636c-3.174,0-5.571-2.375-5.571-5.636
		c0-3.282,2.397-5.636,5.571-5.636C162.079,84.273,164.475,86.627,164.475,89.909 M161.604,89.909c0-2.008-1.295-3.023-2.699-3.023
		c-1.403,0-2.699,1.015-2.699,3.023c0,1.987,1.296,3.023,2.699,3.023C160.309,92.932,161.604,91.917,161.604,89.909"/>
	<path style="clip-path:url(#SVGID_2_);" d="M176.727,89.909c0,3.261-2.396,5.636-5.571,5.636c-3.174,0-5.571-2.375-5.571-5.636
		c0-3.282,2.397-5.636,5.571-5.636C174.331,84.273,176.727,86.627,176.727,89.909 M173.856,89.909c0-2.008-1.295-3.023-2.699-3.023
		c-1.403,0-2.699,1.015-2.699,3.023c0,1.987,1.296,3.023,2.699,3.023C172.56,92.932,173.856,91.917,173.856,89.909"/>
	<path style="clip-path:url(#SVGID_2_);" d="M185,87.448c-0.324-0.065-0.605-0.086-0.864-0.086c-1.468,0-2.743,0.712-2.743,3.002
		v4.858h-2.872V84.598h2.785v1.576c0.648-1.403,2.116-1.663,3.023-1.663c0.238,0,0.453,0.022,0.669,0.044V87.448z"/>
	<path style="clip-path:url(#SVGID_2_);" d="M98.407,118.487c0,0.713,0.043,1.49,0.086,1.922h-2.743
		c-0.043-0.216-0.108-0.734-0.108-1.231c-0.474,0.843-1.555,1.49-2.98,1.49c-3.023,0-5.182-2.376-5.182-5.592
		c0-3.11,2.094-5.549,5.096-5.549c1.835,0,2.699,0.756,3.001,1.317v-6.068h2.829V118.487z M93.008,118.098
		c1.468,0,2.613-1.123,2.613-3.045c0-1.9-1.145-2.958-2.613-2.958c-1.468,0-2.634,1.079-2.634,2.98
		C90.374,116.975,91.496,118.098,93.008,118.098"/>
	<path style="clip-path:url(#SVGID_2_);" d="M110.419,117.364c-0.54,1.836-2.224,3.369-4.837,3.369
		c-2.915,0-5.485-2.095-5.485-5.679c0-3.39,2.505-5.592,5.226-5.592c3.282,0,5.247,2.094,5.247,5.506
		c0,0.411-0.044,0.843-0.044,0.885h-7.601c0.065,1.404,1.253,2.419,2.678,2.419c1.339,0,2.073-0.669,2.418-1.62L110.419,117.364z
		 M107.742,113.887c-0.044-1.058-0.735-2.094-2.376-2.094c-1.489,0-2.31,1.123-2.375,2.094H107.742z"/>
	<path style="clip-path:url(#SVGID_2_);" d="M116.802,120.409V105.1h5.485c4.362,0,7.558,2.828,7.558,7.665
		c0,4.837-3.217,7.644-7.579,7.644H116.802z M122.157,117.645c2.505,0,4.599-1.555,4.599-4.88c0-3.325-2.073-4.901-4.578-4.901
		h-2.397v9.782H122.157z"/>
	<path style="clip-path:url(#SVGID_2_);" d="M133.234,104.516c0.994,0,1.771,0.799,1.771,1.792c0,0.951-0.777,1.749-1.771,1.749
		c-0.971,0-1.77-0.798-1.77-1.749C131.463,105.315,132.263,104.516,133.234,104.516 M131.809,109.785h2.872v10.624h-2.872V109.785z"
		/>
	<path style="clip-path:url(#SVGID_2_);" d="M146.73,117.364c-0.54,1.836-2.224,3.369-4.837,3.369c-2.915,0-5.485-2.095-5.485-5.679
		c0-3.39,2.505-5.592,5.226-5.592c3.282,0,5.247,2.094,5.247,5.506c0,0.411-0.044,0.843-0.044,0.885h-7.601
		c0.065,1.404,1.253,2.419,2.678,2.419c1.339,0,2.073-0.669,2.419-1.62L146.73,117.364z M144.052,113.887
		c-0.044-1.058-0.734-2.094-2.376-2.094c-1.489,0-2.31,1.123-2.375,2.094H144.052z"/>
	<path style="clip-path:url(#SVGID_2_);" d="M155.19,112.635c-0.324-0.065-0.605-0.086-0.864-0.086
		c-1.468,0-2.743,0.712-2.743,3.002v4.858h-2.872v-10.623h2.785v1.576c0.648-1.403,2.116-1.663,3.023-1.663
		c0.238,0,0.453,0.022,0.669,0.044V112.635z"/>
	<path style="clip-path:url(#SVGID_2_);" d="M166.273,117.364c-0.54,1.836-2.224,3.369-4.837,3.369
		c-2.915,0-5.485-2.095-5.485-5.679c0-3.39,2.505-5.592,5.226-5.592c3.282,0,5.247,2.094,5.247,5.506
		c0,0.411-0.044,0.843-0.044,0.885h-7.601c0.065,1.404,1.253,2.419,2.678,2.419c1.339,0,2.073-0.669,2.418-1.62L166.273,117.364z
		 M163.596,113.887c-0.044-1.058-0.734-2.094-2.376-2.094c-1.489,0-2.31,1.123-2.375,2.094H163.596z"/>
	<path style="clip-path:url(#SVGID_2_);" d="M171.127,120.409h-2.872v-10.624h2.785v1.317c0.648-1.101,1.922-1.598,3.066-1.598
		c2.635,0,3.844,1.879,3.844,4.211v6.694h-2.873v-6.197c0-1.188-0.582-2.116-1.965-2.116c-1.253,0-1.986,0.971-1.986,2.202V120.409z
		"/>
	<path style="clip-path:url(#SVGID_2_);fill-rule:evenodd;clip-rule:evenodd;fill:#006B2D;" d="M41.513,67.826
		c0.836-0.129,1.69-0.236,2.419-0.174c0.375,0.032,0.754-0.09,1.104-0.06c0.941-0.077,1.881-0.154,2.822-0.232
		c0.671,0.062,1.398-0.005,2.069,0.093c0.846,0.124,1.726,0.211,2.54,0.341c0.338,0.054,0.64,0.017,0.979,0.079
		c0.144,0.026,0.322,0.084,0.474,0.102c0.408,0.05,0.81-0.04,1.172,0.076c0.611,0.196,1.219,0.441,1.791,0.689
		c0.362,0.157,0.726,0.225,1.094,0.377c0.388,0.16,0.798,0.331,1.182,0.486l0.22,0.017c0.204,0.047,0.429,0.17,0.616,0.251
		c0.099,0.043,0.202,0.034,0.301,0.078c0.496,0.217,0.988,0.523,1.483,0.733c0.181,0.075,0.403,0.077,0.559,0.186
		c0.978,0.687,2.055,1.281,2.935,2.099c0.154,0.143,0.337,0.238,0.491,0.39c0.366,0.364,0.858,0.638,1.233,1.011
		c0.233,0.169,0.467,0.337,0.701,0.506c0.165,0.164,0.374,0.362,0.575,0.475c0.229,0.128,0.517,0.295,0.698,0.481
		c0.226,0.232,0.413,0.47,0.633,0.708c0.203,0.222,0.474,0.422,0.673,0.655c0.163,0.191,0.278,0.401,0.447,0.59
		c0.192,0.214,0.471,0.374,0.663,0.583c0.176,0.19,0.298,0.393,0.471,0.586c0.111,0.125,0.276,0.229,0.389,0.356
		c0.177,0.199,0.292,0.421,0.453,0.637c0.263,0.352,0.591,0.701,0.873,1.037c0.034,0.068,0.068,0.136,0.102,0.203
		c0.362,0.462,0.79,0.923,1.164,1.383c0.307,0.378,0.494,0.841,0.781,1.244c0.068,0.095,0.195,0.193,0.261,0.301
		c0.279,0.462,0.395,1.049,0.632,1.556c0.529,1.129,0.893,2.388,1.427,3.571c0.115,0.257,0.141,0.501,0.254,0.762
		c0.228,0.53,0.432,1.123,0.645,1.651c0.105,0.452,0.209,0.905,0.314,1.358c0.187,0.488,0.413,1.627,0.378,2.148
		c0.019,0.134,0.039,0.268,0.057,0.403c0.064,0.447,0.192,0.9,0.192,1.183c0,0.115,0.07,0.319,0.091,0.471
		c0.03,0.262,0.058,0.524,0.087,0.785c0.125,0.338,0.191,0.795,0.162,1.139c0.014,0.094,0.027,0.189,0.04,0.284
		c-0.064,0.708-0.045,1.565-0.137,2.27c-0.048,0.366,0.061,0.676-0.004,0.993c-0.237,1.143-0.431,2.382-0.684,3.532
		c-0.09,0.403-0.117,0.758-0.225,1.144c-0.041,0.15-0.137,0.334-0.173,0.484c-0.045,0.19-0.019,0.364-0.069,0.542
		c-0.061,0.223-0.184,0.495-0.238,0.711c-0.052,0.214-0.006,0.407-0.085,0.593c-0.563,1.332-1.237,2.649-1.805,3.982
		c-0.106,0.249-0.128,0.494-0.234,0.735c-0.303,0.688-0.666,1.369-0.967,2.048c-0.128,0.289-0.169,0.61-0.309,0.891
		c-0.142,0.284-0.55,0.576-0.722,0.876c-0.272,0.475-0.601,0.883-0.953,1.297c-0.176,0.243-0.35,0.485-0.526,0.728
		c-0.212,0.214-0.398,0.43-0.61,0.643c-0.06,0.089-0.12,0.178-0.18,0.268c-0.075,0.074-0.19,0.103-0.265,0.182
		c-0.033,0.036-0.015,0.116-0.051,0.153c-0.045,0.047-0.107,0.05-0.156,0.094c-0.179,0.167-0.291,0.433-0.471,0.6
		c-0.062,0.057-0.139,0.068-0.2,0.124c-0.059,0.055-0.075,0.19-0.135,0.238c-0.04,0.005-0.08,0.011-0.119,0.016
		c-0.094,0.069-0.139,0.258-0.218,0.346c-0.031,0.035-0.095,0.116-0.125,0.139c-0.04,0.005-0.08,0.011-0.119,0.017
		c-0.044,0.045-0.063,0.218-0.129,0.285c-0.161,0.161-0.332,0.296-0.491,0.457c-0.1,0.151-0.199,0.303-0.298,0.453
		c-0.075,0.035-0.151,0.07-0.227,0.105c-0.198,0.135-0.393,0.307-0.59,0.447c-0.11,0.079-0.229,0.108-0.336,0.193
		c-0.146,0.117-0.282,0.283-0.427,0.4c-0.247,0.199-0.527,0.309-0.777,0.497c-0.12,0.09-0.206,0.238-0.315,0.335
		c-0.069,0.061-0.21,0.08-0.271,0.136c-0.017,0.015-0.011,0.084-0.034,0.101c-0.064,0.047-0.133,0.025-0.184,0.075l-0.034,0.101
		c-0.108,0.108-0.281,0.128-0.403,0.227c-0.135,0.11-0.248,0.282-0.379,0.393c-0.119,0.074-0.238,0.147-0.356,0.22
		c-0.027,0.037-0.054,0.073-0.082,0.109c-0.07,0.043-0.085-0.04-0.142,0.02c-0.02,0.02-0.013,0.08-0.035,0.102
		c-0.125,0.123-0.279,0.24-0.41,0.348c-0.224,0.185-0.513,0.273-0.732,0.467c-0.039,0.062-0.079,0.124-0.119,0.187
		c-0.305,0.278-0.689,0.439-1.014,0.7c-0.195,0.157-0.349,0.358-0.583,0.494c-0.303,0.176-0.591,0.175-0.945,0.328
		c-0.415,0.179-0.843,0.4-1.274,0.568c-0.004,0.002-0.299,0.062-0.356,0.05c-0.044-0.008-0.043-0.069-0.105-0.058l-0.092,0.037
		c0.002,0.016,0.005,0.032,0.007,0.047c-0.08,0.011-0.158,0.023-0.237,0.034c-0.123,0.057-0.358,0.111-0.508,0.169
		c-0.105,0.04-0.285,0.03-0.359,0.026c-0.085-0.005-0.676,0.142-0.797,0.186c-0.735,0.268-1.77,0.373-2.632,0.542
		c-0.337,0.073-0.673,0.145-1.01,0.217c-0.02-0.022-0.038-0.044-0.058-0.065c-0.15,0.021-0.301,0.043-0.451,0.064
		c-0.06,0.164-0.162,0.179-0.407,0.203c-0.094,0.08-0.395,0.095-0.536,0.149c-0.597,0.226-1.222-0.066-1.887,0.001
		c-0.065-0.075-0.199-0.194-0.298-0.223c0.001,0.007,0.002,0.015,0.003,0.023c-0.028,0.048-0.052,0.109-0.074,0.156
		c-0.071-0.01-0.192,0.028-0.288,0.016c-0.337-0.037-0.805-0.114-1.145-0.055c-0.175,0.03-0.4-0.094-0.572-0.113
		c-0.236-0.025-0.435,0.072-0.647,0.044c-0.296-0.038-0.592-0.077-0.888-0.116c-0.143,0.013-0.287,0.025-0.43,0.038
		c-0.036-0.028-0.072-0.055-0.108-0.082c-0.145,0.005-0.289,0.009-0.434,0.014c-0.051-0.013-0.128-0.094-0.183-0.095
		c-0.092-0.003-0.027,0.086-0.132,0.092c-0.429,0.02-0.97-0.05-1.369-0.096c-0.118,0.017-0.237,0.034-0.355,0.05
		c-0.227-0.02-0.525-0.011-0.731-0.041c-0.296-0.044-0.588,0.068-0.847-0.001c-0.165-0.043-0.387-0.091-0.555-0.163
		c-0.097-0.041-0.234-0.153-0.339-0.17c-0.046,0.015-0.092,0.029-0.139,0.044c-0.08-0.011-0.215-0.102-0.284-0.129
		c-0.065,0.001-0.129,0.002-0.193,0.003c-0.157-0.033-0.318-0.166-0.464-0.2c-0.08,0.003-0.16,0.007-0.24,0.01
		c-0.112-0.023-0.245-0.111-0.358-0.143c-0.262-0.073-0.513-0.068-0.772-0.156c-0.094-0.032-0.215-0.125-0.312-0.149
		c-0.141-0.035-0.27,0.01-0.393-0.041c-0.103-0.043-0.195-0.155-0.294-0.199c-0.056-0.001-0.113-0.001-0.169-0.001
		c-0.079-0.025-0.189-0.118-0.264-0.156c-0.222-0.112-0.427-0.185-0.647-0.295c-0.147-0.074-0.301-0.239-0.453-0.298
		c-0.074-0.005-0.147-0.011-0.22-0.017c-0.166-0.059-0.304-0.218-0.453-0.298c-0.449-0.24-0.962-0.392-1.419-0.621
		c-0.1-0.051-0.174-0.178-0.274-0.227c-0.284-0.143-0.593-0.192-0.87-0.337c-0.447-0.233-0.897-0.512-1.361-0.726
		c-0.097-0.044-0.219-0.01-0.323-0.052c-0.298-0.118-0.584-0.318-0.884-0.43c-0.124-0.047-0.258-0.035-0.376-0.092
		c-0.158-0.077-0.296-0.243-0.437-0.349c-0.354-0.269-0.72-0.527-1.079-0.79c-0.043-0.031-0.104-0.024-0.152-0.051
		c-0.239-0.13-0.45-0.323-0.694-0.458l-0.328-0.268c-0.493-0.273-0.926-0.654-1.375-0.99c-0.143-0.108-0.332-0.162-0.474-0.271
		c-0.05-0.066-0.099-0.131-0.149-0.196c-0.067-0.031-0.13,0.006-0.176-0.048c-0.035-0.076-0.07-0.151-0.105-0.227
		c-0.037-0.045-0.378-0.239-0.247-0.376c-0.061-0.051-0.173-0.026-0.23-0.088c-0.099-0.105-0.133-0.241-0.22-0.356
		c-0.234-0.31-0.552-0.591-0.802-0.878c-0.046-0.052-0.027-0.124-0.075-0.183c-0.03-0.037-0.127-0.034-0.155-0.075
		c-0.007-0.047-0.014-0.094-0.02-0.142c-0.054-0.033-0.107-0.065-0.16-0.099c-0.045-0.09-0.09-0.18-0.135-0.271
		c-0.048-0.047-0.125-0.081-0.166-0.145c-0.015-0.046-0.029-0.093-0.044-0.139c-0.142-0.169-0.379-0.315-0.487-0.535
		c0.004-0.033,0.006-0.065,0.01-0.098c-0.051-0.09-0.355-0.327-0.451-0.445c-0.159-0.195-0.245-0.395-0.399-0.596
		c-0.044-0.057-0.145-0.109-0.193-0.167c-0.434-0.516-0.907-1.055-1.252-1.661c-0.197-0.346-0.286-0.719-0.47-1.094
		c-0.2-0.408-0.394-0.887-0.595-1.294c-0.047-0.162-0.094-0.325-0.142-0.487c-0.048-0.098-0.15-0.211-0.189-0.312
		c0.001-0.049,0.003-0.098,0.004-0.146c-0.05-0.144-0.166-0.317-0.233-0.451c-0.062-0.124-0.057-0.225-0.121-0.345
		c-0.361-0.668-0.593-1.464-0.92-2.216c-0.065-0.225-0.128-0.45-0.193-0.675c-0.502-1.241-0.821-2.547-1.053-4.181
		c-0.083-0.521-0.164-1.041-0.246-1.562c-0.088-0.234-0.154-0.674-0.152-0.898c0.001-0.088-0.154-0.754-0.196-0.867
		c-0.118-0.319-0.052-0.818-0.195-1.206c-0.045-0.122-0.119-0.4-0.105-0.566c0.06-0.719-0.001-1.39,0.093-2.07
		c-0.003-0.136-0.006-0.273-0.01-0.41c0.172-1.268,0.097-2.7,0.238-3.953c0.064-0.567-0.064-1.174,0.025-1.697
		c0.055-0.328-0.063-0.589-0.033-0.915c-0.013-0.094-0.027-0.19-0.04-0.284c0.072-0.537,0.284-1.105,0.425-1.609
		c0.067-0.24,0.118-0.488,0.163-0.724c0.005-0.074,0.011-0.147,0.017-0.22c0.189-0.452,0.506-0.885,0.733-1.313
		c0.24-0.454,0.44-0.902,0.679-1.355c0.173-0.329,0.413-0.649,0.587-0.979c0.284-0.541,0.567-1.064,0.862-1.597
		c0.239-0.433,0.625-0.801,0.865-1.236c0.234-0.425,0.539-0.804,0.77-1.222c0.088-0.158,0.178-0.343,0.295-0.477
		c0.1-0.115,0.235-0.184,0.346-0.291c0.089-0.118,0.177-0.235,0.264-0.353c0.244-0.243,0.47-0.49,0.692-0.751
		c0.487-0.573,0.909-1.169,1.451-1.706c0.115-0.154,0.231-0.307,0.345-0.46c0.723-0.725,1.289-1.534,2.028-2.248
		c0.219-0.212,0.393-0.57,0.616-0.765c0.482-0.419,1.121-0.762,1.681-1.11c1.129-0.699,2.304-1.396,3.478-2.09
		c0.8-0.474,1.851-0.67,2.751-1.068c0.441-0.195,0.935-0.386,1.369-0.582c0.248-0.111,0.49-0.117,0.742-0.227
		c0.663-0.285,1.381-0.615,2.05-0.896c0.19-0.027,0.379-0.054,0.569-0.081c0.514-0.193,1.184-0.138,1.694-0.337
		C40.97,67.874,41.358,67.958,41.513,67.826"/>
	<path style="clip-path:url(#SVGID_2_);fill-rule:evenodd;clip-rule:evenodd;fill:#FFFFFF;" d="M51.804,83.734
		c-0.009-0.279-0.092-0.655-0.03-0.89c0.068-0.259,0.439-0.605,0.611-0.813c0.336-0.408,0.633-0.829,1.014-1.208
		c0.175-0.174,0.298-0.424,0.471-0.6c0.497-0.499,0.916-1.065,1.37-1.597c0.525-0.615,1.094-1.204,1.658-1.784
		c0.154-0.157,0.245-0.407,0.376-0.585c0.271-0.368,0.564-0.743,0.888-1.07c0.067-0.098,0.134-0.196,0.2-0.294
		c0.149-0.149,0.349-0.33,0.353-0.582c-0.158-0.149-0.301-0.449-0.406-0.644c-0.027-0.076-0.054-0.154-0.081-0.23
		c-0.063-0.079-0.242-0.101-0.335-0.146c-0.318-0.152-0.749-0.439-1.172-0.414c-0.038,0.065-0.1,0.085-0.149,0.142
		c-0.188,0.219-0.326,0.447-0.536,0.656c-0.119,0.119-0.175,0.295-0.278,0.427c-0.06,0.077-0.197,0.115-0.264,0.183
		c-0.131,0.13-0.115,0.297-0.201,0.464c-0.116,0.145-0.233,0.291-0.349,0.437c-0.076,0.139-0.123,0.282-0.207,0.416
		c-0.559,0.9-1.318,1.673-1.777,2.648c-0.101,0.215-0.15,0.424-0.247,0.64c-0.047,0.104-0.149,0.195-0.2,0.294
		c-0.168,0.32-0.317,0.636-0.495,0.941c-0.036,0.061-0.009,0.139-0.045,0.2c-0.07,0.12-0.325,0.599-0.441,0.643
		c-0.009-0.007-0.018-0.013-0.027-0.02c-0.073-0.522-0.28-0.962-0.287-1.339c-0.013-0.772-0.049-1.735-0.319-2.422
		c-0.073-0.183-0.066-0.418-0.132-0.587c-0.196-0.503-0.138-1.153-0.33-1.646c-0.023-0.166-0.047-0.332-0.07-0.498
		c-0.049-0.34-0.124-0.968-0.227-1.25c-0.087-0.241-0.009-0.648-0.161-0.8c-0.107-0.051-0.244,0.016-0.387,0.006
		c-0.579-0.042-1.11,0.214-1.561,0.416c-0.172,0.076-0.602,0.201-0.634,0.307c-0.043,0.096,0.116,0.537,0.166,0.654
		c0.268,0.626,0.412,1.268,0.679,1.887c0.173,0.401,0.31,0.858,0.487,1.214c0.011,0.021-0.02,0.154,0.007,0.217
		c0.015,0.035,0.079,0.118,0.095,0.156c0.011,0.079,0.023,0.158,0.034,0.237c0.138,0.295,0.277,0.59,0.415,0.885
		c0.031,0.157,0.061,0.314,0.092,0.471c0.184,0.454,0.309,1.112,0.489,1.576c0.038,0.204,0.075,0.408,0.112,0.613
		c0.241,0.643,0.184,1.221,0.398,1.782c0.131,0.345,0.029,0.537,0.189,0.82C50.923,83.742,51.44,83.761,51.804,83.734"/>
	<path style="clip-path:url(#SVGID_2_);fill-rule:evenodd;clip-rule:evenodd;fill:#FFFFFF;" d="M29.332,80.345
		c0.004,0.024,0.007,0.047,0.01,0.071c-0.175,0.16-0.325,0.434-0.442,0.643c-0.234,0.424-0.661,0.742-0.871,1.188
		c-0.06,0.127-0.066,0.247-0.115,0.379c-0.209,0.557-0.396,1.142-0.632,1.686c-0.066,0.152-0.196,0.316-0.248,0.471
		c-0.009,0.163-0.019,0.325-0.028,0.487c-0.069,0.4-0.191,0.845-0.092,1.223c0.012,0.045-0.014,0.18-0.017,0.219
		c0.015,0.103,0.03,0.205,0.044,0.308c-0.018,0.25-0.07,0.691,0.044,0.986c0.093,0.243,0.199,0.471,0.291,0.685
		c0.091,0.215,0.081,0.413,0.182,0.603c0.121,0.229,0.267,0.497,0.372,0.746c0.024,0.109,0.047,0.219,0.071,0.328
		c0.08,0.19,0.194,0.402,0.278,0.59c0.097,0.217,0.111,0.402,0.209,0.623c0.098,0.219,0.308,0.644,0.294,0.878
		c0.273,0.554,0.57,1.095,0.859,1.62c0.121,0.22,0.181,0.419,0.308,0.633c0.696,1.178,1.264,2.59,2.002,3.708
		c0.187,0.285,0.324,0.625,0.497,0.946c0.046,0.086,0.164,0.233,0.142,0.318c-0.141,0.137-0.34,0.176-0.515,0.291
		c-0.326,0.215-0.72,0.357-1.054,0.586c-0.735,0.503-1.447,0.963-2.108,1.509c-0.048,0.063-0.095,0.127-0.143,0.189
		c-0.111,0.104-0.246,0.16-0.349,0.268c-0.082,0.086-0.109,0.237-0.196,0.318c-0.169,0.157-0.357,0.278-0.492,0.457
		c-0.047,0.062-0.057,0.156-0.115,0.21c-0.131,0.121-0.322,0.218-0.407,0.372c-0.125,0.23-0.163,0.506-0.282,0.742
		c-0.357,0.708-0.789,1.417-1.014,2.224c-0.174,0.617-0.24,1.312-0.402,1.944c-0.1,0.394-0.01,0.931-0.048,1.361
		c0.014,0.103,0.028,0.206,0.043,0.309c-0.026,0.377,0.128,1.331,0.229,1.612c0.047,0.332,0.094,0.664,0.141,0.996
		c0.414,0.999,1.044,1.697,1.672,2.4c0.159,0.179,0.264,0.387,0.419,0.569c0.113,0.134,0.278,0.249,0.393,0.38
		c0.059,0.067,0.068,0.157,0.129,0.224c0.125,0.087,0.25,0.174,0.375,0.261c0.085,0.085,0.2,0.248,0.308,0.295
		c0.032-0.005,0.063-0.009,0.094-0.014c0.014,0.038,0.027,0.076,0.04,0.115c0.099,0.122,0.306,0.263,0.437,0.349
		c0.475,0.314,1.024,0.512,1.538,0.774c0.271,0.138,0.536,0.338,0.815,0.465c0.164,0.074,0.348,0.088,0.508,0.169
		c0.184,0.095,0.378,0.259,0.599,0.302c0.486-0.045,0.971-0.09,1.457-0.134c0.596,0.046,1.939-0.129,2.538-0.36
		c0.141-0.02,0.284-0.04,0.426-0.061c0.347-0.131,0.724-0.148,1.003-0.263c0.134-0.019,0.268-0.038,0.403-0.057
		c0.298-0.131,0.546-0.347,0.8-0.501c0.311-0.189,0.652-0.266,0.949-0.473c0.149-0.104,0.274-0.278,0.431-0.376
		c0.166-0.103,0.343-0.144,0.495-0.264c0.566-0.445,1.223-0.838,1.8-1.295c0.194-0.154,0.503-0.453,0.783-0.451
		c0.051,0.175,0.195,0.287,0.277,0.421c0.134,0.214,0.24,0.451,0.358,0.651c0.34,0.573,0.514,1.235,0.839,1.816
		c0.169,0.302,0.434,0.62,0.636,0.902c0.437,0.609,0.854,1.188,1.312,1.749c0.045,0.083,0.088,0.165,0.132,0.248
		c0.207,0.249,0.486,0.46,0.704,0.699c0.093,0.102,0.138,0.233,0.24,0.328c0.239,0.224,0.559,0.381,0.789,0.614
		c0.379,0.384,0.762,0.75,1.232,1.01c0.165,0.138,0.33,0.276,0.495,0.414c0.09,0.011,0.181,0.022,0.271,0.035
		c0.219,0.056,0.456,0.103,0.701,0.166c0.396,0.101,0.811,0.234,1.209,0.336c0.194,0.05,0.364,0.022,0.566,0.065
		c0.104,0.022,0.239,0.099,0.331,0.122c0.408,0.101,0.86,0.064,1.297,0.105c0.159-0.014,0.319-0.028,0.477-0.043
		c0.508,0.063,1.214-0.075,1.705-0.266c0.25-0.052,0.501-0.104,0.751-0.155c0.484-0.198,0.934-0.468,1.376-0.703
		c0.265-0.142,0.566-0.159,0.804-0.308c0.145-0.091,0.215-0.273,0.332-0.386c0.187-0.182,0.368-0.364,0.552-0.538
		c0.305-0.287,0.699-0.497,1-0.795c0.183-0.181,0.408-0.701,0.543-0.948c0.108-0.196,0.273-0.384,0.376-0.586
		c0.458-0.894,0.856-1.836,1.253-2.766c0.272-0.637-0.012-1.601,0.056-2.331c-0.031-0.214-0.061-0.427-0.091-0.64
		c0.034-0.437-0.087-0.972-0.158-1.454c-0.025-0.118-0.05-0.235-0.074-0.352c0.006-0.25-0.111-0.697-0.24-1.007
		c-0.038-0.156-0.077-0.311-0.115-0.467c-0.04-0.087-0.142-0.181-0.183-0.264c-0.01-0.071-0.02-0.143-0.03-0.214
		c-0.039-0.091-0.083-0.209-0.143-0.318c-0.045-0.083-0.169-0.187-0.206-0.261c0.002-0.049,0.002-0.097,0.004-0.145
		c-0.01-0.02-0.075-0.065-0.085-0.085c-0.04-0.115-0.081-0.231-0.121-0.345c-0.029-0.041-0.112-0.08-0.139-0.126
		c-0.142-0.24-0.202-0.495-0.345-0.725c-0.08-0.13-0.219-0.261-0.298-0.393c-0.122-0.206-0.149-0.383-0.273-0.565
		c-0.174-0.252-0.4-0.467-0.582-0.692c-0.114-0.141-0.16-0.295-0.278-0.421c-0.084-0.089-0.239-0.112-0.318-0.196
		c-0.078-0.084-0.261-0.425-0.295-0.539c0.44-0.27,0.888-0.574,1.332-0.842c0.442-0.267,0.941-0.43,1.322-0.744
		c0.642-0.53,1.31-1.081,1.919-1.651c0.316-0.296,0.611-0.642,0.932-0.931c0.31-0.279,0.636-0.551,0.95-0.812
		c0.096-0.081,0.217-0.107,0.311-0.19c0.204-0.178,0.39-0.413,0.594-0.592c0.112-0.098,0.276-0.253,0.39-0.322
		c0.109-0.066,0.229-0.068,0.319-0.142c0.277-0.229,0.562-0.485,0.867-0.704c0.213-0.153,0.486-0.251,0.665-0.433
		c0.063-0.065,0.061-0.179,0.109-0.257l0.088-0.061c0.08-0.131,0.111-0.276,0.184-0.413c0.129-0.246,0.348-0.452,0.508-0.677
		c0.004-0.032,0.007-0.065,0.01-0.098c0.034-0.053,0.122-0.087,0.149-0.143c0.05-0.097,0.003-0.194,0.027-0.318
		c0.068-0.349,0.143-0.692,0.211-1.07c0.132-0.729,0.179-1.574,0.273-2.337c-0.008-0.112-0.016-0.224-0.023-0.335
		c0.03-0.321,0.05-0.896-0.026-1.206c-0.016-0.067,0.009-0.189,0.014-0.244c-0.064-0.394-0.128-0.789-0.192-1.182
		c-0.27-0.649-0.675-1.285-1.011-1.84c-0.101-0.167-0.129-0.337-0.24-0.498c-0.075-0.107-0.232-0.233-0.292-0.346
		c-0.06-0.112-0.035-0.207-0.091-0.301c-0.364-0.62-0.776-1.312-1.187-1.888c-0.117-0.164-0.164-0.342-0.288-0.491
		c-0.155-0.186-0.385-0.289-0.548-0.454c-0.092-0.092-0.157-0.228-0.261-0.302c-0.091-0.065-0.251-0.048-0.353-0.095
		c-0.127-0.058-0.265-0.155-0.393-0.21c-0.091-0.02-0.183-0.039-0.274-0.058c-0.141-0.068-0.28-0.221-0.427-0.278
		c-0.088-0.035-0.16-0.003-0.248-0.038c-0.081-0.061-0.162-0.121-0.244-0.183c-0.256-0.096-0.491-0.133-0.755-0.207
		c-0.386-0.109-0.785-0.311-1.172-0.414c-0.172-0.046-0.327-0.029-0.495-0.075c-0.486-0.134-0.969-0.388-1.493-0.466
		c-0.104,0.007-0.208,0.014-0.312,0.02c-0.189-0.021-0.384-0.067-0.593-0.084c-0.189,0.026-0.379,0.053-0.569,0.08
		c-1.616-0.123-3.433,0.587-4.699,1.151c-0.388,0.172-0.835,0.224-1.223,0.415c-0.388,0.192-0.759,0.472-1.112,0.691
		c-0.731,0.454-1.389,0.877-2.026,1.401c-0.3,0.245-0.865,0.813-1.292,0.788c-0.058-0.096-0.117-0.139-0.06-0.258
		c-0.054-0.032-0.106-0.065-0.159-0.098c-0.203-0.271-0.295-0.596-0.507-0.847c-0.13-0.154-0.325-0.275-0.451-0.443
		c-0.165-0.224-0.26-0.459-0.432-0.665c-0.293-0.35-0.651-0.694-0.924-1.054c-0.171-0.225-0.332-0.426-0.501-0.63
		c-0.043-0.083-0.088-0.165-0.132-0.248c-0.067-0.022-0.136-0.046-0.203-0.068c-0.059-0.059-0.06-0.194-0.108-0.25
		c-0.017-0.02-0.139-0.085-0.163-0.122c-0.096-0.149-0.109-0.252-0.203-0.407c-0.135-0.224-0.382-0.378-0.541-0.577
		c-0.157-0.194-0.199-0.46-0.358-0.65c-0.114-0.137-0.307-0.182-0.43-0.302c-0.102-0.101-0.211-0.248-0.335-0.316
		c-0.114-0.062-0.255-0.098-0.342-0.194c-0.249-0.273-0.49-0.609-0.813-0.78c-0.079-0.042-0.178-0.037-0.253-0.084
		c-0.115-0.073-0.209-0.205-0.328-0.268c-0.098-0.052-0.202-0.051-0.305-0.101c-0.08-0.04-0.124-0.142-0.197-0.19
		c-0.067-0.014-0.133-0.029-0.199-0.044c-0.091-0.076-0.183-0.151-0.274-0.227c-0.29-0.154-0.599-0.236-0.901-0.38
		c-0.118-0.056-0.239-0.178-0.369-0.214c-0.08,0.003-0.16,0.007-0.24,0.01c-0.253-0.03-0.541-0.099-0.792-0.129
		c-0.064,0.009-0.127,0.018-0.19,0.027c-0.247-0.028-0.539-0.074-0.789-0.105c-0.354-0.046-0.716-0.002-1.047-0.045
		c-0.167,0.015-0.334,0.031-0.502,0.046c-0.368-0.031-0.968-0.021-1.321,0.067c-0.328,0.082-0.789,0.024-1.114,0.158
		c-1.492,0.617-2.758,1.306-3.955,2.134c-0.163,0.114-0.327,0.269-0.478,0.383c-0.203,0.153-0.416,0.233-0.597,0.399
		C29.523,80.036,29.536,80.272,29.332,80.345"/>
</g>
</svg>
