<?xml version="1.0" encoding="iso-8859-1"?>
<!-- Generator: Adobe Illustrator 20.1.0, SVG Export Plug-In . SVG Version: 6.00 Build 0)  -->
<svg version="1.1" id="pvv" xmlns="http://www.w3.org/2000/svg" xmlns:xlink="http://www.w3.org/1999/xlink" x="0px" y="0px"
	 viewBox="0 0 200 200" style="enable-background:new 0 0 200 200;" xml:space="preserve">
<g>
	<g>
		<defs>
			<rect id="SVGID_1_" x="32.197" y="103.076" width="23.997" height="15.451"/>
		</defs>
		<clipPath id="SVGID_2_">
			<use xlink:href="#SVGID_1_"  style="overflow:visible;"/>
		</clipPath>
	</g>
	<g>
		<defs>
			<rect id="SVGID_3_" x="49.633" y="95.07" width="45.339" height="12.905"/>
		</defs>
		<clipPath id="SVGID_4_">
			<use xlink:href="#SVGID_3_"  style="overflow:visible;"/>
		</clipPath>
	</g>
	<g>
		<defs>
			
				<rect id="SVGID_5_" x="16.741" y="69.728" transform="matrix(0.4406 -0.8977 0.8977 0.4406 -69.9721 72.5117)" width="12.905" height="45.339"/>
		</defs>
		<clipPath id="SVGID_6_">
			<use xlink:href="#SVGID_5_"  style="overflow:visible;"/>
		</clipPath>
	</g>
	<g>
		<g id="Layer_1">
			<g>
				<polyline style="fill:none;" points="5.373,105.277 48.813,105.277 48.813,80.978 5.373,80.978 				"/>
				<g>
					<g>
						<defs>
							<polyline id="SVGID_7_" points="0,88.203 5.685,76.618 46.387,96.593 40.702,108.177 							"/>
						</defs>
						<clipPath id="SVGID_8_">
							<use xlink:href="#SVGID_7_"  style="overflow:visible;"/>
						</clipPath>
					</g>
				</g>
				<path style="fill:#1E4973;" d="M5.028,80.741c2.19,2.29,4.51,4.451,6.949,6.474c3.872,3.017,7.961,5.744,12.236,8.157
					c3.543,2.115,7.305,3.837,11.221,5.136c2.438,0.41,5.848,1.122,5.848,1.122l3.453-6.862l0.539-1.252
					c0,0-12.624-4.381-13.919-5.546c-1.295-1.165-1.079-0.993-3.647-1.403c-2.568-0.41-15.106-2.784-18.515-4.035
					c-1.457-0.432-2.856-1.04-4.165-1.813"/>
				<path style="fill:none;stroke:#231F20;stroke-width:1.14;" d="M5.028,80.741c2.19,2.29,4.51,4.451,6.949,6.474
					c3.872,3.017,7.961,5.744,12.236,8.157c3.543,2.115,7.305,3.837,11.221,5.136c2.438,0.41,5.848,1.122,5.848,1.122l3.453-6.862
					l0.539-1.252c0,0-12.624-4.381-13.919-5.546c-1.295-1.165-1.079-0.993-3.647-1.403c-2.568-0.41-15.106-2.784-18.515-4.035
					c-1.457-0.432-2.856-1.04-4.165-1.813"/>
				<g>
					<g>
						<defs>
							<rect id="SVGID_9_" x="49.633" y="95.07" width="45.339" height="12.905"/>
						</defs>
						<clipPath id="SVGID_10_">
							<use xlink:href="#SVGID_9_"  style="overflow:visible;"/>
						</clipPath>
					</g>
				</g>
				<path style="fill:#1E4973;" d="M52.309,95.027c0,0,9.495-0.129,12.667,0c3.172,0.129,5.654,0.129,5.654,0.129
					s4.316,1.036,7.661,1.662c3.345,0.626,7.618,1.101,9.409,1.252c1.791,0.151,3.604,0.41,3.604,0.41s1.748,0.281-6.69,2.158
					c-5.82,1.423-11.713,2.533-17.652,3.323c-4.65,0.627-9.356,0.721-14.027,0.281c-1.152-0.199-2.286-0.495-3.388-0.885
					c0,0,1.726-4.316,2.287-5.827c0.317-0.777,0.506-1.601,0.561-2.438"/>
				<path style="fill:none;stroke:#231F20;stroke-width:1.14;" d="M52.309,95.027c0,0,9.495-0.129,12.667,0
					c3.172,0.129,5.654,0.129,5.654,0.129s4.316,1.036,7.661,1.662c3.345,0.626,7.618,1.101,9.409,1.252
					c1.791,0.151,3.604,0.41,3.604,0.41s1.748,0.281-6.69,2.158c-5.82,1.423-11.713,2.533-17.652,3.323
					c-4.65,0.627-9.356,0.721-14.027,0.281c-1.152-0.199-2.286-0.495-3.388-0.885c0,0,1.726-4.316,2.287-5.827
					C52.128,96.727,52.289,95.881,52.309,95.027z"/>
				<g>
					<g>
						<defs>
							<rect id="SVGID_11_" x="32.197" y="103.054" width="23.997" height="15.473"/>
						</defs>
						<clipPath id="SVGID_12_">
							<use xlink:href="#SVGID_11_"  style="overflow:visible;"/>
						</clipPath>
					</g>
				</g>
				<path style="fill:#ED1A3B;" d="M40.85,102.968l-8.804,3.172c0,0,2.935,5.762,5.999,7.315c3.604,1.834,6.237,1.834,10.596,0
					c1.545-0.565,2.925-1.507,4.014-2.741l-4.035-5.956l-5.416-0.971L40.85,102.968z"/>
				<path style="fill:none;stroke:#231F20;stroke-width:1.14;" d="M40.85,102.968l-8.804,3.172c0,0,2.935,5.762,5.999,7.315
					c3.604,1.834,6.237,1.834,10.596,0c1.545-0.565,2.925-1.507,4.014-2.741l-4.035-5.956l-5.416-0.971L40.85,102.968z"/>
				<path style="fill:#FFFFFF;" d="M44.929,93.451l2.158-0.583c0.225-0.594,0.588-1.126,1.057-1.554
					c0.192-0.31,0.441-0.581,0.734-0.798c1.208-0.539,1.295-0.691,1.964-0.129c0.511,0.69,0.838,1.5,0.95,2.352l0.281,1.144
					l0.281,0.95c-0.037,1.208-0.293,2.4-0.755,3.517c-1.403,4.014-1.338,4.683-3,6.344c-0.819,0.847-1.699,1.634-2.633,2.352
					l-0.906,1.834c0,0-0.518,3.302-1.187,3.453c-0.435,0.075-0.848-0.217-0.923-0.651c-0.047-0.271,0.049-0.546,0.254-0.73
					c0.596-0.961,1.074-1.989,1.424-3.064c0,0,0-0.583-0.82,0c-0.701,0.191-1.27,0.704-1.532,1.381
					c-0.354,0.696-0.657,1.418-0.906,2.158c-0.295-0.566-0.349-1.227-0.151-1.834c0.095-0.892,0.059-1.794-0.108-2.676
					c-0.21-1.496-0.21-3.014,0-4.51c0.41-1.101,1.597-4.143,2.438-5.719C44.085,95.644,44.547,94.562,44.929,93.451"/>
				<path style="fill:none;stroke:#231F20;stroke-width:1.14;" d="M44.929,93.451l2.158-0.583c0.225-0.594,0.588-1.126,1.057-1.554
					c0.192-0.31,0.441-0.581,0.734-0.798c1.208-0.539,1.295-0.691,1.964-0.129c0.511,0.69,0.838,1.5,0.95,2.352l0.281,1.144
					l0.281,0.95c-0.037,1.208-0.293,2.4-0.755,3.517c-1.403,4.014-1.338,4.683-3,6.344c-0.819,0.847-1.699,1.634-2.633,2.352
					l-0.906,1.834c0,0-0.518,3.302-1.187,3.453c-0.435,0.075-0.848-0.217-0.923-0.651c-0.047-0.271,0.049-0.546,0.254-0.73
					c0.596-0.961,1.074-1.989,1.424-3.064c0,0,0-0.583-0.82,0c-0.701,0.191-1.27,0.704-1.532,1.381
					c-0.354,0.696-0.657,1.418-0.906,2.158c-0.295-0.566-0.349-1.227-0.151-1.834c0.095-0.892,0.059-1.794-0.108-2.676
					c-0.21-1.496-0.21-3.014,0-4.51c0.41-1.101,1.597-4.143,2.438-5.719C44.085,95.644,44.547,94.562,44.929,93.451z"/>
				<path style="fill:#B1B3B6;" d="M44.13,107.974c-0.439,0.092-0.839,0.318-1.144,0.647c-0.561,0.518-1.252,1.316-1.252,1.316
					s-0.367,0.885-0.453,0.388c-0.073-0.305-0.073-0.623,0-0.928c0,0-0.173-0.496-0.237-0.669c-0.165-0.594-0.281-1.2-0.345-1.813
					c-0.18-1.431-0.216-2.877-0.108-4.316c0.056-0.379,0.18-0.744,0.367-1.079l1.187-2.244l1.316-2.676l1.403-3.151l1.295-0.41
					l0.95-0.259c0,0,0.367-0.647,0.669-1.122c0.185-0.302,0.418-0.572,0.691-0.798c0.255-0.287,0.61-0.465,0.993-0.496l0.129,0.928
					c0,0,0,4.316,0,5.265c0.244,1.002,0.122,2.058-0.345,2.978c-0.457,1.338-1.065,2.619-1.813,3.82
					c-0.842,1.532-2.784,4.575-2.784,4.575c-0.172-0.076-0.368-0.076-0.539,0"/>
				<path style="fill:none;stroke:#231F20;stroke-width:1.14;" d="M44.13,107.974c-0.439,0.092-0.839,0.318-1.144,0.647
					c-0.561,0.518-1.252,1.316-1.252,1.316s-0.367,0.885-0.453,0.388c-0.073-0.305-0.073-0.623,0-0.928c0,0-0.173-0.496-0.237-0.669
					c-0.165-0.594-0.281-1.2-0.345-1.813c-0.18-1.431-0.216-2.877-0.108-4.316c0.056-0.379,0.18-0.744,0.367-1.079l1.187-2.244
					l1.316-2.676l1.403-3.151l1.295-0.41l0.95-0.259c0,0,0.367-0.647,0.669-1.122c0.185-0.302,0.418-0.572,0.691-0.798
					c0.255-0.287,0.61-0.465,0.993-0.496l0.129,0.928c0,0,0,4.316,0,5.265c0.244,1.002,0.122,2.058-0.345,2.978
					c-0.457,1.338-1.065,2.619-1.813,3.82c-0.842,1.532-2.784,4.575-2.784,4.575C44.477,107.875,44.29,107.891,44.13,107.974z"/>
				<path style="fill:#231F20;" d="M49.568,91.509c-0.523,0.482-0.897,1.103-1.079,1.791c0.042,0.523,0.229,1.023,0.539,1.446
					l0.539-0.173c0.354-0.323,0.531-0.797,0.475-1.273C49.87,92.631,49.568,91.509,49.568,91.509"/>
				<path style="fill:none;stroke:#231F20;stroke-width:1.14;" d="M49.568,91.509c-0.523,0.482-0.897,1.103-1.079,1.791
					c0.042,0.523,0.229,1.023,0.539,1.446l0.539-0.173c0.354-0.323,0.531-0.797,0.475-1.273
					C49.87,92.631,49.568,91.509,49.568,91.509z"/>
				<path style="fill:#231F20;" d="M48.425,91.639c0.126,0.036,0.257-0.038,0.293-0.164c0.036-0.126-0.038-0.257-0.164-0.293
					c-0.126-0.036-0.257,0.038-0.293,0.164c-0.005,0.018-0.008,0.037-0.009,0.056C48.239,91.513,48.314,91.617,48.425,91.639"/>
				<ellipse style="fill:none;stroke:#231F20;stroke-width:1.14;" cx="48.425" cy="91.401" rx="0.173" ry="0.237"/>
				<path style="fill:#231F20;" d="M45.943,106.982v-0.712l-1.079,1.446l-0.432,1.036c-0.153,0.48-0.341,0.949-0.561,1.403
					c-0.313,0.405-0.588,0.839-0.82,1.295c-0.095,0.235-0.014,0.504,0.194,0.647c0.141,0.212,0.403,0.308,0.647,0.237
					c0.374-0.316,0.645-0.737,0.777-1.208c0-0.432,0.388-1.64,0.388-1.942c0.191-0.566,0.445-1.108,0.755-1.618l0.259-0.453
					L45.943,106.982z"/>
				<path style="fill:#231F20;" d="M43.246,106.701v-0.712l-1.079,1.424l-0.432,1.036c-0.153,0.48-0.341,0.949-0.561,1.403
					c-0.316,0.403-0.591,0.837-0.82,1.295c-0.08,0.244-0.013,0.513,0.173,0.691c0.174,0.177,0.431,0.244,0.669,0.173
					c0.37-0.32,0.639-0.739,0.777-1.208c0.182-0.636,0.312-1.285,0.388-1.942c0.191-0.566,0.444-1.109,0.755-1.618l0.259-0.453
					L43.246,106.701z"/>
				<path style="fill:none;stroke:#231F20;stroke-width:1.14;" d="M43.246,106.701v-0.712l-1.079,1.424l-0.432,1.036
					c-0.153,0.48-0.341,0.949-0.561,1.403c-0.316,0.403-0.591,0.837-0.82,1.295c-0.08,0.244-0.013,0.513,0.173,0.691
					c0.174,0.177,0.431,0.244,0.669,0.173c0.37-0.32,0.639-0.739,0.777-1.208c0.182-0.636,0.312-1.285,0.388-1.942
					c0.191-0.566,0.444-1.109,0.755-1.618l0.259-0.453L43.246,106.701z"/>
				<path style="fill:#231F20;" d="M51.489,92.459c0.126,0.036,0.257-0.038,0.293-0.164c0.036-0.126-0.038-0.257-0.164-0.293
					c-0.126-0.036-0.257,0.038-0.293,0.164c-0.005,0.018-0.008,0.037-0.009,0.056C51.303,92.333,51.378,92.437,51.489,92.459"/>
				<ellipse style="fill:none;stroke:#231F20;stroke-width:1.14;" cx="51.489" cy="92.221" rx="0.173" ry="0.237"/>
				<path style="fill:#231F20;" d="M138.865,120.836h4.553v-0.906h-3.453v-2.568h3.021v-0.885h-3.021v-2.158h3.388v-0.928h-4.489
					v7.467V120.836z M131.744,119.951v-5.697h0.842c2.158,0,3.323,0.777,3.323,2.805c0.111,1.509-1.022,2.824-2.531,2.935
					c-0.243,0.018-0.488,0.003-0.727-0.043H131.744z M130.621,120.836h1.942c3.107,0,4.489-1.64,4.489-3.841
					s-1.36-3.625-4.424-3.625h-2.007V120.836z M121.45,116.671v-2.417h1.036c1.144,0,1.662,0.367,1.662,1.187
					c0,0.82-0.475,1.23-1.575,1.23h-1.101H121.45z M120.35,120.836h1.101v-3.323h0.129c0.475,0,0.647,0,1.446,1.187l1.554,2.158
					h1.273l-1.856-2.482c-0.246-0.358-0.536-0.685-0.863-0.971l0,0c1.092,0.096,2.055-0.713,2.151-1.805
					c0.004-0.046,0.006-0.091,0.007-0.137c-0.037-1.191-1.032-2.127-2.223-2.091c-0.153,0.005-0.304,0.026-0.453,0.062h-2.158v7.467
					L120.35,120.836z M114.631,120.059c-1.641,0.106-3.058-1.138-3.164-2.779c-0.106-1.641,1.138-3.058,2.779-3.164
					c1.641-0.106,3.058,1.138,3.164,2.779c0.006,0.098,0.008,0.196,0.004,0.294c0.119,1.497-0.998,2.807-2.494,2.926
					c-0.082,0.007-0.164,0.009-0.246,0.008 M114.674,121.03c2.133-0.012,3.853-1.751,3.841-3.884
					c-0.012-2.133-1.751-3.853-3.884-3.841c-2.133,0.012-3.853,1.751-3.841,3.884c-0.049,2.073,1.591,3.794,3.664,3.843
					c0.081,0.002,0.161,0.001,0.242-0.002 M105.589,120.124c-1.638,0.143-3.083-1.069-3.226-2.708
					c-0.143-1.638,1.069-3.083,2.708-3.226c1.638-0.143,3.083,1.069,3.226,2.708c0.008,0.097,0.012,0.194,0.011,0.291
					c0.119,1.497-0.998,2.807-2.494,2.926c-0.082,0.007-0.164,0.009-0.246,0.008 M105.567,121.03
					c2.133-0.012,3.853-1.751,3.841-3.884s-1.751-3.853-3.884-3.841c-2.133,0.012-3.853,1.751-3.841,3.884
					c-0.049,2.073,1.591,3.794,3.664,3.843c0.081,0.002,0.161,0.001,0.242-0.002 M96.957,120.9h1.057l2.892-7.467H99.87l-1.899,5.05
					c-0.216,0.561-0.453,1.273-0.453,1.273l0,0c0,0-0.237-0.734-0.453-1.273l-1.964-5.05h-1.165L96.957,120.9z M87.462,123.015
					c0.975,0.072,1.823-0.66,1.895-1.634c0.013-0.176,0-0.352-0.039-0.524v-7.467h-1.165v7.402c0,0.885-0.281,1.273-0.928,1.273
					c-0.156,0.034-0.318,0.034-0.475,0l-0.151,0.928c0.249,0.087,0.513,0.124,0.777,0.108 M84.484,120.944h1.101v-7.553h-1.101
					v7.467V120.944z M79.586,120.944h1.101v-6.474h2.287v-1.079h-5.675v0.906h2.287v6.474L79.586,120.944z M72.356,116.671v-2.417
					h1.036c1.144,0,1.662,0.367,1.662,1.187c0,0.82-0.475,1.23-1.597,1.23H72.356z M71.277,120.836h1.079v-3.323h0.129
					c0.475,0,0.647,0,1.446,1.187l1.554,2.158h1.273l-1.856-2.482c-0.246-0.359-0.536-0.685-0.863-0.971l0,0
					c1.092,0.096,2.055-0.713,2.151-1.805c0.004-0.046,0.006-0.091,0.007-0.137c-0.037-1.191-1.032-2.127-2.223-2.091
					c-0.153,0.005-0.304,0.026-0.453,0.062h-2.158v7.467L71.277,120.836z M67.674,118.225h-2.849l0.95-2.46
					c0.237-0.604,0.475-1.338,0.475-1.338l0,0c0,0,0.216,0.691,0.475,1.338L67.674,118.225z M64.458,119.153h3.582l0.669,1.705
					h1.144l-3.021-7.467h-1.079l-3,7.467h0.971L64.458,119.153z M58.761,116.995v-2.805h0.971c1.316,0,1.813,0.475,1.813,1.36
					s-0.561,1.424-1.856,1.424h-0.906L58.761,116.995z M57.682,120.836h1.101v-2.892h0.928c1.319,0.274,2.61-0.572,2.884-1.891
					c0.032-0.152,0.049-0.306,0.051-0.461c-0.082-1.296-1.2-2.281-2.497-2.198c-0.104,0.007-0.207,0.02-0.309,0.04h-2.158v7.467
					V120.836z"/>
				<path style="fill:#231F20;" d="M194.67,119.347v-4.596h0.691c1.176-0.191,2.285,0.608,2.476,1.785
					c0.02,0.123,0.029,0.248,0.028,0.373c0.172,1.179-0.644,2.275-1.823,2.447c-0.226,0.033-0.455,0.03-0.68-0.009H194.67z
					 M192.728,120.879h2.633c3.172,0,4.64-1.683,4.64-3.906s-1.532-3.755-4.64-3.755h-2.633v7.618V120.879z M188.692,120.879h1.942
					v-7.661h-1.942v7.618V120.879z M181.765,120.879h5.071v-1.532h-3.151v-1.705h2.762v-1.403h-2.762v-1.511h3.043v-1.511h-4.963
					v7.618V120.879z M172.615,120.879h1.942v-3.194h3.259v3.151h1.921v-7.618h-1.921v2.892h-3.259v-2.892h-1.942v7.618V120.879z
					 M168.148,123.361c1.18,0.167,2.272-0.655,2.438-1.835c0.028-0.2,0.028-0.403,0-0.603v-7.704h-1.942v7.467
					c0.126,0.435-0.125,0.89-0.56,1.016c-0.12,0.035-0.245,0.042-0.368,0.02c-0.212-0.037-0.417-0.11-0.604-0.216l-0.281,1.511
					c0.422,0.153,0.868,0.226,1.316,0.216 M164.329,120.749h1.942v-7.531h-1.942v7.618V120.749z M158.459,116.434v-1.791h0.755
					c0.885,0,1.273,0.324,1.273,0.971c0.017,0.524-0.395,0.963-0.919,0.979c-0.09,0.003-0.181-0.007-0.268-0.03h-0.842
					L158.459,116.434z M156.517,120.749h1.942v-2.87l0,0c0.473,0.026,0.878,0.345,1.014,0.798l1.381,2.158h2.158l-1.381-2.158
					c-0.272-0.448-0.615-0.848-1.014-1.187l0,0c1.075-0.124,1.858-1.079,1.77-2.158c0-1.489-1.122-2.158-3.086-2.158h-2.784v7.618
					L156.517,120.749z M150.496,120.749h1.856l2.956-7.618h-1.921l-1.511,4.316c-0.194,0.583-0.388,1.23-0.388,1.252l0,0
					c0,0-0.194-0.669-0.388-1.252l-1.575-4.316h-2.158L150.496,120.749z"/>
			</g>
		</g>
	</g>
</g>
</svg>
