<?xml version="1.0" encoding="iso-8859-1"?>
<!-- Generator: Adobe Illustrator 20.1.0, SVG Export Plug-In . SVG Version: 6.00 Build 0)  -->
<svg version="1.1" id="sgp" xmlns="http://www.w3.org/2000/svg" xmlns:xlink="http://www.w3.org/1999/xlink" x="0px" y="0px"
	 viewBox="0 0 200 200" style="enable-background:new 0 0 200 200;" xml:space="preserve">
<g>
	<path id="_Path_" style="fill:#E76024;" d="M60.206,94.519c-6.747-1.984-7.923-3.005-7.923-6.817c0-4.748,1.417-5.542,4.252-5.542
		c1.928,0,4.847,0,6.01,0.213l0.071,7.994c-0.008,0.329,0.252,0.602,0.581,0.609c0,0,0,0,0,0h12.218
		c0.327,0.031,0.618-0.208,0.65-0.536c0.002-0.025,0.003-0.049,0.002-0.074V72.791c0-0.266-0.172-0.501-0.425-0.581
		c-2.835-0.85-11.892-1.616-18.893-1.616c-14.698,0-19.248,4.578-19.248,17.717s3.246,15.449,17.122,19.843
		c7.087,2.197,8.093,3.09,8.093,7.299c0,5.514-0.822,5.343-5.91,5.343c-1.72-0.034-3.438-0.157-5.145-0.369l-0.071-7.909
		c0.008-0.329-0.252-0.602-0.581-0.609c0,0,0,0,0,0h-11.92c-0.329,0.008-0.589,0.28-0.581,0.609c0,0,0,0,0,0v17.604
		c-0.005,0.289,0.198,0.54,0.482,0.595c5.852,0.739,11.748,1.07,17.646,0.992c16.555,0,21.076-3.047,21.076-17.334
		C77.725,101.521,73.997,98.587,60.206,94.519z"/>
	<path id="_Compound_Path_" style="fill:#E76024;" d="M163.787,74.959c-2.381-2.835-5.953-3.969-12.345-3.969h-25.371
		c-0.329,0.007-0.589,0.28-0.582,0.609c0,0.005,0,0.01,0.001,0.015v11.693c-0.016,0.328,0.238,0.607,0.566,0.623
		c0.005,0,0.01,0,0.015,0.001h2.438v35.065h-2.438c-0.329,0.007-0.589,0.28-0.582,0.609c0,0.005,0,0.01,0.001,0.015v11.339
		c-0.016,0.328,0.238,0.607,0.566,0.623c0.005,0,0.01,0,0.015,0.001h22.508c0.329-0.007,0.589-0.28,0.582-0.609
		c0-0.005,0-0.01-0.001-0.015v-10.942c0.016-0.328-0.238-0.607-0.566-0.623c-0.005,0-0.01,0-0.015-0.001h-5.145v-6.591h7.852
		c6.307,0,10.021-1.219,12.43-4.082c2.622-3.118,3.784-8.334,3.784-17.008S166.338,77.992,163.787,74.959z M157.975,92.676
		l-17.306,9.44c-0.118,0.071-0.265,0.071-0.383,0c-0.119-0.078-0.188-0.212-0.184-0.354V81.918
		c-0.001-0.145,0.074-0.279,0.198-0.354c0.118-0.071,0.265-0.071,0.383,0l17.306,10.389c0.197,0.128,0.254,0.391,0.126,0.588
		C158.08,92.597,158.032,92.643,157.975,92.676z"/>
	<path id="_Path_2" style="fill:#E76024;" d="M121.138,99.834h-2.282h-16.342c-0.329,0.008-0.589,0.28-0.581,0.609c0,0,0,0,0,0
		v10.814c-0.008,0.329,0.252,0.602,0.581,0.609c0,0,0,0,0,0h3.898v7.866c-1.554,0.155-3.115,0.231-4.677,0.227
		c-4.479,0-5.84,0-5.84-14.67v-7.498c0-14.84,1.205-14.84,5.669-14.84c1.644,0,3.671,0,4.748,0.128v7.271
		c-0.008,0.329,0.252,0.602,0.581,0.609c0,0,0,0,0,0h12.303c0.329-0.008,0.589-0.28,0.581-0.609c0,0,0,0,0,0V72.72
		c0.003-0.279-0.184-0.524-0.454-0.595c-5.777-0.871-11.606-1.344-17.448-1.417c-17.405,0-21.161,5.443-21.161,30.629
		c0,13.777,1.176,20.793,4.181,25.016c3.331,4.677,8.944,5.4,16.852,5.4c5.877,0.062,11.75-0.351,17.561-1.233
		c0.275-0.066,0.469-0.312,0.468-0.595v-18.071h1.361c0.329-0.008,0.589-0.28,0.581-0.609c0,0,0,0,0,0v-10.8
		C121.727,100.115,121.467,99.842,121.138,99.834C121.138,99.834,121.138,99.834,121.138,99.834z"/>
</g>
</svg>
