<?xml version="1.0" encoding="iso-8859-1"?>
<!-- Generator: Adobe Illustrator 20.1.0, SVG Export Plug-In . SVG Version: 6.00 Build 0)  -->
<svg version="1.1" id="sp" xmlns="http://www.w3.org/2000/svg" xmlns:xlink="http://www.w3.org/1999/xlink" x="0px" y="0px"
	 viewBox="0 0 200 200" style="enable-background:new 0 0 200 200;" xml:space="preserve">
<g>
	<path style="fill:#EC2227;" d="M50.166,111.574v4.924c0,3.998,1.305,7.52,6.496,7.52c3.802,0,5.486-3.437,5.486-7.015
		c0-5.85-4.826-8.081-9.105-10.676c-5.009-2.876-9.288-5.612-12.346-9.105c-3.265-3.889-4.957-8.858-4.742-13.931
		c0-13.104,7.899-19.782,20.525-19.782c14.212,0,21.451,9.47,20.708,22.574H62.119c-0.182-4.083,0-9.666-5.387-10.031
		c-2.639-0.427-5.124,1.366-5.551,4.005c-0.034,0.212-0.054,0.425-0.06,0.639c-0.463,4.209,1.67,6.313,4.924,8.544
		c6.131,3.9,11.42,6.313,15.236,9.821c3.816,3.507,6.033,8.179,6.033,16.625c0,13.37-7.436,20.806-21.044,20.806
		C41.313,136.491,35,128.073,35,118.94v-7.436h15.166V111.574z"/>
	<path style="fill:#EC2227;" d="M84.903,134.877V65.221h19.417c6.313,0,15.432,0.561,19.964,5.766
		c3.802,4.209,4.546,9.47,4.546,15.138c0.014,7.478-1.754,15.966-9.189,19.403c-5.612,2.806-12.262,1.95-18.393,2.231v27.119H84.903
		z M101.247,95.216c3.058-0.098,6.594,0.281,9.189-1.768c1.497-2.02,2.223-4.507,2.048-7.015c0-2.694-0.281-6.776-3.058-8.081
		c-2.096-0.511-4.258-0.7-6.411-0.561h-1.768V95.216L101.247,95.216z"/>
	<path style="fill:#EC2227;" d="M160.62,107.45c-1.936-2.007-4.605-3.141-7.394-3.143c-1.784,0.035-3.53,0.517-5.079,1.403l0,0l0,0
		c-0.159,0.081-0.236,0.265-0.182,0.435l0.631,1.936c0.047,0.147,0.182,0.248,0.337,0.253h4.069c0.201,0.003,0.363,0.168,0.36,0.369
		c-0.001,0.115-0.057,0.222-0.15,0.29l-3.283,2.399c-0.125,0.094-0.176,0.258-0.126,0.407l1.249,3.872
		c0.061,0.192-0.044,0.397-0.236,0.459c-0.11,0.035-0.231,0.016-0.325-0.052l-3.297-2.385c-0.126-0.089-0.295-0.089-0.421,0
		l-3.367,2.357c-0.125,0.094-0.296,0.094-0.421,0c-0.125-0.094-0.176-0.258-0.126-0.407l1.249-3.872
		c0.05-0.149-0.001-0.312-0.126-0.407l-3.297-2.329c-0.163-0.119-0.198-0.347-0.08-0.51c0.068-0.093,0.175-0.148,0.29-0.15h3.998
		c0.154-0.004,0.289-0.106,0.337-0.253l0.631-1.936c0.054-0.17-0.023-0.354-0.182-0.435l0,0l0,0
		c-1.548-0.886-3.295-1.369-5.079-1.403c-2.789,0.002-5.457,1.136-7.394,3.143c-2.859,3.069-4.418,7.127-4.349,11.322
		c0,8.965,8.109,16.26,18.07,16.26c9.961,0,18.07-7.295,18.07-16.26C165.07,114.601,163.5,110.525,160.62,107.45z"/>
</g>
</svg>
