<?xml version="1.0" encoding="iso-8859-1"?>
<!-- Generator: Adobe Illustrator 20.1.0, SVG Export Plug-In . SVG Version: 6.00 Build 0)  -->
<svg version="1.1" id="vvd" xmlns="http://www.w3.org/2000/svg" xmlns:xlink="http://www.w3.org/1999/xlink" x="0px" y="0px"
	 viewBox="0 0 200 200" style="enable-background:new 0 0 200 200;" xml:space="preserve">
<g>
	<g id="svg_2" transform="matrix(1.6455034426448767,0,0,1.6455034426448767,-318.8705669427968,-825.4017794374911) ">
		<path id="svg_3" style="fill:#262B6A;" d="M234.097,528.161l0.602,5.415c0.15,1.053,0.301,2.407,0.451,3.761l0.301,2.708
			c0.301,2.708,0.602,5.415,0.602,6.619c0,0.451,0,1.053,0,1.053s0.15-0.602,0.301-1.053c0.15-0.602,0.602-1.655,0.903-2.858l0,0
			c0.903-2.858,2.256-6.619,3.159-9.477L234.097,528.161L234.097,528.161z M252.298,528.161l-1.354,3.46c0,0,0,0.15-0.15,0.301
			c0,0.15-0.15,0.301-0.301,0.602l-4.964,13.087c-1.504,3.761-3.008,7.822-4.663,11.884H228.23l3.61,3.61c1.655,0,3.46,0,4.663,0
			c4.663,0,8.123,0.903,10.53,2.557l0,0l4.964-12.786l-1.504-11.131h5.867l2.106-5.415L252.298,528.161L252.298,528.161
			L252.298,528.161L252.298,528.161z M260.572,539.743l0.602,5.415c0.15,1.053,0.301,2.407,0.451,3.761l0.301,2.708
			c0.301,2.708,0.602,5.415,0.602,6.619c0,0.451,0,1.053,0,1.053s0.15-0.602,0.301-1.053c0.15-0.602,0.602-1.655,0.903-2.858l0,0
			c0.903-2.858,2.256-6.619,3.159-9.477L260.572,539.743z M278.773,539.743l-1.354,3.46c0,0.15,0,0.15-0.15,0.15
			c0,0.15-0.15,0.301-0.301,0.602l-5.114,13.087c-1.504,3.761-3.008,7.822-4.663,11.884h-12.636l0,0l6.318,6.167h12.636
			l11.432-29.333L278.773,539.743L278.773,539.743z M248.989,565.165c2.708,2.708,3.61,6.769,3.46,10.831
			c-0.602,9.176-6.468,14.441-14.892,14.441h-11.583l6.318,6.167h11.583c8.424,0,14.441-5.265,14.892-14.441
			c0.15-3.911-0.602-7.521-2.858-10.229l0,0l0,0C255.457,571.483,249.892,566.068,248.989,565.165L248.989,565.165z
			 M238.008,568.475c-0.752,0-1.354,0-1.354,0l-1.053,14.742c0,0,0.602,0,1.354,0c2.256,0,3.911-0.902,4.814-3.309
			c0.903-2.407,1.504-7.371,0.15-9.627C240.565,568.324,238.76,568.475,238.008,568.475L238.008,568.475L238.008,568.475z"/>
		<path id="svg_4" style="fill:#F47621;" d="M224.169,528.161l1.655,11.884c1.053,7.672,2.407,17.449,2.407,17.449h12.636
			c1.655-4.061,3.159-8.273,4.663-11.884l4.964-13.087c0.15-0.301,0.15-0.451,0.301-0.602c0-0.15,0-0.15,0.15-0.301l1.354-3.46
			c-1.956,0-7.973,0-9.928,0l-1.053,3.009c-0.752,2.106-2.858,8.424-4.212,12.636l0,0c-0.451,1.203-0.752,2.256-0.903,2.858
			c-0.15,0.451-0.301,1.053-0.301,1.053s0-0.602,0-1.053c-0.15-1.203-0.301-3.911-0.602-6.619l-0.301-2.708
			c-0.15-1.354-0.301-2.708-0.451-3.761l-0.602-5.415C231.841,528.161,225.824,528.161,224.169,528.161L224.169,528.161z
			 M250.644,539.743l1.655,11.884c1.053,7.672,2.407,17.449,2.407,17.449h12.636c1.655-4.062,3.159-8.273,4.663-11.884l5.114-13.087
			c0.15-0.301,0.15-0.451,0.301-0.602c0-0.15,0-0.15,0.15-0.301l1.354-3.46h-9.928l-1.053,3.008
			c-0.752,2.106-2.858,8.424-4.212,12.636l0,0c-0.451,1.203-0.752,2.256-0.903,2.858c-0.15,0.451-0.301,1.053-0.301,1.053
			s0-0.602,0-1.053c-0.15-1.203-0.301-3.911-0.602-6.619l-0.301-2.708c-0.15-1.504-0.301-2.708-0.451-3.761l-0.602-5.415H250.644z
			 M236.654,561.104c-2.708,0-7.371,0-8.725,0l-0.301,4.814c-0.15,2.858-0.752,9.928-1.053,15.193l-0.752,9.477h11.583
			c8.424,0,14.441-5.265,14.892-14.441C252.75,568.174,249.139,561.104,236.654,561.104z M238.008,568.475
			c0.752,0,2.557-0.15,3.761,1.805c1.354,2.256,0.752,7.22-0.15,9.627c-0.903,2.407-2.557,3.309-4.814,3.309
			c-0.752,0-1.354,0-1.354,0l1.053-14.742C236.654,568.475,237.256,568.475,238.008,568.475L238.008,568.475L238.008,568.475z"/>
	</g>
</g>
</svg>
