<?xml version="1.0" encoding="utf-8"?>
<!-- Generator: Adobe Illustrator 19.2.1, SVG Export Plug-In . SVG Version: 6.00 Build 0)  -->
<!DOCTYPE svg PUBLIC "-//W3C//DTD SVG 1.1//EN" "http://www.w3.org/Graphics/SVG/1.1/DTD/svg11.dtd">
<svg version="1.1" id="Layer_1" xmlns="http://www.w3.org/2000/svg" xmlns:xlink="http://www.w3.org/1999/xlink" x="0px" y="0px"
     viewBox="0 0 173 36.1" style="enable-background:new 0 0 173 36.1;" xml:space="preserve">
<style type="text/css">
    .st0{fill:#FFFFFF;}
</style>
<path class="st0" d="M163.8,32.5c-0.1-0.4-0.1-0.6-0.1-0.9c0-0.3,0-0.6-0.1-1c0.7,0,1.3,0,1.9,0c0.4,0,0.8,0,1.3,0
    c1.8,0,2.8-1.4,2.2-3.3c-0.3,0.1-0.6,0.2-0.9,0.3c-3.5,1.4-6.8-0.8-6.9-4.5c0-1.3,0-2.5,0-3.8c0-3.8,3.4-6.1,7-4.6
    c0.3,0.1,0.6,0.3,1.1,0.5c0.1-0.2,0.3-0.5,0.4-0.6c0.6,0,1.1,0,1.7,0c0,0.3,0.1,0.6,0.1,0.9c0,4.5-0.1,8.9,0,13.4
    c0,1.9-1.5,3.6-3.1,3.8C166.9,32.6,165.4,32.5,163.8,32.5z M169.1,17.3c-0.5-0.6-1.3-0.7-2.1-0.8c-2.1-0.3-3.2,0.7-3.3,2.8
    c0,1.1,0,2.1,0,3.2c0,0.5,0.1,1,0.3,1.5c0.3,0.9,0.9,1.4,1.9,1.5c1.1,0.1,2.1-0.1,3-0.5C169.2,24.2,169.3,19.3,169.1,17.3z"/>
<path class="st0" d="M133.3,27.8c-0.7,0-1.3,0-1.9,0c-0.1-0.2-0.3-0.4-0.5-0.6c-0.5,0.2-1.1,0.4-1.6,0.6c-2.1,0.7-4.3,0.1-5.5-1.7
    c-0.6-0.8-0.9-1.7-0.9-2.7c0-1.5,0-3.1,0-4.6c0.1-3.2,2.9-5.3,6-4.5c0.4,0.1,0.8,0.3,1.2,0.4c0.2,0.1,0.5,0.1,0.8,0.1c0-1,0-2,0-2.9
    c0-0.9,0-1.8,0-2.8c0.8,0,1.6,0,2.5,0C133.4,15.3,133.3,21.5,133.3,27.8z M130.7,16.9c-0.9-0.2-1.7-0.4-2.5-0.5
    c-1.7-0.1-2.7,0.7-2.8,2.4c-0.1,1.4-0.1,2.9,0,4.3c0.1,1,0.5,2,1.6,2.3c1.3,0.4,2.6,0.1,3.9-0.5C130.8,22.3,130.9,19.7,130.7,16.9z"
    />
<path class="st0" d="M45,25.1c2.1,0.7,6.5,0.4,6.5,0.4l0.1,2.3c0,0-4.5,0.1-6.6-0.1c-1.6-0.2-2.6-1.3-3.1-2.8
    c-0.2-0.5-0.3-1.1-0.3-1.7c0-2.9,0-5.8,0-8.7c0-2.7,1.3-4.3,4-4.6c1.9-0.2,5.8,0,5.8,0l-0.1,2.4c0,0-2.9,0-4.4,0
    c-0.4,0-0.8,0-1.1,0.1c-0.7,0.2-1.3,0.6-1.4,1.4c-0.1,1.1-0.2,3.8-0.2,3.8l6.9-0.1v2.3l-6.9,0.2C44.2,20.1,43.8,23.6,45,25.1z"/>
<path class="st0" d="M87.9,23.6L92.4,10H95l-5.9,17.8h-2.8L80.5,10h2.7c0,0,1.5,4.6,2.3,6.9c0.8,2.2,2.2,6.8,2.2,6.8L87.9,23.6z"/>
<path class="st0" d="M70.6,17.3c0,3.5,0,7,0,10.5c-0.8,0-1.6,0-2.6,0c0-4.5-0.1-8.9,0-13.5c0.7,0,1.3,0,2.1,0
    c0.1,0.1,0.2,0.3,0.4,0.6c0.6-0.2,1.2-0.4,1.8-0.6c2.7-0.9,5.3,0.6,5.8,3.4c0.1,0.7,0.2,1.3,0.2,2c0,2.3,0,4.6,0,6.8
    c0,0.4,0,0.8-0.1,1.3c-0.8,0-1.6,0-2.5,0c0-0.4-0.1-0.7-0.1-1.1c0-2.4,0-4.8,0-7.2c0-2.6-1-3.4-3.6-2.8c-0.3,0.1-0.6,0.2-0.9,0.3
    C70.9,17,70.8,17.1,70.6,17.3z"/>
<path class="st0" d="M145.9,27.8c-0.6,0-1.2,0-1.8,0c-0.1-0.2-0.3-0.4-0.5-0.6c-0.2,0.1-0.3,0.1-0.5,0.2c-1.5,0.8-3,0.9-4.6,0.3
    c-2.7-1.1-3.2-5.1-0.9-6.8c0.9-0.7,2-0.8,3.1-0.9c0.8,0,1.7,0,2.5,0c0.2-1.1,0.3-2-0.3-2.8c-0.3-0.4-0.8-0.7-1.3-0.7
    c-0.9,0-1.8,0.1-2.7,0.2c-0.4,0-0.8,0.1-1.3,0.2c-0.2-0.7-0.4-1.3-0.6-2.1c2.2-0.8,4.4-1.3,6.6-0.3c1.9,0.8,2.4,2.5,2.4,4.4
    c0,2.7,0,5.4,0,8.1C146,27.3,145.9,27.4,145.9,27.8z M143.3,21.9c-1.2,0-2.3-0.2-3.5,0.2c-0.9,0.3-1.3,1.2-1.2,2.1
    c0.2,1,0.9,1.7,1.8,1.8c1,0.1,1.9-0.1,2.9-0.6C143.3,24.3,143.3,23.1,143.3,21.9z"/>
<path class="st0" d="M155.8,19.9c-0.1-0.8-0.1-1.6-0.3-2.2c-0.2-0.8-0.8-1.3-1.6-1.2c-0.9,0-1.8,0.2-2.8,0.3c-0.4,0-0.8,0.1-1.2,0.2
    c-0.2-0.7-0.4-1.3-0.6-2c0.9-0.6,1.9-0.7,2.9-0.8c0.7-0.1,1.5-0.1,2.2,0c2.2,0.3,3.7,1.8,3.8,4c0.1,3,0,6,0,9.1
    c0,0.2-0.1,0.3-0.1,0.5c-0.6,0-1.1,0-1.8,0c-0.1-0.2-0.3-0.4-0.5-0.6c-0.5,0.2-1,0.5-1.5,0.6c-1.7,0.6-3.8,0.1-4.9-1.1
    c-1.1-1.2-1.3-2.7-0.8-4.2c0.5-1.4,1.5-2.1,2.9-2.3c0.9-0.1,1.9-0.1,2.8-0.2C154.8,20,155.1,20,155.8,19.9z M155.6,21.9
    c-1.3,0-2.4-0.3-3.6,0.2c-0.7,0.3-1.1,1-1.1,1.9c0.1,0.9,0.6,1.7,1.3,1.8c1.2,0.2,2.3,0.1,3.3-0.6C155.6,24.2,155.6,23.1,155.6,21.9
    z"/>
<path class="st0" d="M119.7,27.8c-0.8,0-1.5,0-2.4,0c0-0.4,0-0.7,0-1.1c0-2.2,0-4.4,0-6.6c0-0.3,0-0.6,0-0.9
    c-0.1-2.4-1.1-3.2-3.5-2.7c-0.5,0.1-1.1,0.3-1.7,0.5c0,3.6,0,7.1,0,10.7c-0.9,0-1.6,0-2.4,0c0-4.5,0-8.9,0-13.4
    c0.3,0,0.6-0.1,0.9-0.1c0.3,0,0.6,0,0.9,0c0.2,0.2,0.4,0.4,0.7,0.6c0.6-0.2,1.3-0.4,1.9-0.6c2.6-0.8,4.9,0.5,5.6,3.2
    c0.1,0.5,0.2,1,0.2,1.4c0,2.7,0,5.4,0,8.1C119.8,27.2,119.7,27.4,119.7,27.8z"/>
<path class="st0" d="M34.5,2.5c0-0.5-0.4-1-1-1H2.5c-0.5,0-1,0.4-1,1v31.1c0,0.5,0.4,1,1,1h31.1c0.5,0,1-0.4,1-1V2.5z M16.5,27.5
    l-11,0v-3.2l4,0V13.5l-2.9,1.2L5.5,12l1.2-0.5c0,0,2.5-1,3.7-1.4c0.9-0.4,3-0.2,3-0.2l-0.1,14.6l3.2,0V27.5z M26.7,27.6h-3.6
    l-6.1-18h3.5l4.2,13.7l0.2-0.4l4.2-13.2h3.5L26.7,27.6z"/>
<path class="st0" d="M106.2,19.2c0-0.6-0.1-1.2-0.2-1.8c-0.3-1.3-1-2.3-2.3-2.8c-2.2-0.8-4.3-0.4-6.5,0.3c0.2,0.8,0.4,1.4,0.6,2.1
    c0.5-0.1,0.8-0.2,1.2-0.2c0.9-0.1,1.7-0.2,2.6-0.3c0.8,0,1.4,0.3,1.8,1.1c0.3,0.7,0.3,1.5,0.1,2.5c-0.5,0-1,0-1.4,0
    c-0.8,0-1.7,0-2.5,0.1c-1.9,0.3-3.1,1.6-3.2,3.3c-0.1,2.2,0.9,3.8,2.8,4.3c1.4,0.4,3.4,0.3,4.7-0.4c0.1-0.1,0.4,0.7,0.4,0.7l1.9,0
    c0,0,0.1-0.5,0.1-0.8C106.2,24.7,106.2,21.7,106.2,19.2z M103.5,25.3c-1,0.6-2,0.7-3.1,0.6c-0.8-0.1-1.5-1-1.6-1.9
    c-0.1-0.8,0.4-1.7,1.3-1.9c1.1-0.2,2.3-0.2,3.3-0.3C103.5,23.1,103.5,24.2,103.5,25.3z"/>
<path class="st0" d="M63.6,21.9c0.4,0,0.8-0.1,1.2-0.1c0-1.2,0.1-2.2,0-3.2c-0.2-2.3-2.2-4.3-4.5-4.5c-3.4-0.3-5.9,2-6,5.5
    c0,1,0,2.1,0,3.1c0,2.9,1.9,5.1,4.8,5.3c1.2,0.1,2.4-0.1,3.5-0.2c0.6-0.1,1.1-0.3,1.8-0.5c-0.2-0.8-0.4-1.5-0.5-2.2
    c-0.3,0-0.5,0.1-0.7,0.1c-1.2,0.1-2.3,0.4-3.5,0.4c-1.9,0-2.7-1.5-2.6-3.6C57.5,21.9,61.8,21.9,63.6,21.9z M58.1,16.8
    c0.9-0.7,2-0.7,2.9-0.1c1,0.6,1.3,1.9,1.2,2.9c-1.8,0-3.4,0-5.2,0C57,18.6,57.2,17.5,58.1,16.8z"/>
</svg>
