<?xml version="1.0" encoding="utf-8"?>
<!-- Generator: Adobe Illustrator 20.1.0, SVG Export Plug-In . SVG Version: 6.00 Build 0)  -->
<svg version="1.1"
	 id="svg2" inkscape:version="0.48.4 r9939" sodipodi:docname="universal-access.svg" xmlns:cc="http://creativecommons.org/ns#" xmlns:dc="http://purl.org/dc/elements/1.1/" xmlns:inkscape="http://www.inkscape.org/namespaces/inkscape" xmlns:rdf="http://www.w3.org/1999/02/22-rdf-syntax-ns#" xmlns:sodipodi="http://sodipodi.sourceforge.net/DTD/sodipodi-0.dtd" xmlns:svg="http://www.w3.org/2000/svg"
	 xmlns="http://www.w3.org/2000/svg" xmlns:xlink="http://www.w3.org/1999/xlink" x="0px" y="0px" viewBox="0 0 100 100"
	 style="enable-background:new 0 0 100 100;" xml:space="preserve">
<style type="text/css">
	.st0{fill:#01B4DC;}
</style>
<path id="path24717" inkscape:connector-curvature="0" class="st0" d="M50,0C22.4,0,0,22.4,0,50s22.4,50,50,50s50-22.4,50-50
	S77.6,0,50,0z M50,6.7c23.9,0,43.3,19.4,43.3,43.3S73.9,93.3,50,93.3S6.7,73.9,6.7,50S26.1,6.7,50,6.7z M76.9,45.1
	c1.4,1.4,1.4,3.3,0.3,4.7c-1.3,1.4-3.4,1.4-4.7,0.3c-4.1-3.7-8.5-7.2-12.7-11c0,0.2-1.1-0.7-1.6-0.7c-0.4,0-0.6,0.5-0.6,1.5
	c0.2,4.1-0.1,8.4,0.4,12.4c0.2,1.5,0.3,2.3,0.3,2.5L63,82.1c0.3,2.5-1.1,4.4-3.3,4.8c-2.2,0.6-4.5-1.3-4.8-3.3c0,0-3.9-22-3.9-22.4
	c-0.1-0.4-0.2-2.3-1-2.4c-1,0.4-0.9,2-1,2.4s-3.9,22.4-3.9,22.4c-0.6,2.3-2.6,3.7-4.8,3.3c-2.5-0.6-3.7-2.6-3.3-4.8l4.8-27.4
	c0.7-5.1,0.5-9.6,0.5-14.7c0-1-0.2-1.5-0.6-1.5c-0.4,0-0.9,0.2-1.5,0.8L27.5,50.1c-1.5,1.1-3.6,0.9-4.7-0.3
	c-1.1-1.6-1.1-3.4,0.3-4.7l16.6-14.7c0.8-0.5,1.5-0.8,2.2-1c0.7-0.2,1.5-0.3,2.5-0.3h11.1c1,0,1.8,0.1,2.5,0.3
	c0.7,0.2,1.4,0.6,2.2,1.1C65.5,35.1,71.2,40.1,76.9,45.1L76.9,45.1z M57.3,19.9c0,4-3.3,7.3-7.3,7.3c-4,0-7.3-3.3-7.3-7.3
	c0-4,3.3-7.3,7.3-7.3C54.1,12.6,57.3,15.8,57.3,19.9z"/>
</svg>
