<?xml version="1.0" encoding="utf-8"?>
<!-- Generator: Adobe Illustrator 19.2.1, SVG Export Plug-In . SVG Version: 6.00 Build 0)  -->
<!DOCTYPE svg PUBLIC "-//W3C//DTD SVG 1.1//EN" "http://www.w3.org/Graphics/SVG/1.1/DTD/svg11.dtd">
<svg version="1.1" id="Layer_1" xmlns="http://www.w3.org/2000/svg" xmlns:xlink="http://www.w3.org/1999/xlink" x="0px" y="0px"
	 viewBox="0 0 204.9 35" style="enable-background:new 0 0 204.9 35;" xml:space="preserve">
<style type="text/css">
	.st0{fill:#01B4DC;}
</style>
<path class="st0" d="M10.2,25.9c-0.5,0-2.1-0.8-2.6-0.4c0,0,0.1-0.2,0.1-0.2c-0.3,0-0.6-0.1-0.8-0.2c0,0-0.3-0.3-0.1-0.3
	c-0.4-0.1-0.9-0.3-1.3-0.6C5,23.9,5,23.7,4.8,24.1c-0.1,0.1-0.3,1-0.1,1c-0.1,0.1-0.3,0.6-0.3,0.6c-0.3,0.2-0.8-0.3-1.1-0.2
	C2.8,25.6,2.8,26,2.2,26c0-0.2,0.1-0.3,0.3-0.5c-0.4-0.4-0.8,0.2-1.1,0.5c0-0.5-0.5-0.4-0.8-0.6c-0.5-0.4-0.3-0.4-0.3-1
	c0-0.9,0-1.9,0.1-2.8c0-0.9-0.1-1.8-0.1-2.6c0-0.4,0.2-0.9-0.2-1.1c0.2,0,0-0.7,0.2-0.8c0.5-0.3,0.5,0.4,0.5,0.6
	c0.9,0,1.7-0.1,2.6-0.2c0.3,0,1.7-0.4,1.7,0c0,0.3-0.4,0.2-0.5,0.3c0.7,0,0.6,2.1,1.5,2.5c0.3,0.1,0.4-0.4,0.8,0
	c0.1,0.1-0.2,0.4-0.2,0.3c0.4,0.7,1.4,0.6,2.1,0.6c1.5,0,2.4-0.8,2.3-2.3c-0.1-1.3-0.7-1.5-1.6-2.1C9,16.5,8.6,16,8,15.8
	c-0.6-0.2-0.2,0-0.6,0c-0.1,0-0.2-0.2-0.2-0.3c0-0.1,0-0.3,0.1-0.4c-0.1-0.1-0.2-0.1-0.2-0.2c-0.2-0.3-0.7-0.4-0.9-0.6
	c-1-0.9-2.2-1.9-3.2-2.9c-1.3-1.2-2.7-3-2.8-4.8C0.1,6,0,4.7,0.4,3.9c0.7-1.4,1.9-2.5,3.3-3C4.4,0.7,5.2,0.4,6,0.2
	c0.5-0.1,0.5-0.1,1.1,0C8.9,0.5,10,1,11.3,2.3c0-0.1,0.3-0.7,0.3-0.8c0.2-0.4,0-0.3,0.3-0.5c0.2-0.1,0.7,0,0.9,0
	c0.8,0,1.7,0,2.4,0.1c1.1,0.2,0.7,1,0.7,1.9C15.9,4,16,4.9,16,5.8c0,0.4-0.1,0.8-0.1,1.2c0,0.3,0.2,0.8,0.1,1.1
	c-0.2,0.8-1.6,0.3-2.3,0.3c-0.4,0-0.8,0-1.2,0c-0.2,0-0.8,0.2-0.9,0.2c-0.7-0.2-0.6-1.6-0.9-2.3c-0.3-0.7-0.8-1.2-1.4-1.5
	C8.4,4.3,7,4.5,6.5,5.6c-0.8,1.6,1.1,3,2.3,3.8c1.6,1.2,3.2,2.3,4.8,3.5c1.7,1.2,3.1,2.7,3.3,5c0.1,1.4,0.1,2.6,0,4l0,0
	c-0.2,0-0.3,0.5-0.5,0.8c-0.3,0.5-0.8,1.2-1.3,1.6c-0.3,0.3-0.6,0.3-0.9,0.5c-0.1,0-0.3,0.1-0.4,0.1c-0.2,0.3-0.4,0.4-0.8,0.2
	C12.1,25.2,11.1,25.9,10.2,25.9z M7.4,0.8c-1.2,1-2.5,1.9-3.7,2.9C2.9,4.4,1.4,5.1,0.8,6c0.4,0.2,1.5-0.9,1.9-1.2
	C3.2,4.5,3.6,4.1,4,3.9c0.5-0.4,1.3-0.9,1.9-1.5c0.3-0.2,1.7-1.1,1.7-1.5C7.6,1,7.4,0.8,7.4,0.8z M5.1,2C4.6,2,4,2.8,3.6,3.1
	C2.6,3.8,1.7,4.5,0.8,5.2c0.5,0.5,5-3.7,5.6-4.3C5.9,1.1,5.5,1.6,5.1,2z M4.6,19.3c-0.8,1-1.9,1.6-2.9,2.4c-0.3,0.2-1.1,0.8-1.1,1.2
	c0.8-0.3,1.5-1.4,2.2-1.9c0.6-0.5,1.6-1.1,1.9-1.8C4.6,19.2,4.6,19.2,4.6,19.3z M4.3,20.5c-0.2,0.5-1,0.9-1.4,1.2
	C2.4,22.2,2,22.6,1.5,23c-0.3,0.3-0.4,0.4-0.5,0.7c-0.1,0.2,0,0.5,0.2,0.5c-0.7-0.4,0.5-0.9,1-1.3c1-0.9,1.8-1.9,3-2.7
	C4.8,20.1,4.6,20.2,4.3,20.5C4.2,20.7,4.4,20.4,4.3,20.5z M5.5,20.6c-1.2,1-2.4,2-3.6,3c-0.2,0.1-2,1-0.9,1.4
	c-0.1-0.8,1.2-1.6,1.8-2C3.4,22.5,5,20.6,5.5,20.6C4.8,21.2,5.6,20.6,5.5,20.6z M1,7c1.3-0.4,2-1.5,3-2.2c1.5-1,3.4-2.2,4.5-3.7
	C7.1,2,5.9,3.1,4.5,4c-0.7,0.5-4,2.3-3.6,3.3C0.9,7.1,0.9,7.2,1,7z M0.9,21.1c1.2-1.2,2.5-2,3.6-3.3c-0.9,0-1.9,1.4-2.5,2
	c-0.2,0.2-0.9,0.6-1,0.8c-0.2,0.2-0.1,0.6-0.1,1c0.3,0,0.5-0.3,0.7-0.5C1.4,21.1,0.9,21.5,0.9,21.1C1.5,20.5,0.9,21.3,0.9,21.1z
	 M2.3,18.5c-0.1,0.1-1.9,1.7-1.3,1.7c0.2-0.6,1.1-1.1,1.5-1.5C2.7,18.4,3,18,3.4,17.8C2.9,17.8,2.7,18.1,2.3,18.5z M8.9,1.7
	C7.7,2.9,6,4,4.6,5C3.8,5.6,3,6.3,2.1,6.9C2,7,0.5,8,1,8c0.1,0,0-0.1,0-0.2c0.4,0,0.2,0.2,0.8-0.1c0.3-0.2,0.5-0.5,0.9-0.4
	c0-0.1-0.1-0.1-0.2-0.1c1.2-0.8,2.3-1.6,3.3-2.5c1.1-1.1,2.7-2,3.6-3.3c-0.1,0-0.2,0-0.3-0.1C9.1,1.5,8.9,1.5,8.9,1.7
	C8.7,1.9,8.9,1.6,8.9,1.7z M1,19c0.4-0.4,0.8-0.7,1.2-1.1C1.6,17.9,1.2,18.5,1,19C1.2,18.8,1.1,18.8,1,19z M1.1,4.4
	c0.1,0,0.5-0.5,0.4-0.5C1.3,4,1.1,4.2,1.1,4.4z M1.4,8.7c1-0.5,1.8-1.1,2.7-1.7c0.2-0.2,2.2-1.3,1.5-1.7C4.9,6.8,2.4,7.5,1.3,8.6
	C1.5,8.6,1.5,8.6,1.4,8.7z M2.6,3.1C2.3,3.3,1.8,3.5,1.8,3.9C2.1,3.4,2.9,3,3.3,2.7C3.8,2.3,4.4,2,4.8,1.5C4.1,1.8,3,2.5,2.6,3.1
	C2.4,3.2,2.8,2.8,2.6,3.1z M1.8,9.1c0,0.8,1.6-0.7,1.9-0.8c0.6-0.4,1.6-1,1.9-1.8C4.3,7.4,3.1,8.2,1.8,9.1C1.8,9.2,2.4,8.7,1.8,9.1z
	 M1.9,21c0.2-0.1,2.8-2.4,2.6-2.5C3.7,19.3,2.6,20,1.9,21C2.2,20.8,2.2,20.6,1.9,21z M4.9,23.1c0.6-0.6,1.4-1.1,2-1.7
	c-0.3,0-0.5-0.4-0.8-0.4c-0.4,0-1.2,1-1.5,1.2c-1,0.8-1.9,1.5-2.7,2.4c0.3,0,1.6-0.9,1.6-1.3c0,0,0.1,0.1,0.1,0.1
	c0.6-0.6,1.3-1.6,2-1.9C7.3,21,5,22.8,4.9,23.1C5.2,22.8,5,22.8,4.9,23.1z M2.9,2.2c-0.2,0-0.7,0.4-0.7,0.6c0.4-0.2,0.9-0.6,1.2-0.9
	C3.2,1.9,2.9,1.9,2.9,2.2C2.8,2.2,2.9,2.1,2.9,2.2z M3,9.3c-0.3,0-0.6,0.5-0.6,0.8c0.5-0.4,1-1,1.6-1.2c-0.5,0,2-1.5,1.8-1.8
	C5.5,6.9,3.3,9,3,9.3C2.9,9.3,3.4,8.9,3,9.3z M2.3,25.1c0.3,0,0.3-0.2,0.5,0c0.3-0.5,0.8-0.7,1.1-1.2C3.5,24.3,2.8,24.7,2.3,25.1
	C2.4,25.1,2.6,24.9,2.3,25.1z M4.6,8.8c-0.5,0.3-1.7,1-1.7,1.7c0.6-0.2,1.2-0.9,1.6-1.3c0.6-0.5,1.2-0.9,1.7-1.4
	C5.7,8,5.1,8.5,4.6,8.8z M4.2,10.1c-0.3,0-0.8,0.6-0.8,0.8c0.7,0,2.7-1.8,2.9-2.4C5.6,9,4.8,9.5,4.2,10.1C4.1,10.1,4.5,9.8,4.2,10.1
	z M3.4,25.1c0.3,0.1,0.5,0.1,0.8,0c-0.6,0,0.3-0.8-0.1-0.8C4.1,24.6,3.6,24.9,3.4,25.1C3.7,25.2,3.5,25,3.4,25.1z M3.9,11.5
	c0.2,0.2,1.3-1,1.5-1.1C5.8,10,6.6,9.6,6.9,9.1C7,8.9,7.1,9,7,8.7C7,8.5,6.6,8.3,6.4,8.5c1.2,0,0,0.9-0.4,1.2
	C5.3,10.3,4.5,10.8,3.9,11.5C4,11.6,4.3,11,3.9,11.5z M4.2,11.8c0.2,0,0.2,0.3,0.4,0.4c0.4,0.2,0.2,0,0.5-0.1
	c0.4-0.2,0.8-0.7,1.1-1.1c0.3-0.3,1.9-1.4,1.5-1.8C6.7,10.2,5.4,11,4.2,11.8C4.3,11.8,4.8,11.4,4.2,11.8z M8.3,9.8
	c-0.9,1.1-2.3,1.8-3.1,3c0.6,0,1.3-1.2,1.8-1.6c0.3-0.3,0.8-0.7,1-0.9C8.3,10.2,8.9,10.1,8.3,9.8z M5.8,23c0,0.2-0.2,0.5-0.3,0.7
	c0.8,0,1.9-1.2,2.5-1.8C7,21.6,6.5,22.6,5.8,23C5.8,23.1,6,22.9,5.8,23z M9,10.3c-0.3,0.3-0.6,0.3-0.9,0.6c-0.4,0.2-0.5,0.5-0.8,0.8
	c-0.4,0.4-1.3,1-1.5,1.6c0.6,0,1.3-1,1.7-1.3C7.9,11.5,8.9,10.8,9,10.3z M9.2,11.3c0-0.2-1.1,0.7-1.2,0.8c-0.6,0.5-1.1,1-1.7,1.5
	C7.4,13.2,8.2,12,9.2,11.3C9.2,11.2,8.9,11.5,9.2,11.3z M14.4,18.4c-0.4,0-1.3,0.9-1.6,1.2c-0.6,0.6-1.2,1-1.8,1.5
	c-0.4,0.3-0.8,0.8-1.3,1.2c-0.9,0.6-2.1,1.4-2.9,2.2c0.4,0.4,1-0.2,1.2-0.4c-0.1,0-0.1,0-0.2,0c0.7-0.5,1.5-1.1,2.1-1.6
	c0.1-0.1,0.3,0,0.4-0.1c0.1-0.1,0-0.3,0.1-0.4c0.3-0.3,0.8-0.6,1.1-0.8c0.7-0.5,1.5-1.2,2.3-1.8c0.5-0.4,2.1-1.4,2.1-2.1
	c-0.1,0.2-0.3,0.4-0.4,0.5c-0.1,0.2-0.3,0.3-0.5,0.1C14.8,18.2,14.6,18.1,14.4,18.4C14.3,18.4,14.6,18.1,14.4,18.4z M9.8,2
	C9.2,2.8,8.3,3.4,7.5,4c1.2,0,1.8-1.4,2.8-1.9C10.2,2,10,1.8,9.8,2C9.5,2.4,9.9,1.9,9.8,2z M7.6,14c0.3,0,0.7-0.5,0.9-0.7
	c0.2-0.2,0.4-0.2,0.6-0.3c0.1,0,1.7-1.3,1.7-1.4C10.6,11.4,7.9,13.6,7.6,14C7.8,14,8,13.5,7.6,14z M7.7,14.8c0.7-0.3,1.3-1,1.8-1.5
	c0.3-0.3,1.3-0.9,1.3-1.3C9.8,13,8.7,13.8,7.7,14.8C8.1,14.6,8.2,14.3,7.7,14.8z M13.1,21.1c-0.5,0.7-2.4,2-3.3,2.2
	c0.5,0.5-1.4,1.3-1.7,1.5c0.3,0.2,0.8-0.1,1-0.3c0.1,0,0.2,0,0.2,0c0.2-0.1,0.3-0.3,0.5-0.5c0.6-0.5,1.8-0.8,2.2-1.6
	c0,0.1,0,0.2,0.1,0.2c0-0.6,1.6-1.7,2.1-2l0,0c0,0,0.2,0,0-0.1c0.3-0.2,1-0.4,1-0.9C14.7,20.2,13.9,20.7,13.1,21.1z M9.4,15.9
	c0.2-0.2,1.4-1.2,1.4-1c0.5-0.6,1.4-1.5,2.2-1.9c0-0.9-1.6,0.6-1.7,0.7c-0.6,0.6-1.5,1.8-2.4,1.8C9,15.2,9.4,15,9.4,14.7
	c0,0,0.2,0.2,0.2,0.2c0.5-1,1.5-1.7,2.3-2.5c-0.5,0-1,0.8-1.4,1.1c-0.5,0.4-0.9,0.7-1.4,1.1c-0.2,0.1-0.7,0.4-0.8,0.6
	C8.1,15.6,9,15.7,9.4,15.9C9.6,15.7,9.2,15.8,9.4,15.9z M10.5,2.6c-0.4,0.2-1.6,0.8-1.6,1.3C8.9,4.2,11.8,2.6,10.5,2.6
	C10.3,2.7,10.6,2.6,10.5,2.6z M9.7,25c0.3,0,0.5-0.1,0.5-0.4c0.2-0.1,0.5-0.3,0.7-0.3c-0.1-0.3,0.3-0.3,0.3-0.2c0,0,0-0.1-0.1-0.2
	c0.7-0.3,1.4-0.9,2-1.3c0.1-0.1,1.4-1.4,1.4-1.2c0.2-0.8,1.5-1.1,1.9-1.9c-1.7,1.4-3.5,2.7-5.3,4c-0.4,0.3-0.7,0.5-1.1,0.8
	C9.9,24.4,9,25,9,25C8.9,25.3,9.6,25.1,9.7,25z M15.2,18.6c0,0.7-2,1.7-2.6,2c-1.1,0.7-2.3,1.6-3.2,2.6c0.6-0.4,1.8-1.6,2.5-1.6
	c0,0-0.2-0.1-0.2-0.2c1-0.7,2-1.4,3-2.2c0.3-0.2,1.4-0.8,1.5-1.1c0-0.1-0.1-0.4-0.1-0.5C15.8,17.9,15.5,18.4,15.2,18.6
	C15.2,18.7,15.4,18.5,15.2,18.6z M13.2,1.7c0,0.3-0.4,0.4-0.6,0.6c-0.2,0.2-0.4,0.3-0.6,0.5c-0.1,0.1,0,0.4-0.1,0.5
	c-0.2,0.1-0.4,0-0.5,0.1c-0.4,0.3-1.2,0.5-1.7,0.8c0.2,0,0.5,0.3,0.5,0.5c0.8-0.6,1.5-1.1,2.2-1.7c0.5-0.4,1.5-0.7,1.7-1.4
	C14,1.8,13.3,1.7,13.2,1.7C13.2,1.8,13.3,1.7,13.2,1.7z M12.4,14c-0.5,0.5-2.6,1.6-2.6,2.3c1-0.6,1.8-1.6,2.7-2.3
	c0.1-0.1,0.9-0.7,0.9-0.8C12.8,13.2,12.8,13.8,12.4,14C12.1,14.3,12.6,13.9,12.4,14z M13.8,22.6c-0.3,0.5-1.2,0.8-1.7,1.2
	c-0.5,0.4-1.3,1-1.9,1.4c0.3,0,2.2-1.1,2.2-1.6C12.6,23.8,13.5,22.7,13.8,22.6c0.2-0.2,0.5-0.3,0.8-0.6c0.6-0.5,1.1-0.9,1.6-1.4
	C15.3,21.2,14.8,22.2,13.8,22.6z M13.2,3.9c-0.6,0.3-1.1,0.9-1.7,1.2c-0.3,0.1-1.1,0.1-0.6-0.4c-0.3,0.1-0.4,0.2-0.3,0.4
	c0.1,0.5,0.5,0.4,0.7,0.3c0.4-0.1,0.8-0.6,1.2-0.8c0.7-0.5,1.4-1,2-1.7C14,3.4,13.6,3.5,13.2,3.9C13,4,13.4,3.7,13.2,3.9z M12.1,15
	c-0.4,0.6-1.1,1-1.6,1.5c1.1-0.9,2.3-1.8,3.5-2.6C13.4,14.3,12.8,14.8,12.1,15C11.9,15.3,12.4,14.9,12.1,15z M10.8,17
	c0.5,0,2.7-1.6,2.7-2.1C12.6,15.6,11.8,16.4,10.8,17C11,17,11.3,16.7,10.8,17z M13.1,3.1c-0.7,0.5-1.4,1-2,1.6
	c0.3-0.3,1-0.5,1.3-0.7c0.1-0.1,0.4-0.3,0.6-0.4c0.8-0.5,2-1.1,2.3-2C14.6,1.9,13.6,2.6,13.1,3.1C12.7,3.4,13.4,2.8,13.1,3.1z
	 M13.2,16.1c-0.5,0.2-1.9,1.3-1.9,1.8c0.3,0,0.6-0.4,1-0.7c0.7-0.6,2.1-1.4,2.5-2.2C14.3,15.5,13.6,15.5,13.2,16.1
	C13,16.2,13.4,15.8,13.2,16.1z M11.3,20.3c0.2,0,0.3-0.2,0.5-0.2c-0.1,0-0.1,0-0.1-0.1c0.2,0,0.7-0.3,0.7-0.6
	C12,19.6,11.5,19.9,11.3,20.3C11.4,20.3,11.4,20.1,11.3,20.3z M15.5,16.2c-1,0.8-1.9,1.7-3,2.3c-0.2,0.1-1,0.6-1,1
	c1.4-1.2,2.8-2.2,4.1-3.5c0,0-0.1,0-0.1,0C15.5,16.1,15.5,16.1,15.5,16.2C15.1,16.5,15.5,16.1,15.5,16.2z M12.2,17.7
	c-0.3,0.3-0.7,0.7-0.5,1.1c0-0.5,0.7-0.5,0.9-0.7c0.1-0.1,0.3-0.4,0.4-0.5c0.3-0.3,2.5-1.9,2.4-2.1C15.4,15.6,12.6,17.4,12.2,17.7
	C12.1,17.8,12.7,17.3,12.2,17.7z M12,6.8c-0.2,0.1-0.3,0.3-0.3,0.5c0.6,0,1.2-0.8,1.7-1.1c0.5-0.4,1.4-0.7,1.5-1.4
	C14.1,5.7,12.7,5.9,12,6.8z M11.6,25.1c1,0,2.2-1.7,3-2.5C13.4,23,12.5,24.3,11.6,25.1C11.9,25.1,12.1,24.7,11.6,25.1z M11.8,5.5
	c0.4,0,2.2-1,2.2-1.5C13.4,4.6,12.5,5.1,11.8,5.5C11.9,5.5,12.2,5.3,11.8,5.5z M12.1,2c0.1-0.1,0.2-0.2,0.3-0.4c0,0-0.1-0.1-0.2-0.1
	C12.2,1.6,12,2,12.1,2C12.2,1.9,12,2,12.1,2z M14.9,6.3c-0.6,0.6-1.4,0.9-2,1.5c0.8,0,0.8,0,1.3-0.6C14.5,6.9,15.1,6.6,14.9,6.3z
	 M14.5,7.8c0,0,1.3,0,0.8-0.4C15.3,7.3,14.6,7.7,14.5,7.8z"/>
<path class="st0" d="M29.1,24.3c0,0.3,0.2,0.3,0.2,0.6c0,0.2-0.4,0.3,0,0.3c-0.5,0-1.2-0.1-1.6,0c-0.4,0.1-0.8,0.5-1.2,0.6
	c-1.1,0.3-2.2,0.2-3.2-0.3c-1.6-0.9-2.4-2-2.4-3.9c-0.1-2.4,0-4.8-0.2-7.2c0-0.5-0.1-1.1-0.1-1.6c0-0.2,0-0.7-0.1-0.8
	c-0.2-0.2-0.1,0-0.3-0.2c-0.3-0.2-1,0.2-1.4,0.1c-0.5-0.1-0.3-0.2-0.3-0.5c0,0,0.3-0.1,0.3-0.2c0-0.1-0.1-0.2-0.1-0.3
	c0-0.5-0.3-0.9-0.4-1.3c0-0.3-0.2-1.8,0-2C18.7,7,18.8,7.9,19.1,8c0.1,0,1.3-0.1,1.4-0.2c0.6-0.6-0.4-2.1,0.2-2.8
	c0.1-0.1,0.7-0.3,0.8-0.4c0.9-0.6,1.6-1.2,2.3-2c0.5-0.5,1.3-1.4,2-1.7c0.4-0.2,0.5-0.2,0.7,0.2c0,0,0.2,0.9,0.2,0.8
	c0,0.3-0.2,0.4-0.2,0.7c-0.1,0.6,0.1,1.1,0.1,1.7c0,0.5-0.2,0.9-0.2,1.4c0,0.4,0.3,1.2,0.1,1.5c1.1-0.4,2.4-0.2,2.6,1
	c0.2,1-0.1,2.3-0.1,3.3c-0.5-0.1-0.9,0-1.4,0c-0.4,0.1-1.3,0.1-1.6,0.3c-0.5,0.3,0,1.4-0.2,2c0.4-0.2,1-0.2,0.6,0.3
	c-0.1,0.2-0.5,0.2-0.6,0.4c-0.1,0.2,0,1.2,0,1.4c0,1.3-0.2,3.4,0.9,4.3c0.4,0.3,1.2,0.7,1.8,0.5c0.3-0.1,0.2-0.5,0.7-0.3
	C29.9,20.9,29.3,24.3,29.1,24.3C29.1,24.4,29.2,24.3,29.1,24.3z M19.1,8.9c0-0.1,0-0.4,0.2-0.4c-0.1,0-0.3,0-0.4,0
	C18.9,8.6,19.1,8.9,19.1,8.9z M19.2,9.5c0,0.1,0,0.3,0,0.4c0.6-0.2,1.3-0.7,1.4-1.2C20.9,9,21,8.5,21.1,8.4
	c-0.2,0.1-0.4,0.2-0.5,0.3c0-0.1,0.8-0.4-0.3,0.1C19.9,9,19.6,9.3,19.2,9.5z M22.5,8.6L22.5,8.6C22.4,8.6,22.4,8.6,22.5,8.6
	C22.5,8.5,22.5,8.5,22.5,8.6L22.5,8.6c0.1,0,0.7-0.4,0.8-0.5c-0.1,0-0.1,0,0-0.1c0.1,0,0.4-0.4,0.6-0.3c0-0.5,2.4-1,2-1.8
	c-1.2,0-2.6,1.6-3.6,2.2c-0.9,0.5-2.6,1.3-3,2.4c0.2-0.1,1.8-0.7,1.8-0.8c0,0.1-0.1-0.2-0.1-0.2c0.1,0,0.1,0,0.2,0
	c0.1-0.1,0-0.1-0.1-0.1C21.7,9.2,22,8.8,22.5,8.6z M20.4,10.9c0.2,0,0.2-0.2,0.4-0.3c0.3-0.1,0.5-0.1,0.7-0.2
	c0.3-0.1,0.8-0.4,0.7-0.6c0.4,0,2.2-1.1,2.2-1.5c0.3-0.1,0.9-0.6,0.9-0.6c0.3,0,0.9-0.4,0.9-0.7C24,8.1,22,9.8,19.9,11.1
	c0.3,0,0.8,0.1,0.8-0.2C20.6,10.9,20.3,10.9,20.4,10.9z M21.6,6.4c-0.2,0.2-0.9,0.4-0.3,0.6c-0.2,0,0.3-0.1,0.3-0.1
	c0.3-0.7,1.5-1.4,2-1.8c0.2-0.2,0.5-0.4,0.7-0.6c0.4-0.3,1.8-0.9,1.5-1.5C25.9,3.1,22,6,21.6,6.4z M23.4,10.4c0.2,0,0.4-0.4,0.6-0.2
	c-0.4,0-1.2,0.8-1.5,1c-0.5,0.3-1.3,0.7-1.2,1.3c0.8-0.4,1.7-0.9,2.4-1.5c-0.1,0-0.1,0-0.1-0.1c0.4,0,0.2-0.2,0.6-0.4
	c0,0-0.2,0.2-0.2,0.2c0-0.1,1.3-1,1.4-0.9c0,0-0.1-0.1-0.1-0.2C25.4,9.8,27,8.3,27,8.3c-0.1,0-0.3,0.2-0.3,0c0.3,0,0.7-0.1,0.9-0.3
	c-0.9,0-3.3,2.4-3.7,2.1c0,0,0,0.2,0,0.2C23.8,10.3,23.4,10.2,23.4,10.4C23.5,10.4,23.4,10.3,23.4,10.4z M27.7,9.3
	c-1.1,0.8-2.3,1.6-3.4,2.4c-0.5,0.4-1.1,0.8-1.7,1.1c0,0-1.2,0.4-0.8,0c-0.6,0-0.8,0.9-0.4,1.3c0.6-0.3,1.2-1.3,1.9-1.3
	c-0.3,0,0.8-0.7,0.8-0.7c0.3-0.2,0.8-0.6,1.1-0.8c1.1-0.7,2.1-1.4,3.1-2.4C28.1,9,28,9.3,27.7,9.3C27.3,9.6,27.8,9.3,27.7,9.3z
	 M24.2,18.7c-0.6,0.5-2.9,2-2.9,2.8c0.6,0,0.7-0.3,1.2-0.8c0.1-0.1,1.2-0.9,1.2-0.8c0.3-0.5,1-1.3,1.6-1.3c0-0.1-0.1-0.5-0.2-0.5
	C24.9,18.4,24.5,18.5,24.2,18.7C23.8,19,24.4,18.6,24.2,18.7z M23.3,13.5c-0.6,0.4-1.1,0.7-1.6,1.2c0,0.1-0.2,0.6-0.4,0.4
	c0.2,0.2,2.3-1.5,2.6-1.7c0.4-0.3,1.4-0.7,1.1-1.3C24.4,12.5,23.9,13.1,23.3,13.5z M24.2,5.9c-0.8,0.8-2,1.2-2.8,2
	c0,0,0.1,0.3,0.1,0.4c0.4-0.5,1-0.9,1.4-1.2c0.2-0.2,0.7-0.5,0.9-0.6c0.5-0.3,1.7-0.8,1.7-1.5C25,5.3,24.7,5.6,24.2,5.9
	C23.8,6.3,24.5,5.7,24.2,5.9z M22,20.3c0.2-0.4,0.9-1.1,1.3-1.5c0.6-0.5,1.8-0.9,1.8-1.9c-0.9,0.6-4.1,2.1-3.4,3.6
	C21.7,20.4,21.8,20.3,22,20.3z M23.3,14.3c-0.3,0-1.7,1.4-1.7,2c0.3-0.6,1.5-1.2,2-1.6c0.3-0.2,1.5-1.1,1.5-1.4
	C24.6,13.3,23.7,14,23.3,14.3C23.4,14.3,23.6,14.1,23.3,14.3z M24.3,20.1c-0.6,0.4-2.7,1.8-2.7,2.4c0.6-0.2,1.4-1.1,1.8-1.5
	c0.6-0.6,1.3-1.2,1.9-1.8c0,0,0,0.1,0,0.1C24.9,19.5,24.6,19.8,24.3,20.1C24,20.3,24.5,19.9,24.3,20.1z M23.3,16.2
	c-0.6,0.3-1.9,1-1.6,1.8c0.6-0.3,0.8-0.6,1.2-1c0.6-0.6,1.4-1.2,2.2-1.7c-0.2,0,0.1-0.1,0.1-0.2C25.2,15,23.5,16,23.3,16.2
	C23.1,16.3,23.5,16,23.3,16.2z M22.1,18.6c0.1,0,0.5-0.3,0.4-0.4c0.1,0,0.1,0,0.1,0.1c0.2-0.5,1-0.9,1.4-1.3c0,0,1.4-1,0.8-1.1
	c-0.3,0-1.7,1.3-2,1.5c-0.6,0.4-1.3,0.8-1.3,1.6C21.6,18.9,22,18.6,22.1,18.6z M22.3,16c0,0.3-0.7,0.3-0.7,0.8
	c0.4,0,3.6-2.7,3.6-2.9C25.1,13.7,22.6,15.8,22.3,16C22.3,16.1,22.8,15.7,22.3,16z M24.8,8.4c-0.9,0.9-2.1,1.4-3,2.3
	c0.3,0,0.7-0.2,0.7-0.2l0,0c0.3-0.1,0.6-0.2,0.8-0.3C24,9.8,25.6,9,25.9,8.3c-0.3,0-0.5,0.3-0.7,0.5C25.2,8.5,25.1,8.4,24.8,8.4
	C24.5,8.7,25,8.4,24.8,8.4z M24,20.9c-0.5,0.6-2.2,1.2-2.2,2.1c0.2-0.2,0.4-0.5,0.7-0.4c0.2-0.2,0.5-0.4,0.8-0.6
	c0.5-0.4,0.9-0.7,1.4-1c-0.1,0,1.3-1.1,0.9-1.1C25.2,20.3,24.5,20.5,24,20.9z M25.8,4c-0.7,0.6-1.6,1.1-2.3,1.7
	c-0.1,0.1-1.5,1-1.5,1.2c0,0.3,0.4-0.2,0.4,0c0-0.5,1.7-1.4,2.1-1.6C24.7,5.2,26.1,4,25.8,4C25.2,4.5,25.9,4,25.8,4z M25.8,20.3
	c-1.1,1-2.6,1.7-3.4,3c0.4-0.2,0.7-0.5,1-0.8c0.3-0.2,0.6-0.5,0.8-0.7c0.4-0.4,1.9-1,1.9-1.5C25.9,20.4,25.9,20.3,25.8,20.3z
	 M26.3,21c-0.4,0.3-3.7,3.1-3.7,3.1c0.5,0.5,3.6-2.8,4-3.2C26.5,21,26.4,21,26.3,21C26.4,20.9,26.4,20.9,26.3,21
	C26,21.2,26.4,20.9,26.3,21z M26.2,9.5c-1.1,0.8-2.3,1.4-3.3,2.4c0.8,0,4.9-3.7,5-3.6C27.4,8.7,26.8,9.2,26.2,9.5
	C25.9,9.7,26.6,9.3,26.2,9.5z M25.8,23.7c0.5-0.5,1.1-0.8,1.6-1.3c0.2-0.2,0.9-0.9,0.9-1c-0.8,0.6-1.7,1.1-2.4,1.8
	c-0.3,0.2-1.5,1.6-1.8,1.5c-0.9-0.3,1.2-2.1,1.8-2.1c-0.5,0,0.2-0.3,0.3-0.4c0.3-0.3,0.8-0.6,1.1-1c-0.6,0-1.7,1.3-2.2,1.8
	c-0.6,0.5-1.3,1-1.8,1.7c0.2,0.1,0.9,0.7,1.1,0.6c0.1,0,0.8-0.9,0.9-1c0,0.1,0,0.1,0,0.2C25.3,24.2,25.7,23.8,25.8,23.7z M26.2,24.8
	c0.3-0.3,0.8-0.9,1.2-0.9c-0.2,0,0.5-0.7,0.4-0.6c0.2-0.4,0.4-0.8,0.8-0.9c-0.2,0,0-0.4-0.2-0.4c-1.2,1.2-2.6,2.2-3.8,3.4
	C25.3,25.6,25.7,25.1,26.2,24.8C26.3,24.7,26,24.9,26.2,24.8z M26.3,11c0,0.2,0.1,0.3,0.1,0.5c0.6,0,1.9-0.9,1.9-1.6
	C27.6,10.2,27,10.7,26.3,11C26.3,11.1,26.7,10.8,26.3,11z M26.9,25.1c0.3,0,1.6-1,1.6-1.4C28.1,23.9,27.2,24.7,26.9,25.1
	C27.1,25.1,27.1,24.8,26.9,25.1z"/>
<path class="st0" d="M37.3,18.5c0.2,0.8,0.4,1.3,0.8,2c0.3,0.5,0.5,0.9,1.1,1.2c1.3,0.6,3,0.4,4.2-0.1c0.6-0.2,1-0.5,1.4-1
	c0.3-0.4,0.4-0.9,1-0.9c0.2,0,0.1,0.2,0.2,0.3c0.3,0.1,0.7,0.2,1,0.3c0.8,0.3,1.8,0.4,2.6,0.8c0.2,0.1,0.6,0.4,0.7,0.7
	c0.1,0.3-0.2,0.4-0.2,0.6c-0.5,1-1.7,1.8-2.8,2.4c-1.3,0.7-2.7,1.2-4.2,1.4c-0.7,0.1-1.5,0.1-2.2,0c-0.2,0-1-0.2-0.7,0.1
	c0,0-0.5-0.1-0.2-0.1c-0.6,0-2.1-0.2-2.3-0.5c0,0-0.1,0-0.1,0c0,0,0,0.1,0,0.1c-0.3-0.2-1.3,0.3-0.9-0.4c-0.2,0-0.5-0.1-0.6-0.1
	c-0.1,0-0.1-0.2-0.2-0.2c0,0.1,0.1,0.2,0.1,0.3c-0.2,0-1.6-1.5-1.8-1.8c-0.2-0.3-0.4-0.7-0.7-1c-0.2-0.2-0.7-0.1-0.2-0.6
	c-0.4-0.1-0.4-0.6-0.6-0.9c0,0-0.3,0-0.3,0c-0.1-0.1,0-0.5,0-0.5c0.1,0.1-0.5-0.3-0.3-0.1c-0.1-0.1-0.3,0.4-0.4-0.1
	c0-0.2,0.4-0.3,0.4-0.4c0-0.2-0.2-0.4-0.2-0.6c-0.2,0-0.3,0.1-0.3,0.3c-0.4-0.4,0.2-0.6,0.2-0.9c0.1-0.5-0.2-1.2-0.2-1.7
	c0-0.9,0.2-1.6,0.5-2.4c0.4-1.2,0.9-2.4,1.9-3.4c1.7-1.7,3.9-2.9,6.2-3.3c1.4-0.2,2.6,0.5,3.9,0.4c0.2,0,0.3,0.1,0.5,0.1
	c0.1-0.1,0.3-0.3,0.4-0.4c0.3,0,0.7,0.2,1,0.4c1.8,1,3,2.5,3.8,4.3c0.1,0.3,0.2,0.5,0.3,0.9c0,0.2,0.2,0.6,0.3,0.9
	c-0.1-0.3,0.4,0.7,0.3,0.4c0,0,0,0.5,0,0.4c0,0.2-0.3,0.6-0.1,0.9c0.1,0.1,0.6,0.1,0.6,0.2c-0.1,0.3-0.5,0.3-0.6,0.4
	c-0.1,0.1-0.1,0.8,0.2,0.8c-0.2,0-0.6,1.1-0.8,1.3c0-0.1,0.1-0.7,0-0.8c0-0.1-0.3,0-0.4,0c-0.5-0.2-1.2,0-1.7,0
	c-1.2,0-2.3,0.1-3.5,0.1c-0.5,0-1.1-0.2-1.6-0.2c0,0-0.9,0.2-0.7,0.2c-0.1-0.3-0.7-0.1-1-0.1c-0.5,0.1-1.2,0-1.7,0.1
	C39,18.1,37.3,18.5,37.3,18.5C37.4,18.9,37.4,18.3,37.3,18.5z M32.7,16.2c0,0.7-0.3,0.6,0.3,0.4c0.2-0.1,0.5-0.2,0.6-0.5
	c-0.1,0-0.2,0-0.3,0c0.6-0.6,1.3-1,1.8-1.7c0.3-0.3,0.3-0.4,0.6-0.7c0.3-0.3,0.5-0.5,0.8-0.8c0.5-0.5,2.6-2.1,2.6-2.8
	C37.1,12.2,34.9,14.2,32.7,16.2C32.7,16.4,33.8,15.2,32.7,16.2z M35,15.4c-0.2,0.2-2.6,2-2.4,2.2C33.6,17,34.2,16.2,35,15.4
	c0.7-0.7,3-2.2,3-3.4C37.1,13.2,36.1,14.3,35,15.4z M36.6,14.9c-0.4,0.3-4.5,3.7-3.6,4.2c0.8-0.8,1.5-1.4,2.2-2.1
	c0.4-0.4,0.9-1,1.3-1.4c0.3-0.3,0.9-1.2,1.2-1.3C37.4,14.4,37,14.7,36.6,14.9C36.1,15.3,36.8,14.8,36.6,14.9z M37.6,10.3
	c-0.9,1.1-2.3,2.2-3.4,3.1c-0.6,0.5-1.3,1-1.3,1.9c0.4-0.1,1-0.9,1.2-1.1c0.3-0.3,0.5-0.6,0.8-0.8c0.1-0.1,0.4-0.4,0.5-0.4
	c0.2-0.2,0.6-0.3,0.9-0.6c0,0-0.2,0-0.2,0c0.3-0.3,0.6-0.4,0.8-0.6c0.1-0.1,0.3-0.3,0.4-0.4c0.2-0.1,0.3-0.3,0.5-0.4
	c-0.1,0-0.1,0-0.2,0c0-0.3,1.2-1.4,1.5-1.7C38.5,9.2,37.9,9.8,37.6,10.3C37.2,10.8,37.8,10,37.6,10.3z M34.2,18.4
	c-0.5,0.5-1,0.7-1.2,1.4c0.4-0.1,0.8-0.5,1-0.7c0.1-0.1,0.3-0.2,0.4-0.3c0.1-0.1,0.4-0.3,0.4-0.5c0.3,0.1,2.8-2.4,2.9-3
	c-0.5,0.6-1.1,1.3-1.8,1.8C35.4,17.6,34.7,17.8,34.2,18.4C34,18.6,34.7,17.8,34.2,18.4z M33.4,20.5c0.4,0,0.5-0.6,0.9-0.6
	c0-0.1,0-0.2-0.1-0.2c0.4,0,1.2-0.8,1.2-1.2C34.7,18.8,33.8,19.8,33.4,20.5C33.5,20.5,33.6,20.1,33.4,20.5z M36.3,18.3
	c-0.7,1.1-1.8,1.8-2.6,2.8c0.5,0,1.3-0.9,1.7-1.2c0.2-0.2,1.4-1.1,1.4-1.4C36.6,18.5,36.5,18.1,36.3,18.3
	C35.9,18.9,36.4,18.2,36.3,18.3z M34.7,20.8C34.5,21,34,21.3,34,21.7c0.6,0,1.3-1,1.6-1.4c0.2-0.2,1.6-1.1,1.4-1.5
	C37,18.9,35,20.6,34.7,20.8C34.6,20.9,35.1,20.5,34.7,20.8z M34.1,12.5c0.2,0,1.1-0.6,1.3-0.8c0.9-0.6,1.7-1.6,2.5-2.4
	c-0.8,0.4-1.5,1.1-2.2,1.7C35.3,11.5,34.4,11.9,34.1,12.5C34.3,12.5,34.2,12.3,34.1,12.5z M34.3,22.3c0.6-0.4,0.9-0.9,1.4-1.3
	c0.2-0.2,1.3-1,1.3-1.3c0,0-1.2,0.9-1.3,1C35.2,21.2,34.7,21.7,34.3,22.3C34.6,22.1,34.6,21.8,34.3,22.3z M34.9,22.6
	c0.2,0,1.1-0.8,1-1C35.9,21.6,35,22.4,34.9,22.6C35.1,22.6,35,22.3,34.9,22.6z M36.5,21.9c-0.2,0.2-1.4,1.1-1.4,1.4
	c0.4,0,0.9-0.8,1.1-1c0.5-0.5,0.9-1,1.4-1.5C37.1,21,36.9,21.5,36.5,21.9C36.1,22.2,36.7,21.7,36.5,21.9z M35.7,23.7
	c0.9,0.9,1.2-0.1,1.8-0.8c0.2-0.2,0.8-0.4,0.8-0.9c-1,0.5-1.3,1.7-2.4,2.1c0-1.1,1.8-1.5,1.8-2.5C37.1,22.4,36.3,22.9,35.7,23.7
	C35.8,23.8,36,23.3,35.7,23.7z M36,21.4c0.3,0,0.3-0.1,0.3-0.3C36.2,21.2,36,21.3,36,21.4C36.1,21.4,36,21.3,36,21.4z M36.5,21.1
	c0.2-0.2,0.7-0.5,0.7-0.8C37.1,20.6,36.5,20.7,36.5,21.1C36.6,21,36.5,21,36.5,21.1z M37.5,16.5c-0.3,0.3-0.5,0.6-0.7,0.8
	c0.7-0.2,1.3-1,1.7-1.6C38.2,15.9,37.8,16.2,37.5,16.5z M38.8,22.3c-0.3,0.5-0.8,0.9-1.2,1.3c0,0-0.7,0.6-0.7,0.7
	c0,0.6,1.2-0.8,1.1-0.7c0.3-0.3,1.3-0.6,1.3-1.1C39.1,22.5,39,22.3,38.8,22.3C38.6,22.6,38.9,22.3,38.8,22.3z M39.9,15.2
	c-0.8,0.8-1.6,1.4-2.4,2.2c0.4,0,1.2-0.9,1.5-1.2c0.3-0.3,1.1-0.7,1.3-1.1C39.9,15.1,40.1,15.2,39.9,15.2
	C39.5,15.6,40,15.2,39.9,15.2z M39,23.5c-0.4,0.4-1,0.6-1.3,1.1c0.5,0.4,2.5-1.6,2.9-2C40,22.6,39.5,23.2,39,23.5
	C38.8,23.7,39.2,23.4,39,23.5z M40.9,11.6c-1,0-2.4,0.9-2.8,1.8c-0.5,1.1,0.4,1,1.2,1c0.7,0,1.4,0,2.1,0c0.7,0,1.5,0.2,2.2,0.1
	c0.9-0.1,1.1-0.4,0.7-1.3C43.6,11.8,42.3,11.6,40.9,11.6z M38.5,24.9c0.6,0,0.9-0.6,1.2-0.9c0.2-0.2,1.6-1.2,1.6-1.4
	C41.3,22.5,38.8,24.6,38.5,24.9C38.6,24.9,38.9,24.4,38.5,24.9z M39.1,11.5l-0.2,0.1C39,11.5,39,11.5,39.1,11.5z M42,8.3
	c-0.8,1-1.8,2-2.7,2.9c1.1-1.1,2.3-1.9,3.4-3C42.4,8.2,42.3,8.3,42,8.3C41.7,8.7,42.2,8.3,42,8.3z M39.4,17.1c0.6,0,0.9-0.2,1.3-0.6
	c0.4-0.3,0.9-1.1,1.4-1.1C41.2,15.7,40.1,16.4,39.4,17.1C39.6,17.1,39.8,16.7,39.4,17.1z M39.4,25c0.2,0,0.5,0.2,0.7,0.1
	c0.1-0.1,0.6-0.8,0.7-0.9c0.2-0.3,1.2-1.1,1.4-1.7C41.2,23.3,40.3,24.1,39.4,25C39.5,25,39.8,24.6,39.4,25z M39.5,9.7
	c0.4,0,0.3,0.2,0.6,0.1c0.3-0.1,0.9-1.1,1-1.4C40.2,8.4,39.9,9.1,39.5,9.7C39.6,9.7,39.7,9.4,39.5,9.7z M43.5,8.3
	c-1.2,1-2.3,2-3.5,3c0.6,0,1.4-0.9,1.9-1.2c0.7-0.5,1.2-1.3,1.9-1.7C43.6,8.4,43.7,8.3,43.5,8.3z M42.7,15.3
	c-0.7,0.7-1.4,1.1-2.1,1.8c0.7,0,1.5-0.6,2-1.1C42.9,15.8,43.4,15.3,42.7,15.3C42.4,15.6,42.8,15.3,42.7,15.3z M44.3,8.6
	c-1,0.8-2,1.6-3,2.4c0.4,0,1-0.8,1.3-1.1C43.2,9.4,44,9,44.5,8.5C44.3,8.4,44.4,8.6,44.3,8.6z M45.2,21.3c-0.4,0.2-0.9,0.7-1.3,1.1
	c-0.9,0.8-2.1,1.6-2.6,2.7c0.4,0.3,2.2-1.8,2.7-2.4c0.4-0.4,0.8-0.7,1.2-1.1c0,0,0.6-0.7,0.7-0.7c-0.1-0.1-0.1-0.1-0.1-0.2
	c0,0.2,0.2,0,0.3,0.1C45.7,20.6,45.4,21.1,45.2,21.3z M42.9,16.1c-0.3,0.3-0.8,0.6-1.1,0.8c0.7,0,0.7-0.2,1.1-0.6
	c0.2-0.1,1.6-0.9,1.4-1.1C43.8,15.4,43.3,15.7,42.9,16.1z M46.5,21c-0.7,0.7-1.4,1.4-2.1,2c-0.8,0.7-1.8,1.2-2.3,2.1
	c0.6,0,1.1-0.9,1.4-1.2c1-0.9,2.1-1.9,3.1-2.9C46.3,21,46.7,21,46.5,21C46.2,21.3,46.6,21,46.5,21z M43.2,11.4
	c0.8-0.8,1.7-1.4,2.5-2.2c-0.7,0-1.1,0.6-1.6,0.9c-0.5,0.4-1.2,0.6-1.5,1.2C42.8,11.3,42.9,11.6,43.2,11.4
	C43.4,11.2,43,11.5,43.2,11.4z M45.5,15.2c-0.7,0.7-1.8,1.2-2.5,1.9c0.6,0,0.8-0.3,1.2-0.6c0.2-0.1,0.5-0.3,0.9-0.5
	c0.9-0.6,1.8-1.3,2.6-2c0.2-0.2,1.2-0.7,1.1-1.1C48.8,13,45.8,15,45.5,15.2C45.4,15.3,46,14.8,45.5,15.2z M47.3,21.2
	c-1.3,1.3-2.8,2.4-4.1,3.7c0.7,0,0.8-0.2,1.1-0.6c0.2-0.2,1.2-1.3,1.3-1.1c0,0-0.1-0.2-0.1-0.2c0.4,0,0.7-0.5,0.9-0.7
	c0.4-0.4,0.7-0.9,1.1-1.2C47.3,20.9,47.4,21.1,47.3,21.2z M44,12c0.5,0,0.8-0.6,1.1-0.8c0.5-0.3,1.5-0.7,1.8-1.3
	C45.8,10.3,44.8,11.2,44,12C44.2,12,44.4,11.6,44,12z M48.9,13.5c-0.4,0.3-4.5,3.5-4.4,3.6c0.8-0.8,2.1-1.5,3.2-2.1
	c0.4-0.2,0.7-0.3,1-0.7C48.8,14.3,49.6,13.5,48.9,13.5C48.3,14,49,13.5,48.9,13.5z M44.5,12.6c0.5,0,0.4-0.2,0.6-0.4
	c0.7-0.6,1.5-1.2,2.3-1.8C46.3,10.9,45.3,11.7,44.5,12.6C44.6,12.6,44.9,12.1,44.5,12.6z M46.1,12c-0.4,0.4-1.2,0.7-1.2,1.4
	c0.8-1,1.9-1.5,2.8-2.4C47.2,11.2,46.6,11.7,46.1,12C46,12.1,46.4,11.8,46.1,12z M45.3,24.3c0,0.2-0.4,0.1-0.4,0.3
	c0-0.2,3.6-2.8,3.3-3.2C48.2,21.4,45.6,24,45.3,24.3C45.3,24.4,45.7,23.9,45.3,24.3z M47.3,15.6c-0.7,0.4-1.2,1-1.9,1.4
	c1.4-0.8,2.8-1.7,3.9-2.8C48.6,14.7,48,15.1,47.3,15.6z M45.5,14c0.6,0,0.6-0.4,1-0.6c-0.1,0-0.2,0-0.2-0.1c0.1,0,0.5-0.1,0.5-0.3
	c-0.1,0-0.2,0-0.2-0.1c0.3,0,0.7-0.3,0.7-0.6C46.8,12.9,46.2,13.6,45.5,14C45.8,14,45.8,13.8,45.5,14z M46.5,17c0.3,0,2-1,2-1.4
	C47.8,16.1,47.2,16.5,46.5,17C46.7,17,46.8,16.8,46.5,17z M46.6,24L46.6,24c0.7,0,2.2-1.6,2.8-2.2c-0.8,0-0.6,0.1-1.2,0.7
	C47.7,23.1,47.1,23.5,46.6,24z M48.2,11.7c-0.2-0.5-0.4,0.1-0.4,0.3C48,12,48.1,11.8,48.2,11.7z M48.5,17.1c0.4,0,1.2-0.3,1.2-0.8
	C49.3,16.4,48.8,16.8,48.5,17.1C48.6,17.1,48.7,16.9,48.5,17.1z M49.5,17.1c0.1,0,0.2,0,0.3,0c0,0,0-0.2-0.1-0.2
	C49.6,16.9,49.6,17.1,49.5,17.1z"/>
<path class="st0" d="M61.9,9.1c0.6,0,1.1-0.6,1.6-0.8C64,8.1,64.3,8,64.8,7.9c1.3-0.3,2.2-0.2,3.5,0.3c0.8,0.2,1.3,0.7,2,1
	c0.4,0.2,0.6,0.2,0.9,0.4c0.2,0.1,0.3,0.5,0.5,0.6c0.5,0.2,1.4-0.7,1.9-1c0.8-0.5,1.9-0.8,2.9-1.1C77,7.9,77.5,8,78,7.9
	c0.7-0.1,1.6,0,2.2-0.1c0.5-0.1,0.4-0.3,0.8-0.1c-0.1,0.3,0,0.5,0.4,0.4c0.1,0.1,0.3,0.1,0.4,0.2c0.4,0.2,0.7,0.4,1,0.6
	c0.2,0.2,0.9,0.7,0.9,0.8c0.1,0.2,0.1-0.1,0.2,0.3c0,0.2-0.3,0-0.4,0.1c-0.1,0,0.5,1.2,0.3,1.2c1.1,0.6,0.7,4.6,0.7,5.8
	c0,1,0.3,2,0.3,3c0,0.4-0.2,0.6-0.1,1c0,0.3,0.2,0.3,0.1,0.6c0.7,0.2,1.6-0.3,2.2,0.2c0.4,0.3,0.3,1.4,0.3,2.1c0,0.4,0.2,0.8,0.2,1
	c0,0.1,0.2,0.1,0.2,0.3c0,0.1-0.6,0.6-0.6,0.6c0.4-0.4-1.3-0.2-1.4-0.2c-1,0.1-2,0.2-3,0.2c-1.3,0-3,0.7-3.1-1.1
	c-0.1-3.1,0.9-7.7-1.4-10.3c-0.8-0.9-2.3-1-3.4-1c-0.7,0-1.2,0.1-1.8,0.6c-0.3,0.2-0.2-0.1-0.4,0.4c0,0.1,0,0.4,0,0.5
	c0,1.1,0.2,2.1,0.3,3.2c0.1,0.8,0,1.6,0.1,2.4c0,0.1,0.2,0.2,0.3,0.3c0,0.1-0.2,0.4-0.2,0.5c0.5,0,0.8,0.1,1.2,0.2
	c0.8,0.1,0.8-0.2,1,0.6c0.2,0.6,0.2,1.7,0.2,2.3c0,0.8-0.2,0.8,0.4,1.1c-0.4,0.8-1.2,0.5-1.9,0.6c-0.6,0.1-1.3,0.7-1.7,0.6
	c0,0,0-0.3-0.2-0.3c-0.4-0.1-1,0-1.4,0c-0.7,0-2.3,0.4-2.8,0c-0.5-0.4-0.2-1.3-0.2-1.9c0-0.8-0.3-1.6-0.2-2.4
	c0.1-0.5,0.3-0.7,0.2-1.3c-0.1-0.9-0.2-1.7-0.2-2.7c0-1.1-0.2-2.7-0.6-3.7c-0.3-1-1.4-1-2.5-1.1c-0.8,0-1.9-0.2-2.6,0.2
	c-0.2,0.1-0.5,0.3-0.5,0.4c-0.1,0.3,0.4,0.1,0.4,0.3c0,0.3-0.2,0.7-0.2,1c0,0.5,0.1,0.7,0.3,0.9c0.1,0.2,0.3-0.2,0.4,0.2
	c0.1,0.3-0.5,0.6-0.6,0.9c-0.2,0.5-0.1,1.2-0.1,1.7c0,0.5-0.2,1.2-0.1,1.7c0.2,0.8,0.9,0.7,1.6,0.7c1.1,0.1,1.4,0.5,1.4,1.6
	c0,0.4-0.5,2.3-0.3,2.5c0,0,0.2,0,0.2,0c-0.2,0.2-0.3,0.6-0.5,0.8c-0.2,0-0.2-0.3-0.2-0.4c-0.3-0.1-0.6-0.1-1.1-0.1
	c-1,0.1-2.1,0.1-3.1,0c-1,0-1.9-0.1-2.9-0.1c-0.4,0-0.9-0.1-1.3-0.1c-0.6,0-0.1,0.1-0.3,0.2c0,0-1.2-0.3-1.4-0.2
	c-0.2,0-1.2,0.2-0.7-0.2c-0.8,0-0.6-0.5-0.6-1.2c0-0.8-0.1-1.6,0-2.4c0-0.2-0.4,0,0.2-0.5c0.4-0.3,0.8-0.3,1.3-0.3
	c0.6,0,0.8,0.4,1-0.5c0.1-0.3,0-0.8,0-1.2c0-1.6,0.2-3.1,0.2-4.6c-0.1-0.8,0.1-1.9-0.7-2.4c-0.6-0.4-1.1,0.1-1.5-0.5
	c-0.4-0.6-0.1-1.8,0-2.6c0-0.2-0.2-1.3,0-1.5c0.2-0.2,1.2-0.1,1.5-0.1c1.8-0.1,3.7-0.1,5.6-0.1c0.4,0,1.6-0.1,1.9,0.1
	C61.7,8.1,61.7,8.8,61.9,9.1C62.1,9.1,61.8,8.9,61.9,9.1z M60.6,19.3c-1.5,1.1-3.1,2-4.7,2.9c-0.7,0.4-1.4,0.8-2.1,1.3
	c-0.7,0.4-0.9,0.5-0.9,1.2c0,0,0.3-0.1,0.3-0.1c0.1-0.1-0.2-0.2-0.1-0.3c0.2-0.3,0.5-0.5,0.9-0.8c0.3-0.2,0.5-0.3,0.8-0.4
	c0.4-0.2,0.9-0.5,1.5-0.7c0.5-0.2,0.8-0.4,1.2-0.7c0.4-0.2,1-0.6,1.4-0.6c0.7-0.4,2.9-1.2,1.9-2.2C60.5,18.8,60.7,19.2,60.6,19.3
	C59.4,20.2,60.7,19.2,60.6,19.3z M54.1,22.4c-0.4,0.2-0.9,0.5-1.1,0.9c0.4,0,1.3-0.8,1.6-1c0.2-0.2,1.1-0.5,1.2-0.7
	C55.7,21.6,54.3,22.3,54.1,22.4z M53.3,8.6c0.2-0.1,0.4-0.3,0.5-0.5c-0.3,0-0.5,0-0.8,0C53.1,8.2,53,8.6,53.3,8.6
	C53.5,8.5,53.2,8.6,53.3,8.6z M53.1,21.7c0,0.3-0.1,0.7-0.1,1c0.4-0.4,1-0.5,1.3-0.9c0,0,0.1,0.2,0.2,0.2c0-0.2,0.2,0,0.4-0.2
	C54.4,21.6,53.6,21.7,53.1,21.7C53.1,21.8,53.5,21.7,53.1,21.7z M55.1,9.3c-0.3,0.6-2.1,1.3-1.7,1.9c0,0,3.9-2.5,3.9-3.1
	C56.6,8.5,55.6,8.7,55.1,9.3z M54.5,8c0,0.6-1,0.9-1.3,1.4C53.8,9,54.6,8.6,55,8C54.8,8.1,54.6,8.2,54.5,8C54.5,8.2,54.6,8.2,54.5,8
	z M58,8c-0.9,0.7-1.7,1.4-2.6,2.1c-0.3,0.3-1.7,1.1-1.7,1.5c0.6,0,1.6-1.1,2-1.4c1-0.7,2-1.5,2.9-2.3C58.3,7.8,58.1,7.9,58,8z
	 M54.1,23.9c0,0-0.2,0-0.2,0.1c0,0.1,2.3-1.1,2.5-1.2c0.4-0.2,0.8-0.3,1.2-0.5c-0.5,0.3,0.9-0.4,0.5-0.4c0.8,0,2.2-0.9,2.9-1.5
	C58.7,21.5,56.3,22.6,54.1,23.9z M53.9,24.7c0.1,0,0.5-0.1,0.6-0.2C54.3,24.3,53.9,24.4,53.9,24.7C54,24.7,53.9,24.6,53.9,24.7z
	 M58.8,8.3c-0.7,0.7-1.4,1.2-2.2,1.8c-0.7,0.5-1.7,1-2.3,1.6c1-0.7,2-1.3,3.1-1.9C58.1,9.4,59.5,8.7,60,8C59.5,8,59.2,8.1,58.8,8.3
	C58.6,8.5,59,8.2,58.8,8.3z M60.8,22c-2,1.2-4.3,1.9-6.3,3.1c0.7,0,1.3-0.5,1.7-0.5c0-0.5,1.3-0.8,1.6-0.9c1.1-0.5,2.2-1.1,3.3-1.7
	C61,22,61,22,61,21.9C60.9,22,60.9,22,60.8,22z M59.8,8.9c-1.5,1-3.6,1.7-4.9,3c1,0,1.9-0.9,2.7-1.4c1.1-0.6,2.6-1.2,3.4-2.2
	C60.7,7.8,60.1,8.7,59.8,8.9C59.2,9.3,60,8.8,59.8,8.9z M55,24.2c0.2,0,0.7-0.3,0.9-0.4c-0.2,0-0.2,0.1-0.2-0.1
	C55.6,23.8,54.9,24.1,55,24.2C55.1,24.2,54.9,24.1,55,24.2z M55,20.8c0.1,0.2,0.2,0.4,0.2,0.6c1.5-0.8,2.9-1.5,4.4-2.4
	c0.5-0.3,1.6-0.7,1.4-1.3C59.1,18.9,57.1,20,55,20.8C55.1,21,56,20.4,55,20.8z M55.1,19.7c0,0.3,0,0.5,0,0.8c1.7-1.3,3.8-2,5.3-3.4
	c0.1-0.1,0.8-0.7,0.3-0.9c-0.2-0.1-1.7,1-1.8,1.1C57.6,18.1,56.3,18.9,55.1,19.7C55.1,19.8,56,19.1,55.1,19.7z M55.9,12.2
	c-0.5,0-0.9,0.6-0.1,0.4c0.5-0.1,1.3-0.8,1.7-1.1c0.4-0.2,3.7-2.2,3.6-2.4C60.9,8.9,56.4,11.9,55.9,12.2
	C55.8,12.2,56.6,11.7,55.9,12.2z M60.9,15c-0.7,0.4-6,3-5.6,3.9c-0.1-0.2,5.8-3.1,5.8-3.9C61,15.1,60.9,15.1,60.9,15
	C60.3,15.4,61,15,60.9,15z M63,9.5c-1.5,0.9-3,1.9-4.5,2.8c-0.8,0.5-3.2,1.4-3,2.4c2.2-0.9,3.9-2.4,6-3.4c0.6-0.6,1.7-1,2.5-1.5
	c0.4-0.3,1.8-0.9,1.8-1.5C64.8,8.3,63.9,9.1,63,9.5C61.7,10.3,63.5,9.3,63,9.5z M68.1,8.8c-2.3,1.5-4.7,3-7.1,4.3
	c-1.2,0.7-2.5,1.4-3.7,2.1c-0.4,0.2-1.6,0.7-1.8,1.1c-0.1,0.2,0,0.6,0,0.8c1.4-0.7,2.8-1.7,4.1-2.6c0.4-0.3,0.8-0.6,1.2-0.9
	c0.6-0.5,1.1-0.4,1.8-0.7c0.3-0.1,0.7-0.5,1-0.6c0.3-0.2,0.9-0.4,1.2-0.6c0.4-0.3,0.6-0.6,1-0.9c1-0.6,2.1-1,2.8-1.9
	C68.3,8.9,68.4,8.8,68.1,8.8C66.1,10.1,68.2,8.8,68.1,8.8z M60.9,14.1c-0.6,0.5-5.7,3.3-5.4,3.8c0.2-0.5,1.3-0.9,1.7-1.1
	c0.8-0.3,1.3-0.9,2.1-1.4c0.4-0.3,1.2-0.5,1.5-0.8C61,14.4,61.2,14.2,60.9,14.1z M66.7,8.4c-0.7,0.9-1.9,1.4-2.8,2
	c-1.2,0.7-2.3,1.4-3.5,2c-1.1,0.6-2.2,1.2-3.3,1.7c-0.5,0.3-2.4,0.8-1.5,1.6c2.1-1.3,4.2-2.6,6.3-3.8c0.8-0.5,1.5-1,2.2-1.4
	c0.5-0.3,1-0.6,1.6-0.9c0.5-0.3,1.5-0.7,1.7-1.2C67.1,8.5,66.9,8.4,66.7,8.4C66.4,8.8,66.8,8.4,66.7,8.4z M60.3,10.5
	c-1.1,0.5-2.1,1.2-3.2,1.8c-0.6,0.3-1.6,0.6-1.6,1.3c0.8-0.2,1.6-1,2.3-1.4c0.3-0.2,0.6-0.5,0.9-0.5c0.1-0.2,0.5-0.4,0.8-0.7
	c0.3-0.3,1.9-0.8,1.9-1.2C60.9,9.8,60.6,10.2,60.3,10.5C60.1,10.6,60.5,10.3,60.3,10.5z M56,21.5c0.1,0,0.8-0.3,0.6-0.5
	C56.3,21.3,56.2,21.1,56,21.5C56.1,21.5,56.1,21.3,56,21.5z M56.3,23.5c0,0-0.3,0-0.2,0c0.2,0.2,1.2-0.5,1.3-0.6
	C57.1,22.9,56.5,23.3,56.3,23.5C56.2,23.5,56.4,23.4,56.3,23.5z M56.1,25.1c0.9,0,1.7-0.6,2.5-0.9c0.6-0.3,1.5-0.6,2-1
	C59.1,23.6,57.3,24.2,56.1,25.1C56.3,25.1,56.8,24.6,56.1,25.1z M57.2,25.3c0.3,0.2,0.5-0.2,0.7-0.4C57.6,24.9,57.4,25.1,57.2,25.3
	C57.4,25.4,57.3,25.2,57.2,25.3z M58.6,22.4c-0.2,0-0.9,0.2-0.9,0.5c0.4-0.4,1.1-0.4,1.5-0.8C59,22.2,58.8,22.3,58.6,22.4
	C58.4,22.4,58.9,22.2,58.6,22.4z M63.4,22.7c-0.9,0.5-1.9,0.9-2.8,1.3c-0.7,0.4-1.8,0.6-2.3,1.3c0.2,0,0.6,0.1,0.7,0.1
	c0.4-0.1,1.1-0.7,1.5-0.9c1.1-0.6,2.1-1.2,3.1-1.8C63.5,22.7,63.4,22.7,63.4,22.7z M60,21.7c-0.1,0.1-0.6,0.2-0.6,0.4
	c0.5-0.3,1.1-0.5,1.6-0.8c0,0-0.2-0.1-0.2-0.2C60.5,21.3,60.2,21.5,60,21.7z M60,25.3c0.5,0.1,2-0.7,2.2-1.2
	C61.5,24.5,60.7,25.1,60,25.3z M61.3,25.4c0.5,0,2.4-0.7,2.2-1.3C63.4,23.9,61.5,25.2,61.3,25.4C61.4,25.4,61.6,25.2,61.3,25.4z
	 M63,25.4c0.2,0,0.2,0.2,0.4,0.2C63.4,25.3,63.2,25.2,63,25.4z M65.5,12.1c0.3-0.6,1.5-0.9,2-1.3c0.6-0.4,1.6-0.9,1.9-1.5
	c-0.4-0.2-2.3,1.4-2.7,1.7c-0.5,0.3-2.4,1-2.4,1.5C64.7,12.5,65,12.1,65.5,12.1C65.6,11.9,65.2,12.1,65.5,12.1z M64.8,12.8
	c0.1,0,0.4,0,0.6,0c0.9-0.3,0,0,0.3-0.2c0.1,0,0.7-0.6,0.8-0.7C65.9,12.1,65.3,12.4,64.8,12.8C65,12.8,65.1,12.6,64.8,12.8z
	 M70.2,9.9c-1.4,1.2-3.1,2.1-4.6,3c0.5,0,1.3,0.2,1.5,0.7c0.7-0.7,1.5-1.1,2.2-1.6c0.4-0.3,1.8-0.8,1.8-1.4c-0.9-0.5-3.9,2.8-4.4,2
	c-0.2-0.3,3.4-2.4,3.8-2.6C70.4,9.9,70.3,9.9,70.2,9.9C70.3,9.9,70.3,9.9,70.2,9.9C69.5,10.5,70.3,9.9,70.2,9.9z M67.4,14
	c0.1,0,0.7-0.3,0.5-0.5C67.9,13.6,67.5,13.9,67.4,14C67.5,14,67.5,13.9,67.4,14z M69.1,15c1.4-0.8,2.8-1.7,4.1-2.5
	c0.6-0.4,1.1-0.9,1.7-1.2c1.4-0.8,3.2-2,4.5-3.2c-0.7,0-1.5-0.1-2.1,0.1c-0.4,0.2-0.4,0.2-0.7,0.5c-1.2,0.9-2.5,1.8-3.7,2.6
	c-0.8,0.5-5.8,2.5-5.3,3.6c1.6-1.1,3.5-1.8,5.1-2.9c0.9-0.7,1.8-1.4,2.7-2c0.4-0.3,1-0.5,1.4-0.8C77,9,77.2,8.7,77.6,8.5
	c0.4-0.1,0.8-0.2,0.7,0.4c0,0.3-1.6,1-1.8,1.2c-0.9,0.6-1.9,1.2-2.8,1.9c-1,0.8-2.1,1.4-3.2,2c-0.6,0.3-2.6,1.2-2.6,2
	C68.5,16,68.6,15.2,69.1,15C69.8,14.6,68.9,15.1,69.1,15z M67.9,16.3c0,0.9,0.7,0.2,1-0.1c0.6-0.4,1.1-0.7,1.6-1.1
	c0.4-0.3,1.8-1,1.8-1.5C71,14.6,69.3,15.3,67.9,16.3C67.9,16.6,68.6,15.8,67.9,16.3z M69.9,23.7c-0.5,0.2-2,0.6-2,1.3
	c0,0.3,0,0.4,0.4,0.4c0.6,0.1,0.4-0.3,0.5-0.5c0,0-0.1-0.2-0.1-0.3c0.1-0.2,0.4-0.3,0.5-0.4c0.2-0.2,0.6-0.3,0.8-0.4
	c0.7-0.4,2-0.9,2.5-1.6C71.6,22.6,70.7,23.1,69.9,23.7C69.7,23.8,70.2,23.5,69.9,23.7z M72.3,21.5c-1,0.3-1.9,1-2.8,1.4
	C69,23.1,68,23.5,68,24.1c0.8,0,2-1,2.7-1.4c0.4-0.3,0.9-0.5,1.3-0.7c0,0,0.9-0.6,0.5-0.6C72.3,21.5,72.3,21.4,72.3,21.5
	C72,21.6,72.3,21.4,72.3,21.5z M69,17c0.1-0.2,1.6-1.3,1.6-1.3c-0.1-0.1-1.5,0.9-1.8,1c-0.4,0.2-1,0.4-0.8,0.9
	C68.2,17.4,68.6,17.2,69,17C69.2,16.7,68.8,17.1,69,17z M68.7,20.7c0.5,0,1.3-0.8,1.7-1.1c0.6-0.4,1.9-0.8,1.9-1.6
	c-1.2,0.6-2.2,1.3-3.3,2c-0.4,0.3-1,0.4-1,1C68.1,21,68.7,20.7,68.7,20.7C68.9,20.7,68.8,20.8,68.7,20.7z M68.7,18.8
	c0.9-0.5,1.7-1.2,2.5-1.8c0.1-0.1,1.4-0.6,0.8-0.9c-0.3-0.2-2.5,1.6-2.9,1.8c-0.4,0.3-1.2,0.6-1.2,1.2
	C68.2,19.1,68.4,18.8,68.7,18.8C69.1,18.6,68.6,18.8,68.7,18.8z M69.1,21.5c0.3,0,0.8-0.4,1-0.6c0,0,0,0.1,0,0.1
	c0.3-0.4,0.8-0.6,1.2-0.9c0.4-0.2,1.6-0.6,1.1-1.1c-0.8,0.6-1.7,1.1-2.5,1.7c-0.5,0.3-1.7,0.7-1.7,1.4
	C68.5,21.9,68.8,21.7,69.1,21.5C69.2,21.5,68.9,21.6,69.1,21.5z M70.7,18c-0.5,0.3-2.6,1.3-2.6,2.1c0.3,0,0.5-0.3,0.7-0.5
	c0.5-0.4,1-0.7,1.5-1c0.5-0.3,1-0.6,1.5-0.8c0.8-0.5,0.6-0.3,0.6-0.9C71.9,17.3,71.2,17.7,70.7,18C70.4,18.2,70.9,17.9,70.7,18z
	 M72.2,20.3c-0.9,0.4-1.8,0.9-2.6,1.5c-0.3,0.2-1.5,0.9-1.5,1.3c1.5-0.7,2.9-1.6,4.4-2.4c-0.3,0,0-0.3-0.1-0.4
	C72.3,20.3,72.2,20.3,72.2,20.3z M69.1,12.9c-0.3,0.2-0.7,0.4-0.9,0.7c0.8-0.3,1.5-0.9,2.2-1.3c0.5-0.3,1.3-0.7,1.6-1.2
	C71,11.7,70.1,12.3,69.1,12.9C68.9,13,69.6,12.6,69.1,12.9z M68.6,17.9c0.4-0.3,3.7-2.3,3.6-2.6C70.9,15.9,69.6,16.9,68.6,17.9
	C69.1,17.6,69.2,17.3,68.6,17.9z M69.2,24.9c0-0.2,1.8-0.9,2.1-1.1c1-0.5,1.9-1.2,2.9-1.7C72.4,22.9,70.8,23.9,69.2,24.9
	C69.2,25,70,24.4,69.2,24.9z M70.8,24.6c0,0.5-1.3,0.5-1.3,0.9c0.5,0.1,4.7-3,5.1-2.3c-0.3,0.6-1.2,0.9-1.8,1.2
	c-0.6,0.3-1.4,0.8-2.1,1c1.1,0,1.5-0.4,2.3-0.9c0.2-0.1,0.9-0.6,1.2-0.6c1.4,0-1,1.3-1.3,1.5c0.6,0,0.7-0.3,1.2-0.5
	c0.1-0.1,0.5,0,0.6-0.1c0.4-0.4,0.2-1.5,0.2-2.2C73.5,23.1,72.2,24,70.8,24.6C70.8,24.7,71.5,24.3,70.8,24.6z M73.7,9.8
	c-0.3,0.3-1.6,0.9-1.6,1.2c0.5,0,0.6-0.3,1-0.6c0.5-0.4,1.1-0.6,1.6-1c0.2-0.2,1.2-0.6,1.2-0.9C74.9,8.7,74.4,9.3,73.7,9.8
	C73.6,9.9,74,9.6,73.7,9.8z M73.3,21.9C73.2,21.9,73.1,21.9,73.3,21.9C73.2,21.9,73.4,21.8,73.3,21.9C73.4,21.8,73.4,21.8,73.3,21.9
	C73.2,21.9,73.4,21.8,73.3,21.9z M80.3,8.2c-1.4,1-2.8,2-4.2,3c-0.5,0.3-2.9,1.4-2.9,2c1.7-1.1,3.6-1.9,5.2-3.1
	c0.4-0.3,0.8-0.7,1.2-1c0.4-0.3,0.8-0.2,1.1-0.8C80.5,8.3,80.4,8.2,80.3,8.2C79.4,8.8,80.4,8.2,80.3,8.2z M79.2,10.1
	c-0.6,0.6-1.3,0.8-2,1.2c-0.8,0.4-1.5,1-2.3,1.4l0,0l0,0c0.9,0,2.2-1,2.9-1.4c1.2-0.8,2.7-1.5,3.7-2.6C80.7,9.1,80.1,9.8,79.2,10.1
	C78.9,10.4,79.5,10,79.2,10.1z M82,9.1c-1.9,1.3-4,2.2-5.8,3.6c1.3,0,2.4-1.1,3.5-1.8c0.7-0.4,1.3-0.8,2-1.3
	c0.1-0.1,0.8-0.3,0.6-0.5C82.1,9,82.2,8.9,82,9.1C81.1,9.7,82.1,9,82,9.1z M81.6,10.4c-0.8,0.5-1.6,1.1-2.4,1.5
	c-0.4,0.2-0.8,0.4-1.2,0.6c-0.3,0.2-0.2,0.4-0.6,0.4l0,0c0.9,0.1,1.9-0.7,2.6-1.2c0.9-0.6,1.9-1.3,2.6-2
	C82.3,9.8,81.9,10.1,81.6,10.4C81.3,10.6,81.8,10.2,81.6,10.4z M77.9,13.1c0.1,0,0.1,0,0.2,0c0,0,0-0.1,0-0.1
	C77.9,12.9,77.9,13.1,77.9,13.1z M79,13.6c0.9-0.6,1.7-1.3,2.6-1.9c0.4-0.2,0.8-0.4,1.2-0.6c0.5-0.4,0.6-0.2,0.6-0.9
	c-1.7,1-3.3,2.1-5,3.1C78.6,13.3,78.5,13.6,79,13.6c-0.1-0.1-0.1-0.3-0.1-0.4C79.1,13,78.8,13.8,79,13.6
	C79.7,13.1,78.9,13.7,79,13.6z M82.1,12.2c-0.8,0.5-2.3,1.8-3.3,1.7c0,0.3,0.2,0.4,0.4,0.4c0-0.1,0-0.1,0-0.2
	c0.3,0.1,0.9-0.1,1.1-0.4c0.2-0.3,0.1-0.1,0.1-0.4c0-0.2,0.7-0.3,0.7,0.1c0.5-0.2,2.8-1.4,2.6-2C83.1,11.6,82.5,11.9,82.1,12.2
	C81.6,12.5,82.4,12,82.1,12.2z M82.9,12.7c-0.8,0.3-2.1,1.2-2.8,1.7c-0.3,0.2-0.9,0.7-0.3,0.8c0.2,0,1.1-0.8,1.3-0.9
	c0.4-0.2,0.8-0.4,1.2-0.7c0.1-0.1,1.6-1,1.3-1.3C83.8,12.6,82.9,12.7,82.9,12.7C82.6,12.8,83.1,12.6,82.9,12.7z M83.7,13.3
	c-0.5,0.3-4.2,1.9-3.8,2.6c0.7-0.3,1.3-0.8,2-1.2c0.7-0.4,1.5-0.8,2-1.3C83.6,13.7,83.8,13.1,83.7,13.3
	C83.2,13.6,83.8,13.2,83.7,13.3z M80.2,16.3c0,0.2-0.1,0.4-0.2,0.5c0.8-0.3,1.5-0.9,2.3-1.3c0.4-0.2,1.9-0.7,1.6-1.3
	C83.8,14.1,80.5,16.1,80.2,16.3C80.2,16.4,80.8,16,80.2,16.3z M79.9,20.7c0,0.2,0,0.5,0,0.7c0.9-0.4,1.7-0.9,2.4-1.5
	c0.3-0.3,0.7-0.6,1.1-0.8c0,0,0.6-0.1,0.5,0c0,0,0-0.5,0-0.5c-0.3,0-0.7,0.4-1,0.5C81.9,19.7,80.8,20.2,79.9,20.7
	C79.9,20.8,80.6,20.3,79.9,20.7z M80.6,17.1c-0.4,0.2-0.8,0.5-0.5,1c0.7-0.4,1.4-0.8,2.1-1.2c0.3-0.2,1.6-0.7,1.7-1
	c0.1-0.7-0.6,0-0.9,0.1C82.2,16.4,81.4,16.6,80.6,17.1C80.4,17.2,81.1,16.8,80.6,17.1z M83.7,17.7C83.1,17.9,80,19.3,80,20
	c0.7,0,1.8-1,2.4-1.3c0.3-0.2,1.3-0.5,1.5-0.8c0-0.1,0-0.4-0.1-0.4C83.7,17.5,83.7,17.7,83.7,17.7C83.2,17.9,83.7,17.6,83.7,17.7z
	 M83.4,21.7c0.1,0,0.6-0.3,0.5-0.5c-0.2-0.2-4,2-4,2.6C81.1,23.2,82.2,22.4,83.4,21.7C83.5,21.7,82.9,22,83.4,21.7z M83.9,22.1
	c-1.2,0.8-2.6,1.4-3.8,2.2c1.4-0.6,2.8-1.3,4.2-2.1C84.2,22.1,84.1,22.1,83.9,22.1C83.3,22.5,84,22.1,83.9,22.1z M83.7,16.6
	c-0.7,0.4-3.8,1.5-3.5,2.5c0.7-0.4,1.4-0.9,2.2-1.3c0.4-0.3,1.7-0.5,1.7-1.2C83.9,16.6,83.8,16.6,83.7,16.6z M80.3,21.9
	c0-0.1,0-0.1,0-0.2C80.3,21.8,80.3,21.8,80.3,21.9z M83.9,20.4c-0.6,0.3-3.6,1.6-3.6,2.3c0.9-0.3,1.6-1,2.4-1.4
	c0.2-0.1,0.7-0.2,0.9-0.4C83.6,20.9,84.6,20.4,83.9,20.4C83.5,20.6,84,20.4,83.9,20.4z M80.5,21.7c0-0.1,0.1-0.1,0.1-0.2
	C80.4,21.5,80.5,21.6,80.5,21.7z M84.6,23.1c0,0,0.2-0.1,0.2-0.1c-0.2-0.2-3.9,1.7-4.1,2.1C82,24.5,83.3,23.8,84.6,23.1z M81.5,21
	c-0.2,0.2-0.4,0.2-0.7,0.5c0.5-0.3,3.3-1.5,3.1-2.1C83.1,19.9,82.3,20.5,81.5,21C81.4,21.1,82,20.7,81.5,21z M81.7,25.2
	c1.1,0,1.9-0.6,2.9-1.1c0.3-0.2,2.2-1,2.2-1.3C85,23.6,83.3,24.4,81.7,25.2z M83.7,25.2c0.2,0,0.6-0.1,0.6-0.3
	C84.1,24.9,83.8,25.1,83.7,25.2C83.8,25.2,83.8,25.1,83.7,25.2z M85.3,24.9c0.2,0,0,0.1,0.1,0.2c0,0,1.1-0.8,1.2-1
	C86.1,24.3,85.7,24.5,85.3,24.9C85.4,24.9,85.5,24.7,85.3,24.9z"/>
<path d="M109.5,25.6c-0.6,0-1,0.1-1.6,0c-0.5-0.1-0.8,0.1-1.1,0.1c0.2,0.2-0.1,0.1-0.2,0.1c-0.4-0.1-0.5-0.4-0.7-0.8
	c-0.7-1.5-1-3.1-1.6-4.7c-0.3-0.8-0.6-1.4-0.8-2.1c-0.1-0.3-0.1-0.5-0.1-0.9c0-0.7-0.3-0.7-0.6-1.4c0.5,0-0.5,0.9-0.5,0.9
	c-0.2,0.3-0.1,0.9-0.2,1.2c-0.2,0.6-0.6,1.1-0.8,1.6c-0.6,1.1-0.8,2.1-1.3,3.2c-0.1,0.3-1.1,2.4-1.2,2.4c0.1,0.1,0.1,0.2,0.2,0.4
	c-0.1,0-0.1-0.3-0.2-0.2c-0.6,0.6-1,0.5-2,0.5c-0.3,0-0.5,0.1-0.8,0.1c-0.3,0-2.2-0.1-2.2-0.1c0.1,0.1,0.1,0.1,0.1,0.2
	c-0.4,0.4-1-1.9-1.1-2.1c-0.5-1-0.9-2.1-1.2-3.2c-0.7-2.2-1.5-4.4-2.3-6.6c-0.4-1.1-0.6-2.4-1-3.6c-0.4-1.1-0.7-2.1-0.9-3.2
	c-0.1-0.5-0.4-1-0.5-1.5c-0.1-0.4-0.1-1.3-0.5-1.6c-0.3-0.2-1.7,0.1-1.7,0.1c-0.9,0-0.6-2.9-0.5-3.5c0.1-0.9,0.3-0.5,0.9-0.6
	c0.2,0,0.3-0.1,0.4-0.2c0.3,0,0.6-0.1,1-0.1c1,0.1,2,0,3,0c0.9,0,1.9,0.3,2.8,0.3c0.9,0,1.9-0.1,2.8-0.2c0.4,0,1.1-0.2,1.4,0
	c0.2,0.1,0.1,0.4,0.4,0.4c-0.5,0.5,0,1.2,0,1.7c0,0.2-0.2,0.2-0.2,0.4c0,0.3,0,0.7,0,1c0,0.6,0.4,0.7-0.4,0.8c-0.7,0.1-1.6,0-2.3,0
	c0-0.2,0.2-0.2,0.2-0.4c-0.5,0.3-0.2,0.8-0.1,1.2c0.1,0.2,0.1,0.5,0.3,0.7c0.1,0.1,0.4-0.1,0.6,0.1c0,0.1-0.2,0.3-0.2,0.5
	c-0.3,0.1-0.3,0.2-0.1,0.5c0.1,0.3,0.2,0.6,0.3,0.9c0.1,0.4,0.2,0.9,0.4,1.3c0.4,0.7,0.6,1.9,1.2,2.6c0.7,0.9,1.1-0.3,1.4-1
	c0.6-1.4,1.2-2.8,1.8-4.2c0.3-0.6,1.3-1.9,0.6-2.3c-0.4-0.2-0.7,0.2-1,0.1c-0.4,0-0.5-0.4-1-0.4c0.2-0.2-0.1-0.2-0.2-0.3
	c-0.2-0.3-0.2-0.7-0.1-1.1c0-1,0.2-1.9,0.1-2.8c0,0,8.4,0.1,9.2,0.1c1.9,0,1.7,1.9,1.2,3.4c-0.1,0.3-0.4,0.9-0.5,1
	c0.1-0.1-1.2,0-1.1,0c0,0,0.2,0,0.2,0c0.1-0.1-1.1,0-1.2,0c0,0.2,0.4,0.2,0.4,0.4c0,0.2-0.2,0.2-0.2,0.4c0.2,1.1,0.7,2.3,1.1,3.5
	c0.4,1.1,0.7,2.2,1.1,3.3c0.2,0.5,0.4,1.5,0.7,1.9c0.1,0.1,0.4,0.3,0.4,0.4c0.2-0.2,0.5-0.1,0.7-0.2c0.3-0.2,0.2-0.4,0.3-0.7
	c0.3-0.8,0.5-1.7,0.9-2.5c0.5-0.9,0.4-1.5,0.9-2.6c-0.4,0-0.9,0.5-0.5-0.2c0.1-0.2,0.4-0.5,0.7-0.3c0.1-0.5,0.3-1,0.5-1.5
	c0.1-0.3,0.1-0.6,0.3-0.8c0.1-0.1,0.3,0,0.4-0.1c0.2-0.3-0.1-1,0.1-1.2c-0.8,0.4-1.6-0.2-2.4,0.2c0-0.4-0.1-0.1-0.4-0.2
	c-0.6-0.3-0.3,0-0.4-0.6c0-0.2-0.1-0.7-0.2-0.9c-0.2-0.4,0.1-0.2-0.5-0.2c0-0.3,0.3-0.7,0.6-0.7c0,0-0.1,0-0.2,0
	c0.5-0.2-0.2-1.1,0.1-1.5c0.2-0.3,1.1-0.3,1.4-0.4c0.8-0.1,1.7,0.1,2.6,0c0.3,0,0.5-0.2,0.9-0.2c0.7,0,1.3,0.2,2,0.2
	c0.9,0,2-0.1,2.9,0.1c0,0,0.4,0.2,0.4,0.2c0.2,0.1,0.2-0.1,0.3-0.1c1,0.4,0.6,1.7,0.5,2.5c0,0.5,0.1,1.2-0.1,1.6
	c0.1,0.5,0,0.6-0.5,0.5c-0.2,0-0.4,0-0.6,0.1c-1.1,0.1-1.5,0.2-2.2,1c-0.7,0.8-0.8,1.9-1.2,2.8c-0.8,1.8-1.9,3.6-2.3,5.6
	c-0.4,1.8-1.1,3.6-1.6,5.4c-0.3,1-0.7,1.9-1.2,2.8c-0.4,0.8-0.6,1.9-1.4,2.5c0,0-1.2,0.1-1.2,0.1C109.2,25.1,109.3,25.6,109.5,25.6z
	 M84.7,1.9c0,0.2,0,0.3,0,0.5c0.7-0.4,1.5-0.9,2-1.6C85.9,1,85.4,1.7,84.7,1.9C84.7,2,85.1,1.8,84.7,1.9z M84.7,0.9
	c0,0.1-0.1,0.7,0.1,0.7c0.2-0.3,0.6-0.7,0.9-0.9C85.3,0.7,85.1,0.9,84.7,0.9C84.7,1,85,0.9,84.7,0.9z M84.9,3.8c0,0,0.1-0.3,0.1-0.3
	c-0.2-0.2-0.3,0.3-0.3,0.4C84.7,3.9,84.8,3.9,84.9,3.8z M85.1,3.3c1.2-0.6,2.2-1.6,3.3-2.5C87.2,1.6,86.1,2.4,85.1,3.3
	C85.7,3,85.6,2.9,85.1,3.3z M86.1,3.3c-0.2,0.2-0.5,0.3-0.7,0.5c0.5,0,1.1-0.7,1.5-1c0.6-0.5,1.2-1,1.8-1.5
	C87.7,1.9,87,2.9,86.1,3.3C86,3.4,86.6,3.1,86.1,3.3z M90,1.3c-1.2,1-2.4,1.8-3.6,2.8c0.9,0.5,3.4-2.6,4.1-3.1c-0.2,0-0.5,0-0.7,0
	C89.8,1.1,90,1.2,90,1.3C89.4,1.8,90,1.2,90,1.3z M86.8,4.8c0.2-0.1,0.3-0.1,0.3-0.3C86.8,4.5,86.8,4.6,86.8,4.8z M87,5.2
	c0,0.1,0,0.1,0,0.2c0.2-0.2,0.4-0.1,0.4-0.4C87.1,5,87.2,5.2,87,5.2z M90.6,1.7c-0.7,0.5-1.3,1-1.9,1.5c-0.4,0.4-1.3,0.7-1.5,1.2
	c1.3-0.6,2.4-1.6,3.5-2.3c0.5-0.3,0.8-0.8,1.4-1.1C91.2,1,91.1,1.1,90.6,1.7C90.2,2,90.7,1.6,90.6,1.7z M92.3,2
	c-1.6,1.2-3.8,2.4-5,4c1.5-0.8,2.4-1.6,3.5-2.5c0.4-0.3,0.8-0.8,1.2-1.1c0.2-0.1,1-0.7,1.1-0.7C92.7,1.7,92.5,1.9,92.3,2
	C91.9,2.3,92.5,1.9,92.3,2z M87.5,6.6c0.5,0.6,1.3-1,1.6-0.7c0,0-0.2-0.1-0.2-0.2c0.2,0,0.7-0.5,0.7-0.5c0.4-0.3,0.9-0.7,1.4-1
	C91,4,90.8,4.3,90.8,4c0.1,0,0.7-0.2,0.3-0.2c0.7,0,3-2.5,3.2-2.3c0-0.1,0.1-0.2,0.1-0.2c0,0-1.2,0.9-1.4,1c-0.6,0.5-1.3,1-1.9,1.5
	C89.9,4.7,88.7,5.7,87.5,6.6z M87.5,5c0,0,0.1,0.1,0.2,0.1c0.1-0.4,1.2-1.3,1.7-1.3c-0.2,0,0.1-0.3,0.1-0.3
	C89.5,3.8,87.7,4.6,87.5,5z M92,4.4c0.1-0.2,0.1-0.5,0.4-0.2c0-0.1,0-0.1,0-0.2c0.1,0,0.2,0,0.2,0.1c0.1-0.3,0.3-0.5,0.6-0.6
	c-0.5,0,0.5-0.2,0.4-0.2C94.1,3,95.4,2,95.4,1.5c-1.5,1.1-2.9,2.4-4.4,3.6c-0.6,0.5-1.3,1-2,1.5c-0.3,0.2-1.2,0.7-1.2,1.2
	c0.2-0.1,0.4-0.4,0.6-0.5c0.1-0.1,0.6-0.2,0.6-0.2c0.1-0.1,0-0.4,0.2-0.6c0.1-0.1,0.3-0.3,0.4-0.1c0-0.5,0.4-0.2,0.6-0.5
	c0.1-0.1,0-0.3,0.2-0.5c0.2-0.2,0.6-0.5,0.8-0.2c0-0.3,0.4-0.4,0.4-0.4c-0.1,0-0.1,0-0.2,0.1C91.6,4.9,91.8,4.4,92,4.4z M89.4,7.1
	c-0.8,0.4-1.7,1.3-0.9,2.1C89,8.9,89.4,8.3,89.9,8c0.1-0.1,0.9-0.6,0.7-0.6C91.3,7,91.8,6.5,92.4,6c-0.8,0.7-1.8,1.1-2.7,1.7
	c-0.2,0.1-1.2,1.3-1.2,0.5c0.1,0,0.8-0.7,1-0.9c0.3-0.3,0.7-0.5,1-0.7c0.1,0,0.3-0.1,0.4-0.1c0.1-0.1-0.1-0.4,0-0.5
	c0.1-0.1,0.4-0.1,0.5-0.2c0.6-0.4,1.3-0.9,1.8-1.4c0.3-0.2,2.4-1.8,2.1-2.1C93.3,3.8,91.4,5.5,89.4,7.1C89.2,7.2,90.4,6.3,89.4,7.1z
	 M88.8,1.5c0.3,0,0.4-0.4,0.6-0.6C89.1,0.9,88.9,1.3,88.8,1.5C88.9,1.5,88.9,1.4,88.8,1.5z M92.6,7.6c-0.7,0.7-1.7,1.3-2.5,1.9
	c-0.1,0.1-1.2,0.7-1.2,0.8c-0.1,0.2,0.2,0.2,0.2,0.4c0.5-0.5,1.2-1.3,1.8-1.3c-0.1,0-0.1,0-0.2-0.1c0.4-0.1,0.7-0.4,1.1-0.6
	c-0.1-0.1-0.1,0.1-0.1-0.1c0.4,0,1.5-0.9,1.7-1.3C93.8,6.4,92.8,7.4,92.6,7.6z M89.2,9.3c0.8-0.3,1.5-1,2-1.5
	c0.2-0.2,1.2-0.9,1.2-1.2C91.4,7.6,90,8.2,89.2,9.3C89.5,9.2,89.6,8.8,89.2,9.3z M91.2,9.6c-0.3,0.3-2.1,1.4-1.8,1.7
	c0.2-0.2,1.3-1.1,1.6-1.1c0-0.1,0-0.2-0.1-0.2c0.8,0,1.9-1.5,2.4-2C92.6,8.6,91.8,9,91.2,9.6z M93.9,8.3c-0.7,0.9-1.7,1.4-2.6,2.2
	c-0.2,0.2-1.8,1.4-1.8,1.5c0,0.2,0.9-0.4,1-0.5c0.4-0.2,1-0.5,1.4-0.8c0.2-0.1,0.4-0.4,0.6-0.6c0.5-0.4,1.2-0.9,1.6-1.5
	C93.9,8.5,94,8.3,93.9,8.3C93.5,8.8,94,8.3,93.9,8.3z M89.9,12.7c0.4,0,0.8-0.7,1-0.8c0.3-0.2,0.6-0.3,0.9-0.5
	c0.7-0.5,1.6-0.9,2.1-1.8C92.6,10.8,91.1,11.5,89.9,12.7C90.1,12.7,90.5,12.1,89.9,12.7z M93.2,11.2c-0.6,0.6-1.6,1.2-2.3,1.7
	c-0.7,0.6-0.8,0.6-0.3,1.6c1-0.4,2.2-1.5,2.9-2.2c0.2-0.2,1.6-1.7,1.3-1.9c-1,1-2,1.8-3.1,2.7c-0.3,0.2-0.9,1-1.2,0.7
	c-0.3-0.2,0.1-0.6,0.3-0.8c0.6-0.6,4.1-2.6,3.7-3.4C94.1,10.1,93.6,10.9,93.2,11.2C93,11.4,93.5,11,93.2,11.2z M92,14
	c-0.3,0.3-1.4,0.9-1.2,1.4c0.8-0.4,1.6-1.2,2.2-1.7c0.5-0.4,1-0.8,1.5-1.3c0.3-0.3,0.6-0.9,0.9-1.1c-0.4,0.2-0.9,0.8-1.3,1.1
	C93.3,13.1,92.7,13.6,92,14C91.9,14.1,93.2,13.3,92,14z M96.1,13.4c-1.1,0.6-2.2,1.3-3.3,2c-0.6,0.4-1.6,0.6-1.6,1.4
	c0.3,0,0.5-0.3,0.8-0.3c0,0-0.2-0.1-0.2-0.2c0.5,0,0.5-0.4,0.8-0.6c0.2-0.1,0.7-0.2,0.9-0.3c0.5-0.3,2.6-1.3,2.8-2
	C96.2,13.4,96.1,13.4,96.1,13.4z M96.1,14.3c-1.6,1-3.6,1.7-4.9,3c0.9-0.3,1.6-1,2.3-1.4c0.9-0.5,2-0.9,2.9-1.5
	C96.2,14.3,96.1,14.3,96.1,14.3z M95.8,15.2c-0.8,0.6-1.8,1-2.7,1.5c-0.3,0.2-1.6,0.8-1.6,1.2c0.1,0,0.6-0.2,0.4-0.2
	c0.5,0.1,1.1-0.6,1.5-0.8c0.5-0.3,1.1-0.5,1.6-0.8c0.1-0.1,0.1-0.2,0.2-0.3c0.3-0.2,0.5-0.2,0.8-0.5C95.8,15.4,95.8,15.2,95.8,15.2z
	 M93.9,17.5c0.5-0.5,1.2-0.6,1.6-1.2c-0.5,0-1.1,0.4-1.7,0.7c-0.6,0.3-1.7,1.2-2.4,1.2c0.6,0.6,0.1,0.6,0.8,0.1
	c0.2-0.2,0.6-0.4,0.9-0.3C93.1,17.6,93.6,17.5,93.9,17.5C94.1,17.3,93.7,17.5,93.9,17.5z M91.9,15.3C92,15.3,92,15.2,91.9,15.3
	C92,15.3,91.9,15.3,91.9,15.3z M92,19.3c0,0.1,0,0.1,0,0.2c0.2-0.2,1.1-0.6,1.1-0.6c0.2,0,0.7-0.5,0.7-0.5c0.3,0,0.1-0.3,0.5-0.1
	c0-0.1,0-0.1,0-0.2c0.1-0.1,0.3-0.3,0.5-0.1c-0.1,0-0.2,0-0.2,0.1c0.2,0,0.4-0.4,0.6-0.5c0.2-0.1,0.5-0.1,0.7-0.2
	c0.3-0.1,1.2-0.5,1.4-0.9c0,0,0.9-0.9,0.9-0.4c0-0.3,0-0.1,0.2-0.2c0,0-0.1-0.1-0.1-0.1c0.6,0,0.9-0.7,1.6-0.7c-0.1,0-0.1,0-0.2-0.1
	c0.4,0,1.9-0.8,1.9-1.2C98.3,15.5,94.9,17.1,92,19.3z M92.1,19.8c0,0.2,0.1,0.6,0.3,0.8c0.3-0.3,0.7-0.4,1-0.6
	c0.3-0.2,0.7-0.5,1.1-0.7c0.8-0.5,1.6-0.9,2.4-1.3c0,0.2-0.1,0.1-0.2,0.1c0.2-0.1,2.1-0.9,2.1-1.1c-0.1,0-0.1,0-0.2,0
	c0.1,0,0.9-0.4,0.7-0.4c0.2,0,0.4-0.1,0.6-0.2c-0.1,0-0.2,0.1-0.3,0.1c0.1,0,0.8-0.5,1-0.6c0,0-0.1-0.1-0.1-0.1
	c0.4,0,0.6-0.1,0.9-0.3c-0.1,0-0.2,0-0.3,0c0.5,0,1.7-0.8,1.9-1.2c-1.8,1-3.8,1.8-5.6,2.9c-0.8,0.4-1.6,0.9-2.4,1.3
	c-0.4,0.2-1.6,1.1-2,0.9c0-0.2,0.3-0.3,0.4-0.3C92.7,19,92.6,19.8,92.1,19.8C92.1,19.9,92.3,19.8,92.1,19.8z M92.5,15
	c0.9-0.4,1.7-1.1,2.5-1.7c0.3-0.2,0.8-0.4,0.8-0.7c0-0.1-0.2-0.3-0.2-0.5C94.6,13.2,93.3,13.9,92.5,15C93.1,14.7,92.9,14.5,92.5,15z
	 M100.5,17.4c0.4-0.4,1-0.5,1.3-0.8c0.2-0.2,0.2-0.7,0.4-0.9c-3.3,1.8-6.6,3.7-9.9,5.5c0.3,0,0.1,0.3,0.3,0.3
	c0.4,0.1,1.3-0.7,1.7-0.8c-0.1,0-0.1,0-0.2,0c0-0.1,1.4-0.7,1.5-0.8c-0.1,0-0.1,0-0.2,0c0.2-0.2,0.2,0.1,0.4,0c0,0,0.6-0.4,0.6-0.4
	c0.2-0.1,0.8-0.4,1.1-0.4c-0.1,0-0.1,0-0.1-0.1c0,0,0.4,0.2,0.4,0.2c0.3-0.2-0.2-0.2,0.1-0.4c0.1-0.1,0.9-0.1,0.6-0.4
	c0.4,0,1-0.8,1.3-0.5c0,0-0.2-0.1-0.2-0.2C100,17.7,100.2,17.4,100.5,17.4C100.6,17.3,100.4,17.4,100.5,17.4z M97,20.5
	c0.2-0.4,0.6-0.4,0.9-0.5c0.8-0.3,1.6-0.7,2.3-1.1c0.4-0.2,1-0.4,1.2-0.7c0.3-0.3,0.3-0.7,0.4-1.1c-2.9,1.6-6.1,2.8-8.9,4.7
	c0.3,0.3,0.2,0.8,0.4,1.1c0.5,0.4,0.2,0.1,0.6,0c0.3-0.1,0.8-0.4,1.3-0.6c-0.1,0-0.1,0-0.2,0c0.9-0.3,1.5-0.8,2.3-1.2
	c1-0.5,3.6-1,3.6-2.3c-1.1,0.4-2.1,1.1-3.2,1.6c-1,0.5-2.3,0.9-3.1,1.7c0.1,0,0.1,0,0.2,0c-0.3,0-1.1,0.9-1.2,0.1
	c0-0.3,1.6-0.9,1.3-0.9c0,0,0.6-0.2,0.4-0.2C96,21.1,96.2,20.5,97,20.5z M95.3,23.5c1-0.2,2-0.9,2.7-1.3c0.5-0.3,2.6-1,2.6-1.8
	c-2.3,1-4.6,2-6.8,3.2c0.2,1.3,1.2-0.4,1.4-0.2c0,0,0,0.1,0,0.2c0.1,0,0.1-0.1,0.1-0.2C95.1,23.6,95.1,23.6,95.3,23.5
	C95.7,23.4,95.2,23.6,95.3,23.5z M94.1,4.4c0.4,0,1.1,0,1.4-0.2c-0.3-0.3,0-0.6,0-0.9C95.1,3.7,94.5,4.1,94.1,4.4
	C94.3,4.4,94.4,4.2,94.1,4.4z M94.2,24.9c0.2,0,0.5-0.2,0.6-0.3C94.5,24.6,94.2,24.6,94.2,24.9C94.3,24.9,94.2,24.8,94.2,24.9z
	 M94.8,24.5c0.4,0,1-0.5,1.2-0.4c0.2-0.2,0.5-0.3,0.8-0.4c-0.4,0,0.8-0.4,0.4-0.4c0.5,0,3-1.1,3-1.4C98.4,23,96.5,23.4,94.8,24.5
	C95,24.5,95.6,24,94.8,24.5z M95.5,25.2c0.4,0,0.7-0.4,1-0.6c0.5-0.3,3-0.9,3-1.5c0,0-2.4,1-2.7,1.2c-0.2,0.1-1.3,0.4-1.4,0.6
	C95.3,25.1,95.5,25.1,95.5,25.2C95.6,25.2,95.5,25.1,95.5,25.2z M101.6,13c0.8-0.5,1.6-0.8,2.4-1.2c0.5-0.2,2.6-1.1,2.6-1.6
	c0-0.3-1.6,0.7-1.9,0.9c-0.9,0.6-2,1.2-3,1.8c-1.1,0.7-2.1,1.4-3.2,2.1c-0.8,0.5-2.5,1-2.9,1.8c0.2,0,0.9-0.1,0.6-0.4
	c0.2,0,0.3,0.1,0.3,0c0.5-0.2,0.9-0.5,1.4-0.7c-0.1,0-0.1,0-0.2,0c0.1,0,1.1-0.4,1.1-0.4c0,0,0.3-0.2,0.4-0.3c0,0-0.2,0-0.2,0
	c0-0.3,0.5-0.1,0.6-0.4c0.1,0,0.2,0,0.3,0.1c0-0.3,0.4-0.4,0.6-0.5c0.4-0.1,0.5-0.2,0.5-0.4C101.9,13.8,101.2,13.3,101.6,13z
	 M96.5,25.4c0.2-0.1,0.3-0.1,0.5,0c0-0.1,0-0.2,0.1-0.2c0.1-0.1,0.3-0.1,0.4-0.2c0.6-0.4,1.2-0.6,1.7-1
	C98.2,24.5,97.3,24.8,96.5,25.4C96.6,25.3,96.9,25.1,96.5,25.4z M96.6,19.5L96.6,19.5c0.1-0.1-0.1,0.1,0.1-0.1
	C96.8,19.4,96.7,19.4,96.6,19.5z M101.3,12.2c0-0.2,0.5-0.3,0.6-0.4c0.4-0.3,1-0.7,1.5-1c0.8-0.5,2.1-1.9,3-1.8c0-0.2-0.3,0-0.1-0.2
	c-1.5,0.5-2.8,1.7-4.2,2.5c-1,0.7-2.1,1.3-3.2,1.9c-0.6,0.4-1.9,0.9-2.1,1.5c0.3-0.1,1.2-0.4,1.2-0.8c0,0.1,0,0.2,0.1,0.2
	c0,0,0-0.2,0-0.2c0.1,0,0.2,0.1,0.3,0.1c0.1-0.1-0.2-0.1-0.2-0.2c0.3,0,0.9-0.7,1.1-0.5C99,13.2,101,12.5,101.3,12.2
	C101.3,12.1,101.2,12.3,101.3,12.2z M105,9c0.3-0.3,0.7-0.6,1.2-0.6c0-0.2-0.2-0.4-0.2-0.6c-1.6,1.1-3.2,2.2-4.8,3.2
	c-1.1,0.7-3.5,1.6-3.9,3c0.7,0,1.8-1,2.2-1.4c0,0,0.1,0.1,0.1,0.1c0,0,0.9-0.7,1.1-0.7c-0.1,0-0.2-0.1-0.2,0.1c0.3,0,1.5-0.9,1.5-1
	c0.2,0,0.4-0.2,0.4-0.4c0.5,0,0.9-0.5,1.4-0.8c-0.1,0.1-0.2,0.1-0.2,0.2C103.9,9.7,104.4,9.2,105,9C105.1,8.9,104.7,9.1,105,9z
	 M101.3,10.2c0.4,0,1.6-1,1.6-1.1c-0.1,0-0.3,0.2-0.3,0c0.2,0,0.6-0.1,0.8-0.3c-0.1,0-0.2,0-0.2-0.1c0.5,0,1.6-0.9,2-1.2
	c0.2-0.1,0.7-0.9,0.4-0.9c-2.7,1.8-5.6,3.5-7.9,5.8c0.2,0,0.6,0.1,0.2-0.1c0.4,0,1.2-0.4,1.2-0.8c0,0.1,0,0.2,0.1,0.2
	c0-0.1-0.1-0.2-0.1-0.2c0-0.2,0.3,0.1,0.3,0.2c0-0.4,1.3-1.1,1.8-1.1c-0.1,0-0.1,0-0.2-0.1C101.1,10.4,101.6,10.2,101.3,10.2z
	 M97.9,25.5c0.2,0,0.6,0.1,0.7,0.2c0-0.1,0.1-0.5,0.1-0.5C98.3,25.2,98.1,25.4,97.9,25.5z M103.7,7.6c0,0-0.2-0.1-0.2-0.2
	c0.4,0,0.4-0.1,0.6-0.3c0.4-0.2,1-0.9,1.4-1.3c-1.6,0.9-3,2.1-4.5,3c-1.3,0.8-2.2,1.3-2.7,2.8c0.2-0.2,1.7-1.5,1.6-1.6
	c0.3,0,0.6-0.2,0.8-0.3c-0.1,0-0.2,0-0.2-0.1c0.2,0,0.2-0.2,0.3-0.2c0,0.1,0,0.1,0,0.2c0.2,0,0.7-0.5,0.9-0.7c0.2-0.2,1-0.6,0.8-0.7
	c0.3,0,0.8-0.5,1-0.7C103.4,7.6,103.4,7.6,103.7,7.6z M98.5,1.7c0.4-0.2,0.6-0.5,0.8-0.9C98.4,0.8,98.5,0.8,98.5,1.7z M101,1.3
	c-0.5,0.5-2.5,1.5-2.5,2.2c0.8-0.6,1.5-1.3,2.4-1.7c-0.1,0-0.1,0-0.2,0c0.2-0.2,1-0.3,1-0.7C101.4,1.1,101.3,1.3,101,1.3
	C100.7,1.6,101.2,1.3,101,1.3z M100.4,0.8c0,0.1-1,0.9-1.2,1c0,0-0.8,0.7-0.5,0.7c0.3,0,1-0.7,1.2-0.8c0.4-0.3,0.7-0.6,1.1-0.9
	C100.8,0.8,100.5,0.8,100.4,0.8z M99.7,3.1c-0.3,0.3-1.2,0.6-1.2,1.1c0.4,0,1-0.6,1.2-0.7c0.3-0.2,0.6-0.4,0.8-0.5
	c0.5-0.3,1.1-0.6,1.6-1c0.2-0.2,0.4-0.4,0.7-0.6c0.3-0.2,0.6-0.3,0.8-0.5C102.1,1.3,100.9,2.4,99.7,3.1z M100.1,8.2
	c-0.5,0.2-0.7,0.6-0.9,1.1c0.3,0,0.7-0.5,1-0.7c0.3-0.2,0.9-0.7,1.3-0.7c0,0-0.2-0.1-0.2-0.2c0.5-0.2,2.2-1.2,2.2-1.3
	c0-0.4,1.4-0.9,1.4-1.2c0,0.2-2.1,1.3-2.4,1.4C101.7,7.1,100.9,7.7,100.1,8.2C99.9,8.3,100.9,7.7,100.1,8.2z M104.7,13
	c0-0.5,0.7-0.2,0.9-0.4c-0.1,0-0.1,0-0.1-0.1c0.4,0,1.4-0.8,1.7-1.1c-0.1-0.1-0.1-0.2-0.2-0.2c-0.1,0-0.4,0-0.2,0
	c-1.1,0-2.8,1.5-3.7,2.2c-0.6,0.4-1.2,0.8-1.7,1.2c-0.5,0.3-1.3,0.7-1.6,1.2c0.2-0.2,0.6-0.2,0.9-0.4c0-0.1,0.1-0.2,0.3-0.3
	c0.2-0.1,0.5-0.1,0.7-0.1c0.2-0.1-0.2-0.3-0.2-0.3c0.4,0,0.2-0.1,0.5-0.2c0.3-0.1,0.1,0.1,0.3,0.1c0-0.1,0.1-0.1,0.2-0.2
	c-0.1,0-0.2,0-0.2-0.1c0.2,0,0.7-0.2,0.8-0.3c0.2-0.1,0.5-0.1,0.6-0.1c-0.1,0-0.1,0-0.2,0c0.2-0.1,0.4-0.2,0.5-0.4
	C104.2,13.6,104.7,13,104.7,13z M99.7,7.7c0,0.1,0,0.1,0,0.2c0,0.1,0.3-0.2,0.3-0.2C99.9,7.7,99.8,7.7,99.7,7.7z M101.3,3.5
	c0-0.1,0.8-0.7,1.2-0.9c-0.1,0-0.1,0-0.1-0.1c0.3,0,0.6-0.1,0.8-0.4c0,0.1,0,0.1,0,0.2c0-0.5,1.1-0.6,0.9-0.9c0.4,0,0.8-0.5,0.9-0.8
	c-1,0.3-1.8,1-2.6,1.5c-0.8,0.5-1.8,0.9-2.5,1.7c0.3,0,0.4-0.1,0.7-0.2c0.1-0.1,0.2-0.2,0.3-0.2C100.9,3.6,101.1,3.6,101.3,3.5
	C101.3,3.6,101.1,3.6,101.3,3.5z M100.6,6.7c0,0.1,0.1,0.3-0.1,0.3C100.5,6.9,100.5,6.9,100.6,6.7c-0.4,0.4-0.7,0.5-0.7,0.9
	c0.1,0,0.2,0,0.3,0.1c0.1,0.1,0.2,0,0.3-0.3c0.3-0.1,0.6-0.2,0.9-0.4c-0.1,0-0.1,0-0.2,0c0.3,0,0.6-0.3,0.9-0.5
	c0.2-0.1,1.3-0.8,0.9-0.8c0.4,0,1.1-0.5,1.2-0.6c0,0,1.1-0.6,0.7-0.6c-0.1,0,1-0.4,0.9-0.3c0.2-0.2,0.4-0.8,1-0.8
	c0,0-0.2-0.1-0.2-0.2c0.5-0.5,1.2-0.5,1.4-1.2C105.4,3.4,103,5.1,100.6,6.7z M106.7,1.5c-0.9,0.9-2.2,1.8-3.3,2.5
	c-1,0.6-2.7,1-2.7,2.4c0-0.4,1.7-1.2,2-1.4c1-0.6,1.9-1.1,2.8-1.8c0.9-0.7,2.4-1.2,2.4-2.4C107.5,0.8,107,1.1,106.7,1.5z M100.9,15
	c0.1,0,0.3,0.1,0.3-0.1C101.1,15,101,15,100.9,15z M105.8,0.8c-1.1,1.7-3.5,2-4.9,3.4c0.5,0,0.3,0.2,0.7,0.2c0.6,0,1.5-0.9,1.9-1.3
	c0.9-0.7,2.1-1.5,3.1-2.4C106.3,0.7,106,0.8,105.8,0.8C105.6,1.1,106,0.8,105.8,0.8z M104.3,14.4c0,0.4-0.7,0.4-0.7,0.9
	c0.2,0,0.6-0.2,0.4-0.4c0.7,0,1.2-0.6,1.8-1c0.6-0.4,1.6-0.5,1.9-1.2C106.5,13.3,105.5,14,104.3,14.4z M106,15.5
	C106,15.2,106,15.4,106,15.5c0.3-0.4,1-0.6,1.5-0.8c1-0.4,0.5-0.3,0.5-1.2c-1,0.3-2,0.9-2.7,1.6c0.7-0.3,1.3-0.9,2.1-1.1
	c0.5-0.1,0.8-0.1,0.5,0.4c-0.2,0.4-1.5,0.6-1.8,0.7c-0.8,0.3-1.5,0.7-2.2,1.2c0.4,0,1-0.4,1.2-0.4C105.5,15.9,105.5,15.3,106,15.5
	C106,15.4,105.8,15.4,106,15.5z M104.1,14.1c0.3-0.1,3.5-1.7,3.2-2c-1.1,0.7-2.2,1.3-3.4,1.9C104,14,104,14,104.1,14.1z M104.1,16.9
	c0,0.2,0,0.4,0.1,0.5c0-0.2,0.1,0,0.2-0.1c0.1-0.1-0.2-0.1-0.2-0.2c0.3,0.1,0.6-0.1,0.8-0.2c1.1-0.5,2.3-1.5,3.5-1.5
	C108.5,14.4,104.6,16.6,104.1,16.9C104.1,17,104.8,16.5,104.1,16.9z M106.1,17c-0.2,0.1-1.9,0.8-1.8,0.9c0.3,0.4,0.7-0.1,1-0.3
	c0.4-0.2,1.2-0.5,1.6-0.8c-0.1,0-0.2,0-0.2,0.1c0.1-0.1,0.6-0.5,0.8-0.3c0-0.2,0.8-0.6,1.1-0.7C107.7,16,106.8,16.6,106.1,17
	C105.8,17.1,106.5,16.8,106.1,17z M108.1,17.6c-0.2,0,0.5-0.4,0.4-0.1c0.1,0,0.1-0.2,0.1-0.2c0.2,0,0,0.1,0.2,0
	c0-0.1-0.1-0.1-0.1-0.2c0.1,0,0.3,0,0.4,0c0-0.2-0.2-0.4-0.2-0.6c-1,0.3-1.9,0.9-2.8,1.4c-0.4,0.2-1.7,0.5-1.3,1c0.2,0.2,1,0,1-0.3
	c0,0,0,0.1,0,0.1c0.1-0.2,0.4-0.4,0.6-0.4c0,0.1,0,0.1,0.1,0.1c0-0.1,0-0.1,0-0.2c0.3,0.3,0.8-0.7,1.2-0.3
	C107.7,17.7,107.9,17.6,108.1,17.6z M109,17.6c0,0.2-0.1,0.4-0.3,0.4c0-0.4-2,0.6-2.3,0.8c-0.2,0.1-1.6,0.5-1.6,0.6
	c-0.1,0.2,0.2,0.6,0.4,0.4c-0.1,0-0.1,0-0.2,0c0.5,0,3.6-1.6,3.8-1.4c-0.1,0-0.1,0-0.1-0.1c0.5,0,1.2-0.5,1.6-0.7
	c0.9-0.4,2.5-1,3.2-1.9C111.9,16.3,110.5,17,109,17.6C109,17.7,109.8,17.3,109,17.6z M105.1,20.4c0,0.4,1.1-0.4,1.1-0.5
	C105.6,19.9,105.5,20.4,105.1,20.4C105.1,20.5,105.3,20.4,105.1,20.4z M108.6,19.5c-0.5,0.2-3.2,1-3.2,1.8c0.2,0,0.9-0.2,1.1-0.3
	c0,0,0-0.2,0-0.2c0.6-0.3,1.6-0.6,2.3-0.9c0.9-0.5,1.9-1,2.8-1.5c0,0-0.1,0-0.1,0c0.4-0.4,1.4-0.5,1.7-1
	C111.6,18.1,110,18.7,108.6,19.5C108.3,19.6,109.3,19.1,108.6,19.5z M109.1,20.4c0.2-0.2-0.1,0-0.1-0.2c0.8-0.2,1.5-0.6,2.2-1
	c-1.3,0.5-2.6,1.1-3.8,1.6c-0.3,0.1-1.7,0.5-1.9,0.8c-0.1,0.1,0.2,0.4,0.2,0.6c0.2-0.2,0.5-0.4,0.7-0.5c0.1-0.1,0.2,0.1,0.3,0
	c0.1-0.1-0.1-0.1-0.1-0.2c0.4,0,1-0.5,1.4-0.7C107.5,20.8,109.1,20.4,109.1,20.4h-0.2C109,20.4,109,20.4,109.1,20.4z M105.8,22.9
	c0.3,0.7,2-0.5,2.4-0.6c0.5-0.2,4.6-1.5,3.9-2.2C110.1,21.3,107.9,22.1,105.8,22.9C105.9,23.1,106.9,22.5,105.8,22.9z M106.7,23.5
	c-0.2,0-0.4,0.1-0.4,0.3c0.9,0,2-0.8,2.9-1.1c0.8-0.3,1.9-0.7,2.5-1.3c-0.7,0.2-1.4,0.7-2.1,0.9C108.6,22.7,107.5,22.9,106.7,23.5
	C106.6,23.5,107,23.3,106.7,23.5z M106.4,24.3c0,0.1,0.1,0.5,0.3,0.5c0.1-0.5,1.1-0.8,1.6-1c0.1,0,1.3-0.5,1.3-0.6
	C109.5,23.3,106.6,24.2,106.4,24.3C106.4,24.4,106.9,24.1,106.4,24.3z M106.6,4c0.4,0,0.8-0.2,1.2,0c0-0.3,0-0.5,0-0.8
	C107.4,3.6,107,3.8,106.6,4C106.8,4,106.8,3.9,106.6,4z M106.9,22c0.2,0.2,0.5-0.2,0.8-0.1c0.1-0.3,0,0,0.3-0.2c0,0-0.1-0.1-0.1-0.1
	c0.5,0,1.1-0.4,1.5-0.6c1-0.4,2-1.3,3-1.8C110.6,20.2,108.7,21,106.9,22C107,22.1,107.8,21.5,106.9,22z M109.1,24.2
	c0.3-0.3,1.6-0.8,2-0.8c-1.3,0.2-2.6,0.8-3.8,1.5c0.4,0,1.3-0.8,1.6-0.5C108.6,24.2,109,24.3,109.1,24.2z M108.7,24.9
	c0.6,0.2,0.9-0.3,1.4-0.5C109.6,24.6,109.1,24.7,108.7,24.9C109,25,108.9,24.8,108.7,24.9z M109.7,16.1c0,0.2-0.2,0.5,0,0.7
	c0,0-0.3,0-0.3,0.1c0,0.3,1.2-0.3,1.4-0.4c0.7-0.3,1.3-0.8,2-1.1c0.3-0.2,0.7-0.3,1.1-0.5c0,0,0.2,0.2,0.3,0.2
	c0-0.2,0.2-0.4,0.2-0.6C112.8,14.8,111.1,15.5,109.7,16.1C109.7,16.2,110.4,15.8,109.7,16.1z M109.9,23c0.1,0,0.4-0.1,0.4-0.2
	C110.2,22.8,109.7,23.2,109.9,23C110,23,109.8,23.1,109.9,23z M109.9,25.3c0.1,0,0.1,0,0.2-0.1c0.1,0-0.1,0.2,0.1,0.1
	c0.2-0.1,0-0.1,0.3-0.1c-0.2,0,0-0.1,0-0.2C110.2,25,110,25.1,109.9,25.3C110.1,25.2,110,25.1,109.9,25.3z M110.4,14.4
	c0,0.3-0.2,0.6-0.3,0.9c0.2,0,0.2-0.1,0.3-0.2c0,0.2,0.4,0,0,0c0.4,0,0.7-0.3,1.1-0.4c0.5-0.3,1.2-0.5,1.6-0.7
	c0.1-0.1,2.1-0.9,1.6-1.3C113.2,13.1,111.7,13.7,110.4,14.4C110.4,14.6,111.2,14,110.4,14.4z M111.4,22.5c-0.3,0-0.7,0.1-0.9,0.3
	C110.8,22.8,111.1,22.6,111.4,22.5C111.2,22.5,111.2,22.6,111.4,22.5z M110.6,18C110.7,18,110.7,18,110.6,18L110.6,18z M110.8,0.9
	c0,0.2,0.2,0.3,0,0.5c0.1,0,0.4,0.1,0.4-0.1c-0.1,0-0.1,0-0.1-0.1c0.2-0.1,0.5-0.3,0.7-0.3C111.4,0.9,111.1,0.9,110.8,0.9
	C110.8,1,110.9,0.9,110.8,0.9z M110.8,3.7c0,0.4,0.8-0.3,0.9-0.3C111.3,3.4,111.1,3.7,110.8,3.7C110.8,3.8,111,3.7,110.8,3.7z
	 M112.6,1.2c-0.4,0.4-1.7,0.8-1.6,1.4c0,0,0.9-0.5,1-0.6c0.3-0.2,1.2-0.7,1.3-1c0,0-0.1,0-0.1,0c0.2,0,0.4-0.2,0.6-0.3
	C113.1,0.5,112.9,0.8,112.6,1.2z M112.5,12.1c0,0,0.7-0.4,0.5-0.3c0.3-0.2,0.6-0.3,0.9-0.5c0.6-0.3,1.4-0.4,1.7-1.1
	c-1.2,0.4-2.6,1.1-3.6,1.8c-0.1,0-0.9,0.6-0.9,0.7C111.6,12.7,112,12.3,112.5,12.1C112.6,12,112.3,12.2,112.5,12.1z M115.3,1.2
	c-0.9,0.3-1.8,0.8-2.6,1.2c-0.2,0.1-1,0.5-1.1,0.7c0,0,0.1,0.4,0.1,0.4c0.4-0.2,0.7-0.4,1.1-0.6c0-0.2,0.1-0.3,0.3-0.3
	c0.1,0,0.3,0,0.4,0c0,0,0.8-0.6,0.8-0.6c0.6-0.1,1.3-0.9,2-1.1c-0.3,0-0.4-0.1-0.6-0.1C116,1.1,115.4,1.1,115.3,1.2
	C115,1.3,115.4,1.1,115.3,1.2z M113.9,9.6c-0.7,0.4-1.4,0.6-2,1.2c0.9-0.3,1.7-0.9,2.5-1.3c0.5-0.2,1.1-0.4,1.5-0.7
	c0,0,0.7-0.3,0.5-0.3c-0.3,0-0.4,0.2-0.7,0.3C115.1,9.2,114.5,9.3,113.9,9.6C113.6,9.8,114.3,9.4,113.9,9.6z M112.2,18.6
	c0.2,0,0.2,0.2,0.4,0.2c0-0.2,0.2-0.3,0.2-0.5C112.5,18.3,112.4,18.6,112.2,18.6z M114.4,3.3c-0.1,0,0.3-0.1,0.4-0.2
	c0,0-0.1,0-0.1,0c0.3-0.3,0.8-0.3,1.2-0.5c0.1-0.1,0.2-0.5,0.7-0.3c-0.2-0.4,1.7-1.3,2.1-1.5c-0.8-0.2-1.7,0.8-2.4,1.1
	c-1.2,0.6-2.4,1.2-3.6,1.9c0.3,0,0.8-0.3,1-0.1C113.7,3,114.4,3.6,114.4,3.3C114.3,3.3,114.4,3.4,114.4,3.3z M113.4,7.8
	c-0.3,0-0.5,0.2-0.7,0.4c0.6,0,1.5-0.7,1.9-0.9c0.5-0.2,1-0.5,1.4-0.7c0.3-0.2,1.3-0.6,1.4-1C116,6.2,114.8,7.2,113.4,7.8
	C113.3,7.8,114.1,7.5,113.4,7.8z M112.8,9.1c0.2-0.2,0.7-0.3,0.8-0.6C113.4,8.5,112.8,8.9,112.8,9.1C112.9,9,112.8,9,112.8,9.1z
	 M113.1,7c0,0.2-0.2,0.4-0.2,0.6c0.8-0.4,1.3-0.7,2.1-1.1c0.7-0.3,1.8-0.8,2.3-1.4C115.9,5.8,114.4,6.3,113.1,7
	C113.1,7.1,113.8,6.6,113.1,7z M117.3,3.7c0.3-0.2,1.3-0.8,1.2-0.9c0.4,0,2.3-1.3,2.4-1.6c-1.4,0.9-2.8,1.6-4.2,2.4
	c-0.8,0.4-1.5,0.7-2.3,1.1c-0.4,0.2-0.7,0.4-0.9,0.7c-0.1,0.2,0,0.3-0.2,0.5c0.3,0,0.6-0.4,1-0.4c0,0-0.3,0.1-0.1,0.1
	c0,0,0.6-0.5,0.9-0.5c-0.1,0-0.3,0-0.3-0.1c0-0.1,1.2-0.6,1.3-0.7C116.4,4.2,116.9,4,117.3,3.7z M115,3.5c-0.1,0-1.2,0.5-1,0.7
	c0,0.1,0.5,0,0.6,0c0-0.1,0-0.1-0.1-0.1c0.4,0,0.7-0.3,1-0.5c0.5-0.3,1.1-0.4,1.5-0.6c0.2-0.1,0.2-0.3,0.4-0.4c0.2-0.1,0.4,0,0.5,0
	c0,0,0.4-0.4,0.4-0.4c0.5-0.4,1.4-0.7,1.9-1.2C118.5,1.8,116.7,2.6,115,3.5C114.9,3.5,115.8,3.1,115,3.5z M115.7,1.7
	c-0.5,0.3-1,0.7-1.6,0.9c0.2,0,1-0.2,1-0.3c-0.1,0-0.1,0-0.2,0.1C114.9,2.4,115.7,1.9,115.7,1.7C115.4,1.9,115.7,1.8,115.7,1.7z
	 M114.1,6.2c0.4,0,0.8-0.4,1.1-0.6c0.4-0.2,0.8-0.2,1.1-0.3c0.1,0,0.3-0.2,0.5-0.3c0.1,0,0.1-0.1,0.2-0.1c1.4-0.5,2.4-1.5,3.9-2.2
	c-0.3,0,0.1-0.2,0-0.3c-0.3-0.2-1.4,0.7-1.8,1C117.4,4.4,115.6,5.1,114.1,6.2C114.3,6.2,115.1,5.5,114.1,6.2z M120.7,3.5
	c-0.6,0.4-1.3,0.6-1.9,1c0.5,0.2,1.7-0.3,2-0.7C120.9,3.5,120.7,3.5,120.7,3.5C120.4,3.7,120.8,3.5,120.7,3.5z"/>
<path d="M129.9,26.1c-0.2-0.1-0.2-0.3-0.2-0.5c-0.3,0-0.6,0.3-0.9,0.4c-0.1,0-0.1-0.2-0.2-0.2c0,0-0.3,0-0.4,0c-1.4-0.2-3,0-4.4,0.1
	c-0.8,0.1-1.6,0.2-2.4,0c-0.9-0.2-0.7-0.5-0.7-1.3c0.1-1.2-0.6-3-0.2-4.1c0.1,0,0.1,0.2,0.1,0.2c0.1-0.2,0.5,0.4,0.7,0.5
	c0.5,0.2,1.6-0.1,2.2,0c0-0.7,0-1.2,0.1-1.8c0.1-0.9,0-2-0.1-3c0-1.1,0.2-2.2,0.1-3.3c-0.1-0.8-0.1-0.7-0.7-0.7
	c-0.3,0-1.3,0.1-1.5,0c-0.2-0.2-0.1-1.3-0.1-1.5c0-0.4,0.1-1,0-1.4c0-0.2-0.3-0.8-0.3-0.9c0.2-0.5,2.1-0.2,2.6-0.2
	c0.4,0,0.7,0,1-0.1c0.1,0,0.2-0.2,0.4-0.2c0.1,0,0.6,0.1,0.7,0.1c0.1,0,0.2,0.2,0.3,0.2c0.7,0.1,1.6,0.3,2.3,0.4
	c0.4,0,0.6,0,0.9,0.1c0.6,0.2,0.6,0.4,0.7,1c0.2,1,0,2.3,0,3.4c0.1,1.3,0.4,3,0.2,4c0,0,0.1,0.3,0.1,0.3c0-0.1-0.3,0.5-0.3,0.5
	c-0.2,0.8,0.3,1.8,0,2.6c0.4,0,0.8,0.1,1.3,0.2c0.7,0.1,0.8,0,0.8,0.7c0.1,1,0.1,1.9,0.2,2.9c0,0.7,0.2,1.5-0.7,1.6
	c-0.2,0-0.6-0.2-0.9-0.2C130.5,25.9,130.2,26,129.9,26.1C129.8,26.1,130.1,26,129.9,26.1z M121.5,21.7c0,0.3,0.2,0.6,0.2,0.9
	c0.6-0.2,1-0.8,1.6-1C122.7,21.6,122.1,21.7,121.5,21.7C121.5,21.9,121.7,21.7,121.5,21.7z M125.1,23c0.3-0.1,0.5-0.5,0.6-0.5
	c0.4-0.1,0.8-0.6,1.1-0.8c0.2-0.1,0.5-0.3,0.6-0.4c0.1-0.1,0-0.2,0-0.2c0.5-0.4,1.8-1.3,1.8-2c-1.4,1-2.7,2.1-4,3.1
	c-1.2,0.9-2.5,1.7-3.5,2.7c0.2,0.2,0.6,0,0.8,0.2c0,0.1,1.1-0.7,1.2-0.7c0.3-0.2,0.4-0.4,0.7-0.5c0.2-0.1,0.2-0.1,0.3-0.2
	C124.8,23.5,124.9,23.2,125.1,23z M122.1,8.8c-0.2,0-0.5,0.1-0.2,0.4c0,0-0.4,0.2-0.2,0.2C122,9.4,121.9,9,122.1,8.8z M123.4,21.9
	c-0.3,0.3-2,0.8-1.7,1.4c0.4-0.1,0.7-0.5,1-0.7c0.3,0.1,0.4,0.1,0.4-0.1c0-0.2,0.1-0.3,0.3-0.4c0,0,0.8-0.5,0.4-0.5
	C123.8,21.8,123.5,21.8,123.4,21.9z M123.9,22.5c0.3,0,0.3-0.1,0.5-0.3c-0.4-0.4-1.4,0.7-1.7,0.9c-0.6,0.5-0.9,0.5-0.9,1.3
	C122.5,23.7,123.3,23.3,123.9,22.5C124.1,22.5,123.6,22.9,123.9,22.5z M121.8,9.9c0,0.2,0,0.3,0.2,0.3c-0.1,0,1.5-1.3,1.6-1.5
	C122.8,8.7,122.3,9.4,121.8,9.9C121.8,10,121.9,9.8,121.8,9.9z M123.1,10.4c-0.5,0.5-1.2,0.7-1.2,1.4c0.5-0.3,0.9-0.9,1.4-1.2
	c0.2-0.2,0.5-0.4,0.7-0.6c0.2-0.2,1.1-0.8,1.1-1.1C124.4,9.4,123.7,9.8,123.1,10.4z M122.3,10.2c-0.2,0.2-0.4,0.4-0.5,0.6
	c0.3-0.2,1.9-1.3,1.9-1.7C123.3,9.5,122.8,9.9,122.3,10.2C122.1,10.3,122.6,10,122.3,10.2z M123.8,11c0.6,0,1.9-1.7,2.6-2.2
	c-1.1,0-2.9,2.1-3.7,3C123.2,11.8,123.4,11.3,123.8,11C123.7,11,123.5,11.2,123.8,11z M127.1,8.9c-1.1,0.9-2.2,1.8-3.2,2.8
	c0.9,0,1.5-0.9,2-1.4c0.5-0.5,1-0.8,1.5-1.3C127.3,9,127.1,9,127.1,8.9C126.5,9.4,127.1,9,127.1,8.9z M129.2,0.8
	c0,0.2,0,0.2-0.2,0.4c0.3,0,0.6,0.5,0.6,0.5c0.6,0,0.2-0.2,0.4,0.4c0.1,0.3,0.5,1.4,0.4,1.7c0,0-0.2-0.1-0.2,0.1
	c-0.1,0.5-0.1,0.7-0.3,1.1c-0.4,0.6-1.1,1.1-1.8,1.3c-1.2,0.3-2.9-0.5-3.6-1.5c-0.8-1.2-0.8-3.1,0.5-4C126-0.2,128.3-0.1,129.2,0.8
	C129.2,0.9,129.1,0.7,129.2,0.8z M124.3,15.2c0,0.3-0.2,0.4,0,0.6c0.3-0.3,0.6-0.6,0.9-0.9c0.1-0.1,0.3-0.2,0.4-0.4
	c0.2-0.2,0.6-0.6,0.7-0.8c0.3-0.3,1.9-1.5,1.9-2C127,13,125.5,14,124.3,15.2C124.3,15.3,125,14.5,124.3,15.2z M127.2,10.4
	c0,0.5-1.3,1.3-1.7,1.6c-0.3,0.3-0.8,0.8-1,0.2c-0.2-0.4,0.7-0.7,0.5-0.8c-0.1,0.1-0.7,0.4-0.8,0.5c-0.2,0.3,0.2,0.8,0,1.2
	c0.7,0,1.8-1.4,2.2-1.8c0.7-0.6,1.7-1.3,2.1-2.1C128.1,9.6,127.6,10,127.2,10.4z M124.3,13.9c0.1,0.1,0,0.5,0,0.7
	c0,0,0.4-0.3,0.4-0.3c-0.1,0.1,0-0.3,0-0.3c0-0.1,0.4-0.3,0.4-0.4c0.3-0.2,0.7-0.5,0.8-0.7c0.1-0.1,0.4-0.5,0.6-0.7
	c0.3-0.3,0.8-0.6,1-1C126.5,12.1,125.4,13,124.3,13.9C124.4,14,124.8,13.5,124.3,13.9z M129.1,12.5c-1.1,0.9-2.1,1.9-3.2,2.7
	c-0.4,0.4-1.8,1.1-1.5,1.8c0.6-0.9,1.5-1.1,2.1-1.7c0.3-0.3,0.5-0.7,0.9-1c0.6-0.5,1.5-0.9,1.8-1.6
	C129.2,12.6,129.2,12.5,129.1,12.5C128.5,13,129.2,12.5,129.1,12.5z M124.4,19.4c0,0.1,0,0.5,0.1,0.5c0.3-0.6,1.4-1.3,1.8-1.7
	c0.4-0.4,0.9-0.9,1.3-1.3c0.5-0.5,1.4-0.8,1.7-1.5C127.6,16.7,125.9,17.9,124.4,19.4C124.4,19.5,125.1,18.7,124.4,19.4z M126.5,16.3
	C126.4,16.3,126.4,16.3,126.5,16.3c0.1-0.1,0.2-0.2,0.2-0.3c0.1,0,0.1,0,0.1,0.1c0-0.6,3.1-2.3,2.5-2.9c-1.5,1.5-3.9,2.7-4.9,4.6
	c0.2-0.1,0.6-0.5,0.9-0.6c-1,0.5,0.9-0.5,0.4-0.2C126,16.7,126,16.5,126.5,16.3C126.4,16.3,126.3,16.4,126.5,16.3z M124.4,18.6
	c0.1,0.1,0.1,0.1,0.1,0.2c0,0-0.3-0.1-0.1,0.1c-0.1-0.1,2.9-2.6,3.1-2.8c0.2-0.2,0.5-0.5,0.7-0.7c0.3-0.3,1.2-0.7,1-1.2
	C127.7,15.7,126,17.2,124.4,18.6z M125.7,19.7c0-0.3,0.2-0.4,0.4-0.6c0.1-0.1,0.4-0.4,0.6-0.6c0.6-0.6,2.5-1.5,2.5-2.4
	c-1.3,0.8-2.4,2-3.5,3.1c-0.3,0.3-1.3,1-1.3,1.4c-0.2,0.7,0.6,0.6,0.6,0.3c-0.2,0.2-0.5-0.1-0.4-0.3
	C124.7,20.4,125.5,19.8,125.7,19.7C125.7,19.6,125.4,19.8,125.7,19.7z M124.7,4c1.3-0.7,2.6-1.6,3.6-2.6c-0.5,0.3-3.5,2.6-3.8,2.2
	C124.5,3.7,124.7,4.1,124.7,4C125.1,3.8,124.7,4.1,124.7,4z M126,2.6c-0.4,0-0.7,0.4-1.2,0.4c0,0,0.2-0.2,0.2-0.1
	c-0.1-0.3-0.5,0.3-0.5,0.6c0.6-0.2,1.2-0.7,1.8-1.1C126.1,2.4,126.1,2.5,126,2.6C125.8,2.6,126.1,2.5,126,2.6z M124.6,25
	c0.1,0,0.3,0.1,0.4,0.1c0,0-0.2-0.3,0-0.3C124.8,24.8,124.7,24.9,124.6,25C124.7,25,124.7,24.9,124.6,25z M124.7,24.3
	c0.2-0.2,0.4-0.3,0.6-0.6C125.2,23.7,124.5,24.1,124.7,24.3C124.8,24.2,124.6,24.2,124.7,24.3z M124.9,4.4c0.9-0.4,1.9-0.8,2.6-1.5
	c0-0.2,1.4-0.4,1.4-1C127.6,2.8,126.2,3.6,124.9,4.4C125.1,4.3,125.6,4,124.9,4.4z M125.1,11.5c0.8-0.4,1.3-1,2-1.5
	C126.4,10.4,125.7,10.9,125.1,11.5C125.5,11.3,125.4,11.2,125.1,11.5z M126.6,4c0.1,0,0.1-0.1,0.1-0.1c-0.2,0-1.1,0.7-1.4,0.9
	C125.8,4.8,126.3,4.3,126.6,4C126.7,4,126.5,4.1,126.6,4z M125.9,23.3c-0.1,0.1-0.6,0.3-0.4,0.5c0-0.2,0.3-0.3,0.4-0.2
	c0-0.4,3.4-2.3,3.2-2.5C129,21,126.2,23,125.9,23.3C125.8,23.4,126.4,22.9,125.9,23.3z M125.6,25c0,0,0.3-0.1,0.3-0.2
	C125.8,24.7,125.5,25,125.6,25z M125.8,21c0.4-0.2,0.6-0.4,0.9-0.7C126.4,20.5,126,20.7,125.8,21C126,20.9,125.9,20.8,125.8,21z
	 M126,24.3c0.2,0,0.2-0.2,0.4-0.2c0,0.4-0.4,0.4-0.4,0.7c0.7-0.5,1.5-1.1,2.1-1.5c0.3-0.2,1-1.1,1.5-0.9c0-0.2,0.4-0.4,0.7-0.6
	c-0.7,0.4-1.4,1-2.2,1.4C127.3,23.6,126.7,23.7,126,24.3C126.1,24.3,126.6,23.8,126,24.3z M127.7,11.7c-0.5,0.5-1.4,1-1.6,1.7
	c0.9-0.9,3-1.9,3.3-3.3C128.8,10.5,128.1,11.1,127.7,11.7C127.4,12,127.9,11.4,127.7,11.7z M126.4,5.3c-0.1,0.1-0.1,0.1-0.1,0.2
	c1.1-0.4,1.9-1.3,3-1.7C128.5,4.1,126.8,4.5,126.4,5.3z M127.1,18.9c-0.2,0.2-0.8,0.5-0.8,0.8c0.2-0.3,1-0.9,1.4-1.2
	c0.4-0.3,1.5-0.8,1.5-1.4C128.5,17.8,127.7,18.2,127.1,18.9z M127.3,19.6c0.3,0.4-0.4,0.4-0.7,0.6c0.2,0,0.3,0,0.5,0.1
	c0-0.6,2.5-1.7,1.9-2.3C128.3,18.4,128,19.2,127.3,19.6z M128.6,23.3c-0.6,0.6-1.4,1.1-2,1.7c0.4,0,1.2-1.3,1.4-1.1
	c0-0.1,0-0.2-0.1-0.2c0.1,0,0.5-0.2,0.2-0.2c0-0.1,0.6-0.2,0.7-0.2C128.6,23.3,128.8,23.1,128.6,23.3z M127,9.9
	c0.2,0,0.2-0.2,0.3-0.2C127.2,9.7,127.2,9.9,127,9.9z M128,24.6c-0.1,0-0.4,0.2-0.4,0.3c0,0.2,2.2-1.4,2.4-1.6
	c0.2-0.1,1.7-1.2,1.5-1.5C131.4,21.9,128.3,24.3,128,24.6C127.9,24.6,128.5,24.1,128,24.6z M127.8,5c0.2,0-0.1,0.1-0.1,0.1
	c0-0.1,1.7-0.5,1.7-0.9C128.8,4.4,128.3,4.7,127.8,5C127.9,5,128,4.9,127.8,5z M129.3,3c-0.2,0-0.4,0.1-0.6,0.3
	C129,3.3,129.1,3,129.3,3z M129.4,24.4c0,0.1-0.2,0.4-0.3,0.5c0.2-0.2,2.4-2,2.3-2.1C131.4,22.8,129.5,24.3,129.4,24.4
	C129.4,24.5,130.1,23.9,129.4,24.4z M130.2,24.9c0.3-0.2,1.1-0.5,1.1-0.9C131,24.3,130.4,24.5,130.2,24.9
	C130.4,24.8,130.3,24.7,130.2,24.9z"/>
<path d="M143.9,19.3c0,0.2-0.3,0.2-0.3,0.4c-0.2,0.3-0.1,0.9-0.1,1.2c0,1,0,2,0,3c0,0.5,0.2,5.7,0,5.7c0-0.1,0.1-0.1,0.1-0.2
	c0.3,0-0.5,1.4-0.6,1.5c-0.4,0.7-0.6,1.3-1.2,1.9c-1.4,1.3-2.6,1.6-4.5,1.9c-1.2,0.2-2.8,0.4-4.1-0.1c-0.4,0.2-0.6,0.1-0.5-0.4
	c0-0.3,0-0.6,0-1c0-0.5,0.1-1.1,0.1-1.6c0.1-0.8-0.3-2,0.6-2.2c0.2,0,0.1,0.3,0.3,0.3c0.4,0,1.1-0.3,1.5-0.4
	c0.6-0.2,1.3-0.8,1.7-1.2c0.4-0.4,0.2-0.2,0.4-0.7c0.1-0.3,0.1-0.6,0.1-0.9c0.1-1.2-0.1-2.5,0.1-3.7c0.3-1.7,0.2-3.5,0.2-5.3
	c0-1.1,0-2.3,0-3.4c0-0.5,0-0.9,0-1.4c0-0.3,0.2-0.3,0.2-0.5c-0.3,0.3-1.1-0.1-1.4-0.2c-0.5-0.1-1.1,0-1.6-0.2
	c-0.6-0.2-0.5-0.2-0.5-0.8c0-0.6,0.1-1.3,0.2-1.9c0-0.3,0.1-0.7,0.1-0.9c0-0.1-0.4-0.2-0.4-0.5c0-0.5,1.2-0.1,1.6-0.2
	c0.2-0.1,0.4-0.3,0.6-0.3c0.1,0,0.2,0.1,0.3,0.1c0,0.1,0,0.2,0,0.2c0.2,0,0.5,0,0.8,0c0.4,0,0.8,0,1.2,0c0.8,0,1.5,0,2.3,0
	c0.6,0,1.7-0.1,2.3,0.2c0.4,0.2,0.3,0,0.4,0.6c0.1,0.4,0,1,0.1,1.4c0,0.6,0,1.3,0,1.9c0,0.8,0.1,1.7,0.2,2.3c0,0.1,0.3,0,0.3,0.3
	c0,0.1-0.2,0.1-0.3,0.2c-0.1,0.6,0.1,1.1,0.2,1.6c0,0.5,0,1.4-0.2,2c0.1,0,0.1,0,0.2,0C143.9,17.9,143.5,19.1,143.9,19.3
	C143.9,19.4,143.7,19.2,143.9,19.3z M143,25.8c-2,1.2-3.9,2.7-5.7,4.2c-0.9,0.7-1.7,1.4-2.6,2.1c-0.4,0.3-0.9,0.6-1.2,1
	c-0.4,0.5-0.3,0.5-0.5,0.9c0.4-0.2,0.4-0.6,0.9-0.6c-0.2-0.2,1.1-1,1.4-1c0-0.1,0-0.1-0.1-0.1c0.8-0.3,1.5-1.1,2.1-1.5
	c0.8-0.6,1.3-1.2,2.2-1.7c0.5-0.3,0.9-0.8,1.4-1.1c0.5-0.4,1.2-0.5,1.7-0.8c0.1-0.1,0.2,0,0.5-0.2C143.5,26.6,143.5,26.3,143,25.8
	C141.2,26.9,143.1,25.9,143,25.8z M135.9,30.1c0-0.1,0-0.2,0.1-0.2c-0.5,0-0.3,0-0.7,0.4c0-0.1,0.1-0.2,0.1-0.2
	c0,0.1-1.4,0.8-1.5,0.8c0.2,0-0.6,0.5-0.5,0.4c-0.2,0.3-0.4,0.3-0.3,0.8c0.5-0.2,1-0.6,1.3-0.9c-0.1,0-0.2,0-0.2-0.1
	c0.3,0.1,0.8,0,0.8-0.3c-0.2,0.2-0.6,0.2-0.8,0.2c0.2,0,0.3-0.2,0.5,0c0-0.1,0-0.1,0-0.2c0,0,0.2,0,0.2,0c-0.2,0,0.1,0.3,0.1,0.3
	c0.1,0,0.3-0.6,0.7-0.3C135.7,30.6,135.7,30.1,135.9,30.1C135.9,30,135.8,30.1,135.9,30.1z M133.3,31c0-0.3,0.4-0.1,0.4-0.4
	c-0.2,0-0.4,0-0.5-0.1C133.2,30.6,133.2,31,133.3,31C133.3,30.9,133.2,31,133.3,31z M135,33.7c0,0,1.5-1.2,1.8-1.5
	c0.5-0.4,0.8-0.8,1.2-1.2c0,0.1,0,0.1,0,0.2c0.1-0.1,0.1-0.3,0.3-0.3c0-0.1,0-0.2-0.1-0.2c0.5,0,0.8-0.7,1.2-1.1
	c0.4-0.4,1.2-0.7,1.7-1.2c-2.7,1.6-5.6,3.6-7.6,5.9C134.2,34.3,134.4,33.7,135,33.7z M140.2,30.4c0-0.2,0.2-0.2,0-0.4
	c0.7-0.6,2.5-1.8,2.5-2.6c-2.8,2.4-5.4,4.8-8.4,7c0.8,0,1.1-1,1.8-1c-0.1-0.2,0.7-0.7,0.9-0.8c0.1,0.3,1.7-1.3,2-1.4
	c-0.1,0-0.2,0-0.2-0.1C139.2,31.1,140.1,29.9,140.2,30.4z M137.1,9.1c-0.9,0.5-1.8,1.5-2.4,2.3c0.8-0.5,1.4-1.3,2.1-1.8
	c0.3-0.2,1.6-1,1.6-1.4C137.7,8.4,137.7,8.7,137.1,9.1C136.6,9.4,137.4,8.9,137.1,9.1z M134.9,8.8c0-0.2,0.2-0.3,0.2-0.5
	C134.7,8.2,134.6,8.8,134.9,8.8C134.9,8.7,134.8,8.8,134.9,8.8z M135.8,8.4c0,0.2-0.9,0.8-0.7,1c0,0,0.9-0.8,0.9-1
	C135.9,8.6,135.9,8.4,135.8,8.4C135.8,8.5,135.9,8.4,135.8,8.4z M136.3,8.9c-0.3,0.2-0.7,0.6-0.9,0.9c0.6-0.6,1.2-1,1.8-1.6
	C136.9,8.4,136.6,8.6,136.3,8.9C135.9,9.2,136.6,8.6,136.3,8.9z M135.7,34.3c0.1-0.1,0.8,0,0.8-0.2c-0.4,0-0.2-0.1,0-0.3
	C136.2,33.9,135.9,34.1,135.7,34.3z M136.7,29.5c-0.2-0.1-0.6,0.1-0.8,0.3c0.2,0,0,0.2,0.2,0.2C136.1,29.9,136.6,29.6,136.7,29.5z
	 M136.7,1.3c0.7-0.3,1.4-0.9,2.1-1c0.6-0.1,1.3,0.1,1.9,0.2c0.3,0,0.6,0.1,0.8,0.2c0.2,0.1,0.6,0.8,0.9,1.1c0.1,0.1,0.7,0.5,0.8,0.7
	c-0.1-0.2-0.1,1.1-0.1,1c0,0.4-0.1,0.6-0.2,1c-0.1,0.2-1.1,1.3-0.8,1.3c-1.4,0.9-3.4,0.9-4.4-0.6C136.8,4,136.1,2.5,136.7,1.3
	C136.9,1.2,136.6,1.5,136.7,1.3z M140.2,8.5c-1.4,0.7-2.8,1.9-3.8,3.1c0.3,0,0.3-0.6,0.6-0.3c0.3-0.8,1.4-1.2,1.9-1.7
	c0.6-0.7,1-1,1.6-1.7c-0.1,0-0.4,0.1-0.5,0C140,8.1,140,8.3,140.2,8.5z M137.6,34.1c0.4-0.9,1.5-1.2,2.1-1.6c1-0.7,3.1-1.8,3.1-3
	c-1.8,1.8-4.1,3.2-6.1,4.8C136.8,34.1,137.4,34.1,137.6,34.1C137.7,33.9,137.2,34.1,137.6,34.1z M138.3,27.9
	c-0.2,0.2-1.9,1.2-1.7,1.4c0-0.2,0.2,0,0.2,0c0-0.1,0-0.2-0.1-0.2c0.3,0,0.4-0.1,0.6-0.3c0,0.3,0.4-0.4,0.5-0.4c0,0.1,0.2,0.1,0.2,0
	c0,0-0.1,0-0.1,0c0.4,0,0.4-0.5,0.8-0.5c-0.2,0-0.3,0-0.3,0.2C138.5,28,138.5,27.9,138.3,27.9C138.1,28.1,138.5,27.9,138.3,27.9z
	 M137.2,2.7c-0.4,0-0.1,0.4,0,0.5c0,0,0.2-0.2,0.2-0.1C137.4,2.9,136.9,3,137.2,2.7C137.1,2.7,137.1,2.8,137.2,2.7z M137.2,3.6
	c-0.1,0.2,0,0.3,0.1,0.4c0.5,0,1.4-1,1.7-1.2c0.4-0.3,1.8-0.9,1.8-1.5C139.6,2.1,138.5,3,137.2,3.6C137.2,3.7,137.8,3.3,137.2,3.6z
	 M137.9,27.1c-0.1,0,0,0,0,0.2c-0.3-0.3-0.3,0.2-0.5,0.2c0.6,0,1.2-0.8,1.7-1.1c0.5-0.3,1.1-0.5,1.6-1
	C139.8,25.9,138.6,26.4,137.9,27.1C137.8,27.1,138.3,26.7,137.9,27.1z M140.7,24.5c0.5-0.1,1-0.8,1.5-1.1c0.6-0.4,1-0.3,0.9-1.1
	c-1.7,1.3-3.5,2.3-5.2,3.6c0.1,0,0.2,0,0.3,0.1c-0.2,0.2-0.9,0.3-0.7,0.7c0.4-0.2,0.7-0.5,1.1-0.7c0,0.1-0.1,0.1-0.1,0.2
	c0,0,2.2-1.5,2.2-1.5C140.7,24.6,140.3,24.5,140.7,24.5z M139.8,22.8c-0.5,0.5-2.3,1.1-2.3,1.8c0.7-0.7,1.7-1.2,2.5-1.6
	c0,0-0.1-0.1-0.1-0.1c0.5,0,1-0.6,1.4-0.8c0.4-0.2,0.9-0.4,1.3-0.7c0.6-0.5,1.3-1.6,0.2-0.7C141.8,21.5,140.8,22,139.8,22.8
	C139.6,23,140.3,22.4,139.8,22.8z M137.6,4.3c0.5,0,2.4-1.5,2.3-1.6c0.4,0,0.9-0.4,1.1-0.7C139.8,2.5,138.6,3.5,137.6,4.3
	C137.7,4.3,138.1,3.9,137.6,4.3z M139.5,23.8c-0.3,0.2-2.1,1.2-2.1,1.6c0,0,0.6-0.5,0.8-0.6c0,0.1,0,0.2,0.1,0.2
	c0.2-0.2,0.4-0.5,0.7-0.6c0,0,0.9-0.5,1.1-0.6c0.3-0.1,0.5-0.3,0.7-0.5c0.4-0.3,0.7-0.4,1.1-0.7c0.2-0.2,1.2-0.7,1.2-1.1
	C141.9,22.3,140.7,23,139.5,23.8C139.3,23.9,140.1,23.4,139.5,23.8z M138.2,2.4c-0.2,0-0.6,0.3-0.6,0.5c0.4-0.4,1.1-0.7,1.5-1.2
	C138.7,1.7,138.5,2.2,138.2,2.4C138.1,2.4,138.4,2.3,138.2,2.4z M139.7,22c-0.4,0.2-2.2,1.4-2,1.8c0.1-0.1,0.4-0.3,0.5-0.4
	c0.4-0.2,0.4-0.3,0.7-0.5c0.3-0.2,0.6-0.5,0.8-0.7c0.2-0.1,0.7-0.3,0.7-0.5c0.1,0,0.1,0,0.1,0.1c0.1-0.3,1.6-1.6,1.5-1.7
	C141.2,20.8,140.5,21.4,139.7,22C139.5,22.1,140.1,21.7,139.7,22z M139.3,21.1c0.3,0-0.9,0.9-1.1,1c-0.4,0.3-0.5,0.3-0.5,0.8
	c0.3,0,0.8-0.8,1-1c0.3-0.2,1.2-1.2,1.6-1c0-0.1,0-0.1-0.1-0.1c0.4-0.2,3-2.1,2.8-2.3C142.8,18.3,139.6,20.8,139.3,21.1
	C139.4,21.1,139.9,20.6,139.3,21.1z M137.9,11.3c0-0.1,0.3-0.4,0.4-0.5C138.1,10.8,137.7,11.3,137.9,11.3
	C137.9,11.2,137.8,11.3,137.9,11.3z M139,19.4c-0.2,0.5-1.3,0.9-1.1,1.4c1.1-0.8,2.2-1.7,3.3-2.5c0.3-0.2,2.3-1.5,2.2-1.7
	C143.4,16.6,139.4,19,139,19.4C138.9,19.7,139.6,18.9,139,19.4z M137.9,19.4c0,0,0,0.3,0,0.3c0.1,0.1,0.8-0.6,0.9-0.7
	C138.4,19,138.3,19.4,137.9,19.4C137.9,19.5,138,19.4,137.9,19.4z M139.9,17.4c0-0.1,0-0.1-0.1-0.2c0.6-0.3,1.3-0.9,1.9-1.5
	c0.2-0.2,2-1.2,1.3-1.3c-0.5-0.1-1.5,1.1-1.8,1.3c-0.5,0.4-1,0.6-1.5,0.9c-0.4,0.3-1.8,1.1-1.7,1.6
	C138.1,18.7,139.6,17.5,139.9,17.4C139.9,17.3,139.2,17.7,139.9,17.4z M138.3,14.2c0-0.1,0-0.2-0.1-0.2c0.4,0,0.6-0.3,0.9-0.6
	c-0.8,0-1-0.1-0.2-0.7c0.2-0.2,0.4-0.2,0.6-0.4c0.2-0.2,0.4-0.4,0.6-0.5c0.2-0.1,0.4-0.2,0.6-0.3c0.6-0.4,1.1-0.7,1.6-1.2
	c0.2-0.2,1.1-0.5,0.9-1.1c-0.1,0.1-1,0.3-0.6,0.5c-0.3-0.3-2.7,1.5-3.1,1.9c-0.2,0.2-0.2,0.3-0.4,0.5c-0.2,0.3-0.7,0.4-0.9,0.7
	C138.1,12.9,137.9,14.2,138.3,14.2C138.3,14.1,138.2,14.2,138.3,14.2z M138.8,16.2c0.1-0.3,0.8-1,1.1-1.2c0.1-0.1,0.5-0.1,0.6-0.2
	c0.2-0.1,0.4-0.4,0.6-0.6c0.3-0.2,2.5-1.4,2-1.8c-1.1,0.8-2.2,1.7-3.3,2.5c-0.6,0.4-1.6,0.9-1.6,1.7
	C138.2,16.2,138.5,16.2,138.8,16.2C138.9,16,138.6,16.2,138.8,16.2z M138.1,11.9c0.3,0.3,1.3-1,1.8-1c-0.1,0,0.9-0.8,1.1-0.9
	c0.3-0.2,1.5-1.1,1.6-1.5c0.2,0.2,0.3,0,0.5,0c0,0,0-0.1,0-0.2C141.4,9.5,139.6,10.4,138.1,11.9C138.2,12,138.8,11.2,138.1,11.9z
	 M140.2,15.7c0.5-0.2,0.8-0.9,1.3-0.9c-0.1-0.2,1.3-0.9,1.4-1.3c-1.2,0.9-2.6,1.7-3.8,2.7c-0.2,0.2-1.2,0.9-1.2,1.3
	c0.4-0.6,1.2-0.9,1.7-1.4c0.1-0.1,0.4-0.2,0.4-0.2C140.1,15.8,140.1,15.8,140.2,15.7z M139.2,14.4c0.5-0.5,1.1-0.6,1.6-1.1
	c0.7-0.6,1.2-1.5,2.1-2.1c-0.9,0-1.8,1.1-2.4,1.6c-0.7,0.5-2.6,1.4-2.5,2.4C138,14.9,138.9,14.4,139.2,14.4
	C139.3,14.3,139.1,14.4,139.2,14.4z M138.1,15.6c0.3,0.3,0.9-0.5,1.1-0.7C138.8,15.1,138.4,15.3,138.1,15.6
	C138.2,15.7,138.3,15.4,138.1,15.6z M138.5,5.5c-0.1,0-0.2,0.1-0.1-0.1c0,0-0.1-0.2,0.1-0.4c0,0-0.1-0.1-0.1-0.1
	c0,0.1-0.3,0.3-0.4,0.4c0.9,0.9,1.5,0.5,2.3-0.1c0.3-0.2,2.2-1.2,1.6-1.7c-0.3,0.3-2.8,2.6-3,1.9c-0.1-0.3,1.4-1.5,1.6-1.5
	c0,0-0.1,0.2-0.1,0c0.4-0.1,0.9-0.6,1.2-0.9c-0.6,0.4-1.4,0.8-2,1.3C139.2,4.7,138.9,5.1,138.5,5.5z M138.4,1.3
	c0.2,0,0.7-0.4,0.8-0.5C138.9,0.8,138.3,1.4,138.4,1.3C138.5,1.3,138.3,1.4,138.4,1.3z M139,10.4c-0.2,0.2-0.6,0.2-0.6,0.5
	c0.7-0.5,1.4-1.1,2.1-1.6C139.9,9.6,139.4,10,139,10.4z M138.5,4.5c0.4-0.4,0.8-0.5,1.2-0.9C139.2,3.9,138.7,3.9,138.5,4.5
	C138.7,4.3,138.6,4.2,138.5,4.5z M138.5,27.3c0.2,0,0.5-0.1,0.7-0.3C138.9,27,138.7,27.1,138.5,27.3
	C138.6,27.3,138.6,27.2,138.5,27.3z M138.5,33.7c1,0,2.4-1.1,2.9-1.9C140.5,32.5,139.5,33.1,138.5,33.7
	C138.7,33.7,139,33.4,138.5,33.7z M140.4,17.5c-0.2,0.1-1,0.4-1,0.6c0-0.1,0.2,0.6-0.1,0.3c0.8-0.6,1.9-1.1,2.6-1.6
	c0.5-0.4,1.4-0.8,1.4-1.6C142.3,15.9,141.2,16.6,140.4,17.5C140.2,17.6,140.8,17.1,140.4,17.5z M139.3,14.8c0.1,0,0.8-0.3,0.8-0.4
	C139.7,14.4,139.6,14.5,139.3,14.8C139.5,14.8,139.4,14.7,139.3,14.8z M140.2,3.1c0,0.2-0.4,0.2-0.4,0.5c0.5-0.5,1.3-0.9,1.8-1.4
	C141.1,2.4,140.5,2.8,140.2,3.1C140.2,3.2,140.4,2.9,140.2,3.1z M140.2,19.5c0,0.2,0.3-0.1,0.4-0.3c0.3-0.2,0.6-0.5,0.9-0.6
	c0.5-0.4,1.6-0.7,1.6-1.4C141.9,17.8,141.3,18.9,140.2,19.5C140.2,19.6,140.8,19.2,140.2,19.5z M141,8.8c-0.1,0-0.6,0.4-0.3,0.4
	c0.3-0.3,1.1-0.9,1-1.2C141.4,8.3,141.3,8.5,141,8.8z M142.1,12.5c-0.1,0.1-0.3,0.2-0.3,0.3c0,0,1.1-0.8,1.3-0.9
	C142.8,11.9,142.3,12.3,142.1,12.5z M142.6,24.7c0.1,0,0.7-0.2,0.5-0.4C142.9,24.2,142.6,24.9,142.6,24.7z M142.8,25.5
	C142.8,25.4,142.8,25.4,142.8,25.5c0.3,0,0.4,0,0.3-0.3c0,0-0.5,0.1-0.5,0.2C142.7,25.4,142.7,25.5,142.8,25.5
	C142.8,25.4,142.6,25.4,142.8,25.5z M142.9,11.1C143,10.9,143,11,142.9,11.1L142.9,11.1z"/>
<path d="M147.3,25.6c-0.7-0.1-0.7-2.5-0.5-3.1c0.1-0.2,0.5,0.2,0.3-0.2c0,0,0.2-0.1,0.2-0.1c0-0.2-0.3-0.4-0.2-0.6
	c0.1-0.3,0.9-0.9,1.1-1.2c0.8-0.9,1.6-1.8,2.5-2.7c1.4-1.6,2.9-3,4.4-4.6c0.4-0.4,1.4-1.2,0.9-1.6c-0.3-0.2-1.3,0-1.6,0
	c-0.8,0.1-1.7-0.1-1.9,0.7c0,0.1-0.1,1.6-0.2,1.5c0.1,0,0.1,0,0.2,0c0.3,0.3-0.9,0.2-0.9,0.2c-0.7,0-1.4,0.2-2.1,0.2
	c-0.8-0.1-0.7-0.2-0.8-1c-0.1-0.7-0.1-1.4-0.2-2.2c-0.1-0.6-0.3-1.1-0.3-1.8c0-0.4,0.1-0.7-0.1-1c-0.1-0.1-0.2,0-0.3-0.1
	c-0.1-0.2,0-0.4-0.1-0.6c1.2,0,2.4,0.2,3.6,0.2c0.8,0,1.3-0.2,2.1-0.1c1.1,0.2,2.2-0.1,3.3,0c0.5,0.1,1,0.2,1.6,0.1
	c0.9-0.1,1.9-0.2,2.9-0.2c0.8,0.1,2.3,0,3,0.3c0.5,0.2,0.5,0.2,0.5,0.9c0,0.5,0,0.9,0,1.4c0.3,0.2,0.3,0.4,0,0.6
	c0.2,0.2,0.2,0.4-0.1,0.5c-0.1,0.1-0.4-0.2-0.4,0.1c0,0.1,0.3-0.1,0.3-0.1c0.3,0.2-2.8,2.9-3.1,3.1c-1.1,1-2.2,2.2-3.3,3.2
	c-0.9,0.8-2,1.5-2.8,2.5c-0.1,0.2-0.2,0.4-0.3,0.6c-0.1,0.1-0.3,0-0.4,0.1c-0.2,0.2-0.1,0.4-0.3,0.7c1.5,0,3.5,0.3,5-0.1
	c0.6-0.2,1-0.5,1.1-1.1c0.2-0.6-0.3-1.4,0.2-1.6c0.5-0.3,1.7-0.1,2.3-0.1c0.3,0,1.3-0.1,1.4,0.1c0.1,0.2,0,0.8,0,1
	c0,0.9,0,1.7,0,2.6c0,0.4,0.3,2,0,2.3c-0.2,0-0.5-0.3-0.3-0.5c-0.4,0.2-0.8,0.5-1.1,0.8c0.3,0,0.6-0.2,0.9-0.3
	c0,0.4,0.4,0.4,0.7,0.6c-0.2,0,0,0.2-0.1,0.2c-0.2,0.2,0.1,0-0.4,0.1c-0.5,0.1-1.3-0.1-1.8,0c-1.1,0.2-2.2,0.5-3.4,0.4
	c-0.9-0.1-2-0.1-2.9-0.2c-0.2,0-0.5-0.2-0.8-0.2c-0.2,0-0.2,0.2-0.4,0.2c-0.4,0-0.2-0.2-0.2-0.3c-2.5,0-5,0-7.5,0
	C147,25.6,147.2,25.7,147.3,25.6z M147.7,23.9c-0.3,0-0.7,0.5-0.3,0.7c0-0.6,1.5-1.6,2.1-2.1c0.3-0.2,3-2.3,2.9-2.5
	c0-0.1-2.1,1.7-2.3,1.8C149.3,22.5,148.5,23.1,147.7,23.9C147.6,23.9,148.4,23.2,147.7,23.9z M148.5,20.7c-0.2,0.2-1.2,1.3-1.2,1.7
	c0-0.3,1-0.7,1.3-1c0.4-0.3,2.1-1.3,2.1-1.8C149.9,20,149.5,20.7,148.5,20.7C148.4,20.8,148.7,20.7,148.5,20.7z M147.3,23
	c0,0.2,0,0.5,0.1,0.6c0.9-0.9,1.6-2.3,2.8-2.9c-0.2,0,0.3-0.5,0.3-0.5c0.2-0.2,1.5-1.2,1.7-1c0-0.3,0-0.2,0.2-0.3
	c-0.2-0.4,0.3-0.2,0.5-0.4c-0.1,0-0.1,0-0.2,0c0.1-0.1,0.2-0.2,0.4-0.2c0,0-0.1-0.1-0.1-0.1c0.5,0,0.5-0.3,0.7-0.5
	c0.2-0.2,0.3-0.1,0.3-0.1c0-0.4,0.3-0.1,0.4-0.1c0,0,0.3-0.6,0.1-0.6c0.3,0,1.7-1,1.4-1.3c0.3,0,0.8-0.5,0.8-0.6
	c0.2,0.2,0.2-0.1,0.1-0.2c0.1,0,0.1,0,0.2,0c0-0.1,0-0.1-0.1-0.1c0.3,0,0.3-0.3,0.6-0.4c0.1,0.1,0.1,0.2,0,0.2
	c0-0.7,1.3-0.6,1.3-1.2c0,0.2-2.1,1.7-2.5,2.1c-1,0.9-2,1.7-3.1,2.5C151.2,19.6,149.3,21.3,147.3,23z M150.3,22.6
	c0,0.5,0,0.5-0.6,0.9c-0.7,0.5-1.5,0.9-2.1,1.6c0.2,0,0.9,0,1.1-0.2c0.4-0.3,0.1-0.2,0.1-0.3c0.2-0.2-0.6,0.4,0.1-0.3
	c0.3-0.3,0.5-0.2,0.7-0.4c0.8-0.6,1.2-1.3,2-2c0.4-0.4,2.2-1.4,2.2-1.7c-0.1-0.2,0.7-0.5,0.5-0.5c0.3,0,0.3-0.3,0.6-0.1
	c0-0.8,2.2-1.4,2.2-1.9c0.3-0.1,0.4-0.5,0.7-0.6c0.5,0,0.8-0.6,1.1-0.9c0.3-0.3,1.2-0.6,1.2-1.2C157.1,17.8,153.6,20.1,150.3,22.6
	C150.3,22.7,152,21.3,150.3,22.6z M148.4,9c0.4,0,0.5-0.5,0.7-0.7c-0.2,0-0.7-0.1-0.9,0.1C148.3,8.4,148.4,8.9,148.4,9
	C148.6,9,148.4,8.9,148.4,9z M148.5,9.7c0.6,0.1,1.5-1.1,1.9-1.5C149.6,8.4,149,9,148.5,9.7z M150,9.2c-0.4,0.4-1.7,0.9-1.5,1.7
	c0.4-0.2,0.7-0.9,0.9-1.2c0.5-0.5,1.2-1,1.7-1.5C150.6,8.4,150.5,9,150,9.2C149.8,9.4,150.3,9.1,150,9.2z M153,8.4
	c0,0.6-1.9,1.7-2.4,2.1c-0.4,0.3-0.8,1-1.3,1.2c-0.7,0.3-0.3-0.2-0.8-0.2c0,0.3,0.1,0.7,0.1,1c0.4,0,1.4-1,1.7-1.3
	c1-0.8,2.1-1.9,3.1-2.8C153.5,8.4,153,8.4,153,8.4z M155.6,8.4c-1.1,1-2.4,1.7-3.5,2.7c-0.4,0.3-0.6,0.3-0.9,0.5
	c-0.1,0-0.1,0.3-0.3,0.3c0-0.1,0-0.1-0.1-0.1c0,0.1,0,0.1,0.1,0.1c-0.7,0.2-1.5,1.6-2.2,1.4c0,0.1,0,0.2,0.1,0.3
	c0.6-0.6,1.4-1.1,2.1-1.6c0.6-0.5,1.2-0.7,1.8-1.1c1.2-0.8,2.3-1.8,3.5-2.7C155.9,8.1,155.6,8.1,155.6,8.4z M149.5,10.7
	c0.4-0.2,0.9-0.5,1.1-0.9C150.2,10,150,10.5,149.5,10.7z M153.2,22.5c0,0,0,0,0-0.1c-0.2,0-0.4,0.4-0.6,0.2c0,0,0.1-0.1,0.2-0.1
	c-1.3,0.4-2.1,1.8-3.3,2.3c0,0.8,2.3-1,2.5-1.1c0.2-0.2,1.7-1.3,1.6-1.4c0.1,0,0.2,0,0.3,0C153.6,22.3,153.7,22.5,153.2,22.5z
	 M150.3,13.2c0,0-0.6,0.5-0.5,0.5c0.4-0.4,1-0.6,1.4-1C150.9,12.8,150.6,13,150.3,13.2C150.2,13.3,150.6,13,150.3,13.2z M150.7,9.7
	c0.7-0.2,1-0.9,1.5-1.2C152,8.4,150.7,9.2,150.7,9.7C151,9.6,150.7,9.4,150.7,9.7z M150.7,23.3c0.8-0.3,1.3-0.9,1.9-1.3
	c0.6-0.4,2.8-1.7,2.8-2.5C153.8,20.7,152.3,22.1,150.7,23.3C151,23.2,151.5,22.7,150.7,23.3z M150.9,13.6c0.2,0,0.3,0.1,0.5,0.1
	c0-0.2,0-0.3,0-0.5C151.3,13.2,151,13.5,150.9,13.6z M154.3,22.5c-1.2,0.8-2.3,1.6-3.4,2.5c1.6,0,2.6-2,4-2.5
	C154.7,22.3,154.6,22.5,154.3,22.5C153.7,22.9,154.4,22.5,154.3,22.5z M153.2,16.2c-0.5,0-0.1-0.2-0.6,0.2c-0.5,0.4-1,1.1-1.4,1.6
	c0.5,0,1.1-1,1.3-1c0.7-0.3,1.1-1,1.8-1.2c-0.2,0,0.9-1.1,1.1-1.4C154.8,15.1,154,15.6,153.2,16.2C153.1,16.2,153.6,15.9,153.2,16.2
	z M155.9,22.2c-1.3,0.9-2.6,1.7-3.8,2.7c0.9,0,1.1-0.6,1.8-1.1c0.6-0.4,1.1-0.8,1.6-1.2C155.7,22.6,156.3,22.2,155.9,22.2
	C155.3,22.6,156,22.2,155.9,22.2z M153.2,19.3l-0.2,0.1C153.1,19.3,153.1,19.3,153.2,19.3z M157.1,8.4c-1.2,1.2-2.9,1.9-4.1,3.1
	c1.7-1,3.2-2.3,5-3.1C157.7,8.4,157.4,8.4,157.1,8.4z M153.3,9.4c0.6-0.2,0.9-0.6,1.3-1C154.2,8.3,153.3,9,153.3,9.4
	C153.6,9.3,153.3,9.2,153.3,9.4z M157.2,22.4c-0.7,0.4-1.3,0.7-1.9,1.2c-0.6,0.4-1.4,0.7-1.7,1.4c0.6,0,1.3-0.6,1.7-1
	c0.8-0.7,1.6-1.2,2.5-1.8C157.5,22.2,157.4,22.2,157.2,22.4C156.8,22.6,157.3,22.3,157.2,22.4z M153.9,19.5
	C153.9,19.3,153.9,19.5,153.9,19.5L153.9,19.5z M154.1,11.4c0.1,0,0.7,0.1,0.7-0.1c-0.5,0,0.9-0.9,0.9-0.9
	C155.5,10.8,154.4,10.9,154.1,11.4C154.2,11.4,154.2,11.2,154.1,11.4z M160.7,13.8c0-0.4,0.6-0.7,0.8-0.9c-0.7,0.3-1.2,1-1.8,1.5
	c-0.7,0.6-1.4,1.2-2.1,1.8c-0.5,0.5-1.1,1-1.6,1.5c-0.3,0.2-1.4,1.6-1.7,1.6c0.6-0.6,1.7-1.1,2.1-1.9c0,0.1,0,0.1-0.1,0.1
	c0.2,0.1,0.7-0.5,0.9-0.7c0,0-0.2,0.2-0.2,0.1c0-0.1,1.5-1.3,1.5-1.3c0.1,0-0.1,0.1-0.1,0.1c0.2-0.2,0.3-0.4,0.5-0.1
	c-0.4-0.7,0.9-0.7,1-0.8c0.1-0.1-0.1-0.1-0.1-0.2c0.4,0,0.3-0.1,0.3-0.3C160.5,14.2,160.4,13.8,160.7,13.8
	C160.7,13.6,160.6,13.8,160.7,13.8z M154.6,25.1c1.5,0,2.4-2.1,3.6-2.7C156.9,23.2,155.8,24.1,154.6,25.1
	C155,25.1,155.2,24.6,154.6,25.1z M155.2,13.8c0-0.2,0.3-0.3,0.4-0.3c-0.2,0,0.1-0.1,0.1-0.2C155.7,13.4,155,13.6,155.2,13.8
	C155.2,13.7,155.1,13.7,155.2,13.8z M155.5,11.1c0.5-0.5,1.2-0.8,1.7-1.3C156.7,10.2,155.8,10.5,155.5,11.1
	C155.7,10.9,155.6,10.9,155.5,11.1z M159.3,11.7c0.1-0.5,1-0.9,1.4-1.2c0.9-0.8,1.5-1.5,2.3-2.3c-1.6,0.3-2.6,1.8-3.8,2.8
	c-1.1,1-2.1,2.1-3.3,3.1c0.3,0,0.8-0.2,1-0.1c0-0.5,1.2-0.7,0.9-1c0.3,0,0.7-0.2,0.9-0.4c0.2-0.2,0.2-0.3,0.4-0.5
	c0.1-0.1,0.3,0,0.4-0.2c-0.1,0.1-0.3,0-0.3-0.1C159.2,11.8,159.3,11.7,159.3,11.7z M155.7,10.4c0.5-0.5,1.2-0.8,1.8-1.2
	C157,9.6,156,9.7,155.7,10.4C156,10.1,155.8,10.1,155.7,10.4z M155.7,25.2c0.8,0,0.9,0,1.5-0.5c0.4-0.4,1-0.5,1.4-0.8
	c0.7-0.5,1.3-1.1,2-1.6c-0.2-0.2-0.3,0-0.3-0.3c-1,0.7-1.9,1.6-2.9,2.3c-0.1,0.1-0.9,0.9-0.9,0.4c0-0.3,0.5-0.5,0.7-0.7
	C156.7,24.4,156.2,24.7,155.7,25.2z M159,9.8c0.3-0.5,1.2-1.2,1.8-1.5c-0.5-0.2-1.9,1-2.2,1.2c-0.4,0.3-0.7,0.6-1.1,0.8
	c-0.4,0.3-1.4,0.5-1.6,1c0.8,0,1.3-0.3,1.7-0.6c0.1-0.1,0.2-0.1,0.3-0.2c0.1-0.1,0.3-0.3,0.5-0.4C158.4,10.1,159,9.8,159,9.8
	C159.1,9.6,158.9,9.9,159,9.8z M157,11.7c0,0.7-1.1,0.7-1.1,1.4c0.1,0,0.1,0,0.2-0.1c-0.2,0,0.9-0.9,0.9-1.1
	c0.1,0.1,1.1-1.1,1.5-1.1C157.9,10.8,157.5,11.4,157,11.7C157,11.8,157.2,11.6,157,11.7z M157.3,13.9c-0.1,0.1-0.5,0.4-0.5,0.6
	c0.2,0,1.1-0.7,1.1-0.9c0,0.2,0.3-0.1,0.3-0.1C158.2,13.6,157.4,13.7,157.3,13.9C157.2,14,157.4,13.7,157.3,13.9z M157.4,25.3
	c0.8-0.2,1.9-1,2.5-1.6c-0.1,0-0.1,0-0.1-0.1c0.5-0.2,1.2-0.7,1.4-1.1c0,0-0.1,0-0.1,0c0.6,0,2.7-1.4,2.6-1.9
	C161.7,22.2,159.4,23.5,157.4,25.3C157.8,25.2,158.4,24.4,157.4,25.3z M158,16.1v0.1C158,16.3,158,16.3,158,16.1L158,16.1z
	 M158.2,13.2c0.3-0.1,0.9-0.3,0.9-0.7C158.9,12.7,158.4,12.9,158.2,13.2C158.4,13.1,158.3,13,158.2,13.2z M158.6,22.2
	c-0.1,0-0.2,0.1-0.2,0.1C158.4,22.2,158.6,22.2,158.6,22.2L158.6,22.2z M160.1,24.2c1.3-0.6,2.4-1.7,3.6-2.5c-0.8,0-1.7,1-2.3,1.4
	c-1,0.7-1.8,1.6-2.8,2.2c0.2,0,0.5-0.2,0.6-0.3c0,0-0.1,0-0.1,0c0.3,0,0.9-0.7,1.1-0.5C160.3,24.3,160.2,24.3,160.1,24.2z M159,14.1
	c-0.1,0.1-0.1,0.1-0.1,0.1C158.8,14.2,159,14.1,159,14.1L159,14.1z M163.7,22.4c-1.2,0.8-2.5,1.5-3.5,2.5c0.9,0,1.2-0.2,1.8-0.7
	c0.4-0.4,0.9-0.8,1.3-1.1c0,0,0.6-0.2,0.6-0.1C164,22.8,164.1,22.4,163.7,22.4C163.1,22.8,163.8,22.4,163.7,22.4z M160.9,19.4
	c-0.1,0.1-0.2,0.3-0.2,0.5c0.4,0,0.5-0.4,0.7-0.6C161.2,19.3,161.1,19.4,160.9,19.4C160.8,19.5,161,19.4,160.9,19.4z M162.3,19.4
	c-0.2,0.2-1.7,1.3-1.4,1.6c0.5-0.5,1.4-0.9,1.8-1.5C162.5,19.6,162.4,19.4,162.3,19.4z M160.9,8.9c-0.1,0-0.2,0.1-0.1,0.1
	C160.8,8.9,161.1,8.9,160.9,8.9C161.1,8.8,161,8.8,160.9,8.9C160.8,8.9,161,8.8,160.9,8.9z M160.8,21.6c0.2,0-0.2,0.4,0.1,0.4
	c0.5-1,1.8-1.2,2.4-2.2c0.3-0.4,0.3-0.4-0.2-0.2C162.3,20,161.5,21,160.8,21.6C160.9,21.6,161.2,21.2,160.8,21.6z M161.1,12.3
	c0.6-0.5,1.2-1,1.8-1.5c0.2-0.2,0.5-0.4,0.7-0.6c0.1-0.1,0.2,0.2,0.3,0.1c-0.2,0-0.1-0.5-0.2-0.6C163.1,10.8,161.9,11.3,161.1,12.3
	C161.5,12,161.4,11.9,161.1,12.3z M161.3,25.2c1,0,1.6-1.2,2.6-1.5c-0.2,0-0.1-0.3-0.1-0.4C163,23.9,162,24.5,161.3,25.2
	C161.5,25.2,161.7,24.8,161.3,25.2z M162,10.6c-0.1,0.1-0.7,0.5-0.5,0.7c0.2-0.5,1.1-0.8,1.1-1.3C162.5,10.2,162.3,10.4,162,10.6z"
	/>
<path d="M173,18.5c0.2,0.8,0.4,1.3,0.8,2c0.3,0.5,0.5,0.9,1.1,1.2c1.3,0.6,3,0.4,4.2-0.1c0.6-0.2,1-0.5,1.4-1c0.3-0.4,0.4-0.9,1-0.9
	c0.1,0,0.1,0.2,0.2,0.2c0.3,0.1,0.7,0.3,1,0.3c0.7,0.2,1.6,0.4,2.3,0.8c0.3,0.1,0.8,0.3,0.9,0.6c0.1,0.4-0.2,0.5-0.3,0.7
	c0,0.1,0,0.2,0,0.3c-0.3,0.3-0.7,0.7-1.1,1c-0.5,0.4-1,0.8-1.6,1.1c-1.3,0.7-2.7,1.2-4.2,1.4c-0.7,0.1-1.5,0.1-2.2,0
	c-0.2,0-1-0.2-0.7,0.1c0,0-0.5-0.1-0.2-0.1c-0.6,0-2.1-0.2-2.3-0.5c0,0-0.1,0-0.1,0c0,0,0,0.1,0,0.1c-0.3-0.2-1.3,0.3-0.9-0.4
	c-0.2,0-0.5-0.1-0.7-0.1c-0.1,0-0.1-0.2-0.2-0.2c0,0.1,0.1,0.2,0.1,0.3c-0.2,0-1.6-1.5-1.8-1.8c-0.2-0.3-0.4-0.7-0.7-1
	c-0.2-0.2-0.7-0.1-0.2-0.6c-0.4-0.1-0.4-0.6-0.6-0.9c0,0-0.3,0-0.3,0c-0.1-0.1,0-0.5,0-0.5c0.1,0.1-0.5-0.3-0.3-0.1
	c-0.1-0.1-0.3,0.4-0.4-0.1c0-0.2,0.4-0.3,0.4-0.4c0-0.2-0.2-0.4-0.2-0.6c-0.2,0-0.3,0.1-0.3,0.3c-0.4-0.4,0.2-0.6,0.2-0.9
	c0.1-0.5-0.2-1.2-0.2-1.7c0-0.8,0.1-1.6,0.4-2.4c0.4-1,0.8-2.3,1.7-3.2c1.5-1.6,3.9-3.1,6-3.4c2.1-0.4,4.5,0.1,6.2,1.2
	c0.8,0.5,1.7,1.2,2.3,2c0.3,0.4,0.5,0.8,0.7,1.2c0.1,0.2,0.6,0.7,0.6,0.9c0.2,0.6,0.1,1,0.4,1.6c-0.1-0.3,0.4,0.7,0.3,0.4
	c0,0.1-0.1,0.3-0.1,0.5c0,0.1-0.1,0.6,0,0.8c0.1,0.1,0.6,0.1,0.6,0.2c-0.1,0.3-0.5,0.3-0.6,0.4c-0.1,0.1-0.1,0.8,0.2,0.8
	c-0.2,0-0.6,1.1-0.8,1.3c0-0.1,0.1-0.7,0-0.8c0-0.1-0.3,0-0.4,0c-0.5-0.2-1.2,0-1.7,0c-1.2,0-2.3,0.1-3.5,0.1
	c-0.5,0-1.1-0.2-1.6-0.2c0,0-0.9,0.2-0.7,0.2c-0.3-0.3-1.6,0-2,0c-0.7,0-1.4,0.4-2.2,0.4C173,19.1,173,18.5,173,18.5
	C173.1,18.9,173.1,18.3,173,18.5z M168.4,16.2c0,0.7-0.3,0.6,0.3,0.4c0.2-0.1,0.5-0.2,0.6-0.5c-0.1,0-0.2,0-0.3,0
	c0.6-0.6,1.3-1,1.8-1.7c0.3-0.3,0.3-0.4,0.6-0.7c0.3-0.3,0.5-0.5,0.8-0.8c0.5-0.5,2.6-2.1,2.6-2.8C172.8,12.2,170.6,14.2,168.4,16.2
	C168.4,16.4,169.5,15.2,168.4,16.2z M170.7,15.4c-0.2,0.2-2.6,2-2.4,2.2c0.9-0.6,1.6-1.4,2.3-2.1c0.8-0.8,3.1-2.3,3.1-3.5
	c-0.5,0.6-1.1,1.2-1.6,1.8C171.6,14.4,171.3,14.9,170.7,15.4C170.4,15.7,171.3,14.9,170.7,15.4z M172.4,14.9
	c-0.4,0.3-4.5,3.7-3.6,4.2c0.8-0.8,1.5-1.4,2.2-2.1c0.4-0.4,0.9-1,1.3-1.4c0.3-0.3,0.9-1.2,1.2-1.3
	C173.2,14.5,172.7,14.6,172.4,14.9C171.9,15.3,172.5,14.8,172.4,14.9z M173.3,10.3c-0.9,1.1-2.3,2.2-3.4,3.1c-0.6,0.5-1.3,1-1.3,1.9
	c0.4-0.1,1-0.9,1.2-1.1c0.3-0.3,0.5-0.6,0.8-0.8c0.1-0.1,0.4-0.4,0.5-0.4c0.2-0.2,0.6-0.3,0.9-0.6c0,0-0.2,0-0.2,0
	c0.3-0.3,0.6-0.4,0.8-0.6c0.1-0.1,0.3-0.3,0.4-0.4c0.2-0.1,0.3-0.3,0.5-0.4c-0.1,0-0.1,0-0.2,0c0-0.3,1.2-1.4,1.5-1.7
	C174.1,9.2,173.7,9.9,173.3,10.3C172.9,10.8,173.6,10,173.3,10.3z M169.9,18.4c-0.5,0.5-1,0.7-1.2,1.4c0.4-0.1,0.8-0.5,1-0.7
	c0.1-0.1,0.3-0.2,0.4-0.3c0.1-0.1,0.4-0.3,0.4-0.5c0.3,0.1,2.8-2.4,2.9-3c-0.5,0.6-1.1,1.3-1.8,1.8
	C171.1,17.6,170.4,17.8,169.9,18.4C169.7,18.6,170.4,17.8,169.9,18.4z M169.1,20.5c0.4,0,0.5-0.6,0.9-0.6c0-0.1,0-0.2-0.1-0.2
	c0.4,0,1.2-0.8,1.2-1.2C170.4,18.8,169.5,19.8,169.1,20.5C169.2,20.5,169.3,20.1,169.1,20.5z M172,18.3c-0.7,1.1-1.8,1.8-2.6,2.8
	c0.5,0,1.3-0.9,1.7-1.2c0.2-0.2,1.4-1.1,1.4-1.4C172.3,18.5,172.2,18.1,172,18.3C171.6,18.9,172.1,18.2,172,18.3z M170.5,20.8
	c-0.2,0.2-0.7,0.5-0.7,0.9c0.6,0,1.3-1,1.6-1.4c0.2-0.2,1.6-1.1,1.4-1.5C172.8,18.9,170.8,20.5,170.5,20.8z M169.8,12.5
	c0.2,0,1.1-0.6,1.4-0.8c0.9-0.6,1.7-1.6,2.4-2.4c-0.8,0.4-1.5,1.1-2.2,1.7C170.9,11.5,170.1,11.9,169.8,12.5
	C170,12.5,169.9,12.3,169.8,12.5z M170,22.3c0.6-0.4,0.9-0.9,1.4-1.3c0.2-0.2,1.3-1,1.3-1.3c0,0-1.2,0.9-1.3,1
	C170.8,21.2,170.5,21.7,170,22.3C170.3,22.1,170.4,21.8,170,22.3z M170.6,22.6c0.2,0,1.1-0.8,1-1C171.5,21.6,170.7,22.4,170.6,22.6
	C170.8,22.6,170.7,22.3,170.6,22.6z M172.2,21.9c-0.1,0.1-1.5,1.2-1.3,1.4c0.4,0,0.9-0.8,1.1-1c0.5-0.5,0.9-1,1.4-1.5
	C172.9,21,172.6,21.5,172.2,21.9C171.8,22.2,172.4,21.7,172.2,21.9z M171.4,23.7c0.9,0.9,1.2-0.1,1.9-0.8c0.2-0.2,0.8-0.4,0.8-0.9
	c-1,0.5-1.3,1.7-2.4,2.1c0-1.1,1.8-1.5,1.8-2.5C172.8,22.4,172,22.9,171.4,23.7C171.5,23.8,171.7,23.3,171.4,23.7z M171.7,21.4
	c0.3,0,0.3-0.1,0.3-0.3C171.9,21.2,171.7,21.3,171.7,21.4C171.8,21.4,171.7,21.3,171.7,21.4z M172.2,21.1c0.2-0.2,0.7-0.5,0.7-0.8
	C172.7,20.6,172.2,20.7,172.2,21.1C172.3,21,172.2,21,172.2,21.1z M173.2,16.5c-0.3,0.3-0.5,0.6-0.7,0.8c0.7-0.2,1.3-1,1.7-1.6
	C173.8,15.9,173.6,16.3,173.2,16.5C173.1,16.6,173.4,16.4,173.2,16.5z M174.5,22.3c-0.3,0.5-0.8,0.9-1.2,1.3c0,0-0.7,0.6-0.7,0.7
	c0,0.6,1.2-0.8,1.1-0.7c0.3-0.3,1.3-0.6,1.3-1.1C174.8,22.5,174.7,22.3,174.5,22.3C174.3,22.6,174.6,22.3,174.5,22.3z M175.6,15.2
	c-0.8,0.8-1.6,1.4-2.4,2.2c0.4,0,1.2-0.9,1.5-1.2c0.3-0.3,1.1-0.7,1.3-1.1C175.6,15.1,175.8,15.2,175.6,15.2
	C175.2,15.6,175.7,15.2,175.6,15.2z M174.7,23.5c-0.4,0.4-1,0.6-1.3,1.1c0.5,0.4,2.5-1.6,2.9-2C175.7,22.6,175.2,23.2,174.7,23.5
	C174.5,23.7,174.9,23.4,174.7,23.5z M176.6,11.6c-1,0-2.4,0.9-2.8,1.8c-0.5,1.1,0.4,1,1.2,1c0.7,0,1.4,0,2.1,0
	c0.7,0,1.5,0.2,2.2,0.1c0.9-0.1,1.1-0.4,0.7-1.3C179.3,11.8,178,11.6,176.6,11.6z M174.2,24.9c0.6,0,0.9-0.6,1.2-0.9
	c0.2-0.2,1.6-1.2,1.6-1.4C177,22.5,174.5,24.6,174.2,24.9C174.3,24.9,174.6,24.4,174.2,24.9z M174.4,15.7c0.1-0.1,0.5-0.2,0.3-0.4
	C174.7,15.5,174.2,15.5,174.4,15.7z M177.7,8.3c-0.8,1-1.8,2-2.7,2.9c0.6-0.6,1.4-1.1,1.9-1.6c0.5-0.5,0.9-1,1.5-1.5
	C178,8.1,178,8.3,177.7,8.3C177.4,8.7,177.9,8.3,177.7,8.3z M175.1,17.1c0.6,0,0.9-0.2,1.3-0.6c0.4-0.3,0.9-1.1,1.4-1.1
	C176.9,15.7,175.8,16.4,175.1,17.1C175.3,17.1,175.5,16.7,175.1,17.1z M175.1,25c0.2,0,0.5,0.2,0.7,0.1c0.1-0.1,0.6-0.8,0.7-0.9
	c0.2-0.3,1.2-1.1,1.4-1.7C176.9,23.3,176,24.1,175.1,25C175.2,25,175.5,24.6,175.1,25z M175.2,9.7c0.1,0,0.2,0.1,0.4,0.1
	c0.4,0-0.4,0.1,0.3-0.2c0.3-0.2,0.9-0.7,1.1-1.1C176.1,8.5,175.6,9.1,175.2,9.7C175.3,9.7,175.4,9.4,175.2,9.7z M179.2,8.3
	c-1.2,1-2.3,2-3.5,3c0.6,0,1.4-0.9,1.9-1.2c0.7-0.5,1.2-1.3,1.9-1.7C179.3,8.4,179.4,8.3,179.2,8.3z M178.4,15.3
	c-0.7,0.7-1.4,1.1-2.1,1.8c0.7,0,1.5-0.6,2-1.1C178.6,15.8,179.1,15.3,178.4,15.3C178.1,15.6,178.5,15.3,178.4,15.3z M180,8.6
	c-1,0.8-2,1.6-3,2.4c0.4,0,1-0.8,1.3-1.1c0.5-0.5,1.3-0.8,1.9-1.4C180,8.4,180.1,8.6,180,8.6z M180.9,21.3c-0.4,0.2-0.9,0.7-1.4,1.1
	c-0.9,0.8-2.1,1.6-2.6,2.7c0.4,0.2,1.6-1.2,2-1.6c0.3-0.3,0.5-0.6,0.8-0.9c0.1-0.1,0.9-0.8,1-0.8c-0.1-0.1-0.1-0.2-0.1-0.3
	c0.6,0,0.3-0.5,0.7-0.5c-0.1-0.1-0.1-0.1-0.1-0.2c0,0.2,0.2,0,0.3,0.1C181.2,20.6,180.9,21,180.9,21.3z M178.6,16.1
	c-0.3,0.3-0.8,0.6-1.1,0.8c0.7,0,0.7-0.2,1.1-0.6c0.2-0.1,1.6-0.9,1.4-1.1C179.5,15.4,179,15.8,178.6,16.1z M182.2,21
	c-0.7,0.7-1.4,1.4-2.1,2c-0.8,0.7-1.8,1.2-2.3,2.1c0.6,0,1.1-0.9,1.4-1.2C180.2,23,181.3,22,182.2,21C182,21,182.4,21,182.2,21
	C181.9,21.3,182.3,21,182.2,21z M178.9,11.4c0.8-0.8,1.7-1.4,2.5-2.2c-0.8,0-2.8,1.4-3.2,2.1C178.4,11.3,178.7,11.7,178.9,11.4z
	 M181.3,15.2c-0.7,0.7-1.8,1.2-2.5,1.9c0.6,0,0.8-0.3,1.2-0.6c0.2-0.1,0.5-0.3,0.9-0.5c0.9-0.6,1.8-1.3,2.6-2
	c0.2-0.2,1.2-0.7,1.1-1.1C184.6,13,181.6,14.9,181.3,15.2z M183,21.2c-1.3,1.3-2.8,2.4-4.1,3.7c0.7,0,0.8-0.2,1.1-0.6
	c0.2-0.2,1.2-1.3,1.4-1.1c0-0.4,0.1-0.3,0.5-0.6c0.5-0.4,0.9-1.1,1.4-1.6C183,20.9,183.1,21.1,183,21.2z M179.7,12
	c0.5,0,0.8-0.6,1.1-0.8c0.5-0.3,1.5-0.7,1.8-1.3C181.4,10.3,180.6,11.3,179.7,12C179.9,12,180.2,11.6,179.7,12z M184.6,13.5
	c-0.4,0.3-4.5,3.5-4.4,3.6c0.8-0.8,2.1-1.5,3.2-2.1c0.4-0.2,0.7-0.3,1-0.7C184.4,14.3,185.3,13.5,184.6,13.5
	C184,14,184.7,13.5,184.6,13.5z M180.2,12.6c0.5,0,0.4-0.2,0.6-0.4c0.7-0.6,1.5-1.2,2.3-1.8C182,10.9,181,11.7,180.2,12.6
	C180.3,12.6,180.6,12.1,180.2,12.6z M181.8,12c-0.4,0.4-1.2,0.7-1.2,1.4c0.8-1,1.9-1.5,2.8-2.4C182.9,11.2,182.3,11.7,181.8,12
	C181.7,12.1,182.1,11.8,181.8,12z M181,24.3c0,0.2-0.4,0.1-0.4,0.3c0-0.2,3.6-2.8,3.3-3.2C183.9,21.4,181.3,24,181,24.3
	C181,24.4,181.4,23.9,181,24.3z M183,15.6c-0.7,0.4-1.2,1-1.9,1.4c1.4-0.8,2.8-1.7,3.9-2.8C184.3,14.7,183.7,15.1,183,15.6z
	 M181.2,14c0.6,0,0.6-0.4,1-0.6c-0.1,0-0.2,0-0.2-0.1c0.1,0,0.5-0.1,0.5-0.3c-0.1,0-0.2,0-0.2-0.1c0.3,0,0.7-0.3,0.7-0.6
	C182.5,12.9,181.9,13.6,181.2,14C181.5,14,181.5,13.8,181.2,14z M182.2,17c0.3,0,2-1,2-1.4C183.5,16.1,182.9,16.5,182.2,17
	C182.4,17,182.5,16.8,182.2,17z M182.3,24L182.3,24c0.7,0,2.2-1.6,2.8-2.2c-0.8,0-0.6,0.1-1.2,0.7C183.4,23.1,182.8,23.5,182.3,24z
	 M184,11.7c-0.2-0.5-0.4,0.1-0.4,0.3C183.9,12,183.8,11.7,184,11.7C183.9,11.5,183.9,11.7,184,11.7z M183.6,12.7
	c0.2-0.1,0.4-0.3,0.6-0.5C183.9,12.2,183.8,12.5,183.6,12.7C183.8,12.6,183.7,12.6,183.6,12.7z M184.2,17.1c0.4,0,1.2-0.3,1.2-0.8
	C185,16.4,184.5,16.8,184.2,17.1C184.3,17.1,184.4,16.9,184.2,17.1z M185.2,17.1c0.1,0,0.2,0,0.3,0c0,0,0-0.2-0.1-0.2
	C185.3,16.9,185.3,17.1,185.2,17.1z"/>
<path id="XMLID_682_" d="M196.3,8c0,0.3,0.3-0.1,0.4-0.1c0.6,0.2,0.1,0.6,0.1,1c0,0.3,0.3,1.2,0,1.5c0.7-1.2,1.9-2.3,3.2-2.7
	c1-0.3,2.5,0,3.2-0.3c-0.1,0,0.9,0.3,1,0.3c0,0.3-0.2,0.4-0.2,0.7c0,0.2,0.2,0.4,0.2,0.6c0,0.2-0.2,0.2-0.2,0.4c0,0.5,0,1,0,1.6
	c-0.1,0.6,0.1,2.3-0.5,2.6c-0.7,0.3-2.1-0.1-2.9,0c-2.1,0.3-3.2,1.4-3.7,3.5c-0.2,1-0.4,2.1-0.3,3.1c0.1,0.5-0.1,0.7-0.1,1.2
	c1.1,0,2.2,0.2,3.2,0.2c0.7,0,1,0.1,1.2,0.7c0.3,0.8,0.1,1.8,0.1,2.6c0,0.3,0,1.1-0.1,1.4c-0.1,0.2-0.4,0.1-0.4-0.1
	c-0.2,0-0.1,0.2-0.1,0.2c-0.1,0-0.4,0-0.6,0.1c-0.8,0.1-1.7,0-2.6-0.1c-1.5-0.1-2.9,0-4.4-0.1c-0.8,0-3.4,0.3-4-0.3
	c-0.3-0.4-0.1-0.9-0.1-1.4c0-0.2,0-0.5-0.1-0.7c0-0.1-0.3-0.1-0.3-0.3c0-0.3,0.2-0.2,0.2-0.4c0-0.3,0-0.6,0-1
	c0.2-1.3,1.4-0.3,2.3-0.8c0.9-0.4,0.4-3.3,0.4-4.2c0-0.8,0-1.6-0.1-2.4c0-0.2-0.4-1.5-0.2-1.7c-0.9,0-3.1,0.2-2.6-1.2
	c-0.1-0.1-0.2,0-0.2,0.1c0-0.9-0.1-3.1,0.6-3.6c0.4-0.3,0.5-0.1,0.9-0.1c0.1,0,0.2-0.2,0.2-0.2c0.2,0,0.7,0,1,0c1.3,0,2.8,0,4.1-0.2
	c0.3,0,0.3-0.2,0.7-0.1c0.1,0,0.5,0.2,0.6,0.2c0,0,0.4,0.3,0.1,0.3C196.7,8.7,196.3,7.8,196.3,8z M188.8,9.2
	c0.2-0.2,0.5-0.3,0.7-0.6C189.1,8.6,188.6,8.7,188.8,9.2C188.9,9.1,188.7,8.9,188.8,9.2z M192.1,9.4c-1,0.8-2.7,1.4-3.3,2.6
	c0.6,0,0.6-0.4,0.9-0.7c0.6-0.6,1.4-0.9,2.1-1.4c0.4-0.3,2-1.2,2-1.6C193.3,8.3,192.5,9,192.1,9.4C191.7,9.7,192.4,9.1,192.1,9.4z
	 M189.4,10.6c-0.1,0-0.6,0.3-0.4,0.5c0.4-0.4,1-0.7,1.4-1.1c0.2-0.2,0.6-0.6,0.9-0.6c0,0,0-0.1,0-0.1C190.7,9.7,190,10.2,189.4,10.6
	C189.3,10.6,189.7,10.4,189.4,10.6z M189.1,22.5c0.1-0.1,0.7-0.4,0.7-0.6c-0.2-0.2-0.6-0.1-0.8-0.2C189,21.8,188.8,22.5,189.1,22.5
	C189.2,22.4,189,22.5,189.1,22.5z M195.9,20.1c-2.2,1.3-4.7,2.2-6.8,3.8c0.9-0.4,1.8-0.8,2.7-1.2c0.2-0.1,1.1-0.5,1.3-0.4
	c0-0.2-0.1,0-0.1-0.2c0.7-0.2,1.5-0.8,2.2-1.2C195.3,20.9,196.4,20.1,195.9,20.1C195.4,20.4,196,20.1,195.9,20.1z M192.4,22.8
	c-0.6,0.2-3.1,1.1-3.1,2c0.7,0,1.5-0.8,2.1-1.1c0.7-0.3,1.5-0.7,2-1c0.7-0.3,2.9-1,2.9-1.6C196.3,21.4,192.8,22.7,192.4,22.8z
	 M191.3,24.8c0,0,0.4-0.5,0.6-0.6c0.5-0.3,1.1-0.5,1.7-0.8c0.2-0.1,3.3-1.6,3.1-1.8c-1.3,0.6-2.5,1.2-3.7,1.8
	c-0.6,0.3-2.2,0.7-2.5,1.3C190.6,24.8,191.2,24.9,191.3,24.8z M195,8.3c-1.4,1.2-3.2,2.1-4.6,3.3c0.3,0,0.7-0.5,1-0.2
	c0-0.5,0.5-0.3,0.5-0.7c0.2,0.2,0.6-0.1,0.4-0.3c0.5,0,0.8-0.4,1.1-0.7c0.5-0.4,1.4-0.7,1.8-1.3C195.1,8.4,195,8.3,195,8.3z
	 M191.4,9.3c0.1,0,0.5-0.3,0.5-0.4C191.9,8.9,191.4,9.2,191.4,9.3z M193.6,11.3c-0.3,0.2-2.5,1.2-2.1,1.6c0.5-0.2,4.9-3,4.7-3.3
	C196.2,9.5,193.9,11.2,193.6,11.3C193.3,11.5,194,11.1,193.6,11.3z M195.6,9.2c-0.4,0.3-4.1,2.9-4.1,2.9c0.3,0.2,0.8-0.5,1-0.6
	c0.5-0.3,0.8-0.3,1.3-0.6c0.7-0.4,1.6-1.1,2.2-1.7c-0.3,0.1-0.4,0-0.2-0.2C195.7,9.2,195.7,9.2,195.6,9.2
	C194.9,9.7,195.8,9.1,195.6,9.2z M192,13.8c0.7,0,1.1-1,1.9-1c-0.2-0.6,2-1.2,2-1.9c-1.1,0.9-2.4,1.5-3.6,2.3
	c-0.1,0.1-1.3,0.7-0.8,0.9C191.7,14.2,192,14,192,13.8C192.2,13.8,192,13.9,192,13.8z M200.9,11.5c-0.8,0.8-1.9,1.3-2.8,1.9
	c-1,0.6-2,1.2-3,1.8c-0.3,0.1-3.8,2-3.4,2.4c0.8-0.8,2.1-0.9,2.9-1.7c0.1,0.1,1.9-1,1.9-0.8c0-0.1-0.1,0-0.2-0.1
	c0-0.2,0.3-0.2,0.4-0.2c-0.3-0.3,0.7-0.6,0.9-0.8c0.8-0.6,1.6-1.3,2.4-1.8c0.5-0.3,0.7-0.3,1.2-0.6c0.5-0.3,1.9-1.3,2.1-1.8
	C202.6,10.4,201.8,11.1,200.9,11.5C200.6,11.8,201.4,11.3,200.9,11.5z M192.5,14.2c0.7-0.3,1.4-0.7,2-1.2c0.4-0.3,0.8-1,1.3-1
	c-0.1,0-0.1,0-0.1-0.1c0.1-0.1,0.1,0,0.2-0.2c-0.7,0-4.5,3.1-4.4,3.2C191.8,14.6,192.1,14.3,192.5,14.2
	C192.9,14,192.1,14.3,192.5,14.2z M192.7,15c0.5,0,1.2-0.7,1.4-1.1c-0.3,0.2-2.6,1.3-2.3,1.6C192.1,15.2,192.5,15.2,192.7,15
	C192.8,15,192.6,15.1,192.7,15z M191.7,18.1c0,0.2,0,0.3,0,0.5c1.4-0.9,2.9-1.7,4.3-2.5C194.6,16.6,193.2,17.6,191.7,18.1z
	 M191.7,19.7c0,0.3,1.6-0.6,1.7-0.6c1-0.6,2.3-1.2,3.2-2.1C194.9,17.8,193.3,18.8,191.7,19.7C191.7,19.8,192.6,19.2,191.7,19.7z
	 M192.8,24.6c0.4,0,1.1-0.7,1.5-0.8c0.4-0.1,0.8-0.3,1.1-0.4c0.8-0.4,1.7-0.8,2.4-1.5c-1.2,0.7-2.4,1.2-3.6,1.9
	c-0.4,0.2-2.5,1-2.5,1.4C192.2,25.2,192.8,25.2,192.8,24.6C193,24.6,192.8,24.7,192.8,24.6z M192.5,19.9c-0.1,0-0.6,0.1-0.4,0.3
	c0.3-0.2,4.3-2.1,4.2-2.3C196.1,17.8,192.9,19.7,192.5,19.9z M194.5,25c0.4,0,0.6,0,0.9-0.2c0.1-0.1,0.7-0.7,0.7-0.8
	C195.7,24.5,195,24.5,194.5,25z M195.5,19.7c0.2,0,0.4-0.3,0.6-0.1c0-0.1,0.1-0.6-0.1-0.6C196,19.2,195.7,19.5,195.5,19.7
	C195.6,19.7,195.6,19.6,195.5,19.7z M196.7,24.4c-0.3,0.3-0.5,0.4-0.7,0.7c0.8,0,1.5,0.1,2.1-0.3c0.2-0.2,1.2-1,1.1-1.2
	c-0.7,0.5-1.5,1-2.3,1.2c-0.1-1,2.3-1.9,3-2.4C199,23.1,197.8,24,196.7,24.4C196.6,24.5,197.2,24.2,196.7,24.4z M198.2,11.9
	c-0.7,0.5-1.5,1-2.1,1.6c0.8-0.4,1.3-1,2.2-1.4c0.7-0.3,1.1-0.8,1.8-1.3c0.4-0.3,3.3-1.6,3.3-2.2C201.7,9.8,199.8,10.7,198.2,11.9z
	 M196.3,24c1.4-0.4,2.4-1.4,3.6-2C198.7,22.6,197.5,23.4,196.3,24C197,23.8,196.9,23.7,196.3,24z M201.6,7.8
	c-0.8,0.6-1.7,1.2-2.5,1.7c-0.5,0.3-1.6,0.9-1.6,1.6c1.4-0.9,3.1-2,4.3-3.2C201.7,8.1,201.7,7.9,201.6,7.8z M198.6,25.3
	c0.7,0,1.9-0.6,1.9-1.5C199.9,24.4,199.2,24.7,198.6,25.3C199,25.3,198.9,25,198.6,25.3z M199.2,10.6c0.2,0,0.8-0.5,0.9-0.6
	C199.9,10.2,199.2,10.3,199.2,10.6C199.3,10.6,199.2,10.4,199.2,10.6z M200.1,9.9c0.2,0,0.6-0.3,0.6-0.5
	C200.5,9.6,200.3,9.7,200.1,9.9C200.2,9.9,200.2,9.8,200.1,9.9z M201,12.6c1.1,0,2.3-0.8,2.3-1.9C202.8,11.4,201.7,12.1,201,12.6
	C201.6,12.6,201.4,12.3,201,12.6z"/>
</svg>
