<?xml version="1.0" encoding="UTF-8" standalone="no"?>
<svg width="25px" height="25px" viewBox="0 0 25 25" version="1.1" xmlns="http://www.w3.org/2000/svg" xmlns:xlink="http://www.w3.org/1999/xlink">
    <!-- Generator: Sketch 39.1 (31720) - http://www.bohemiancoding.com/sketch -->
    <title>log- 1v</title>
    <desc>Created with Sketch.</desc>
    <defs></defs>
    <g id="Desktop" stroke="none" stroke-width="1" fill="none" fill-rule="evenodd" opacity="0.9">
        <g id="Desktop---Home" transform="translate(-1277.000000, -828.000000)" fill="#F05A23">
            <g id="Footer" transform="translate(197.000000, 828.000000)">
                <path d="M1080,25 L1105,25 L1105,0 L1080,0 L1080,25 Z M1095.5545,14.87 L1097.499,8.84216667 L1099.22133,8.84216667 L1096.41567,17.0366667 L1095.88883,17.0366667 L1095.1935,17.0366667 L1094.66667,17.0366667 L1091.86117,8.84216667 L1093.58333,8.84216667 L1095.52783,14.87 L1095.54117,14.9503333 L1095.5545,14.87 Z M1086.5,9.98116667 L1088.97217,8.84216667 L1090.16667,8.84216667 L1090.16667,13.0395508 L1090.16667,15.759 L1091.75,15.759 L1091.75,17.0366667 L1086.86117,17.0366667 L1086.86117,15.759 L1088.5555,15.759 L1088.5555,10.509 L1087.0555,11.1755 L1086.5,9.98116667 Z" id="log--1v"></path>
            </g>
        </g>
    </g>
</svg>