<svg width="234" height="45" xmlns="http://www.w3.org/2000/svg">
	<g>
		<g fill="#fff" transform="translate(0,170) scale(0.10000000149011612,-0.10000000149011612) ">
			<path stroke="null" id="svg_2" d="m38.347109,1661.184347c-7.365096,-7.365096 -8.347109,-26.023339 -8.347109,-188.546455c0,-133.553739 1.473019,-181.672366 5.892077,-186.091423c7.856102,-7.856102 49.100639,-7.856102 56.956742,0c3.928051,3.928051 5.892077,27.496358 5.892077,73.650959l0,67.758882l43.699569,0c92.309202,0 130.607701,35.35246 130.116694,120.296566c-0.491006,43.208563 -7.365096,65.30385 -27.987364,84.944106c-27.496358,26.514345 -47.136614,31.915416 -126.67965,34.370448c-61.866806,1.964026 -72.668946,0.982013 -79.543036,-6.383083zm136.499777,-56.465735c33.388435,-12.766166 36.334473,-105.075368 3.928051,-114.895496c-8.347109,-2.455032 -46.154601,-4.419058 -68.740895,-3.437045c-11.293147,0.491006 -11.293147,1.473019 -11.293147,61.866806l0,61.375799l31.424409,0c17.67623,0 37.316486,-1.964026 44.681582,-4.910064z"/>
			<path stroke="null" id="svg_3" d="m833.28646,1660.693341c-11.293147,-11.293147 -11.784153,-365.799763 -0.491006,-375.128885c5.40107,-4.419058 27.496358,-5.40107 81.998068,-3.928051c87.399138,2.455032 107.039394,8.347109 135.517765,40.753531c27.496358,30.933403 36.82548,66.285863 38.298499,139.936822c2.455032,123.733611 -25.532332,179.70834 -98.692285,198.857589c-40.753531,10.311134 -145.828899,10.311134 -156.63104,-0.491006zm142.391854,-58.429761c12.766166,-5.40107 19.640256,-12.766166 27.987364,-30.442396c9.329121,-21.113275 10.802141,-31.915416 10.802141,-97.219266c0,-65.30385 -1.473019,-76.105991 -10.802141,-97.219266c-13.257173,-28.969377 -31.915416,-37.807492 -77.57901,-37.807492l-31.915416,0l0,135.026758l0,135.026758l31.915416,0c17.67623,0 39.771518,-3.437045 49.591646,-7.365096z"/>
			<path stroke="null" id="svg_4" d="m437.535307,1562.492062c-9.329121,-3.928051 -23.077301,-13.257173 -30.442396,-20.131262c-12.766166,-12.27516 -13.748179,-12.27516 -13.748179,-2.946038c0,22.095288 -34.861454,34.861454 -51.064665,18.167237c-6.87409,-6.383083 -7.856102,-25.532332 -7.856102,-132.571726c0,-77.088004 1.964026,-129.134682 4.910064,-135.026758c7.365096,-13.748179 51.555671,-13.748179 58.920767,0.491006c3.437045,5.892077 4.910064,44.681582 4.910064,100.656311c-0.491006,62.848818 0.982013,93.782221 4.910064,98.201279c7.365096,8.838115 37.807492,18.658243 49.100639,15.712205c13.748179,-3.437045 18.658243,1.964026 23.568307,29.460384c6.383083,36.82548 -5.40107,44.190575 -43.208563,27.987364z"/>
			<path stroke="null" id="svg_5" d="m584.837225,1559.546024c-45.172588,-23.568307 -67.267876,-75.614985 -62.357812,-148.774937c2.946038,-49.591646 10.802141,-75.614985 29.460384,-98.692285c21.113275,-25.041326 47.62762,-36.334473 88.872157,-36.334473c80.034042,0 118.332541,48.609633 117.841534,149.75695c-0.982013,99.183292 -39.771518,144.846886 -123.242605,144.846886c-20.131262,0 -35.35246,-3.437045 -50.573659,-10.802141zm85.926119,-50.082652c15.221198,-15.221198 18.658243,-34.861454 16.203211,-100.165304c-1.964026,-63.339825 -9.820128,-81.016055 -38.298499,-83.471087c-45.172588,-4.419058 -55.974729,13.257173 -56.465735,92.309202c0,62.848818 2.946038,79.052029 17.185224,93.291215c14.239185,14.239185 46.154601,13.257173 61.375799,-1.964026z"/>
			<path stroke="null" id="svg_6" d="m1213.325409,1562.983069c-38.298499,-17.185224 -56.465735,-47.136614 -64.812844,-105.566375c-9.329121,-67.267876 6.383083,-130.607701 40.262524,-158.595065c31.424409,-26.514345 101.638323,-31.915416 146.319905,-10.802141c28.969377,13.257173 31.915416,22.586294 15.221198,44.190575c-11.784153,14.239185 -15.221198,14.239185 -53.028691,0c-11.784153,-3.928051 -25.041326,-6.87409 -29.460384,-5.40107c-4.419058,0.982013 -13.748179,3.437045 -21.113275,4.910064c-15.712205,3.437045 -26.023339,21.113275 -29.95139,51.064665l-2.455032,20.622269l77.57901,0c63.830831,0 78.070017,1.473019 80.525049,7.365096c4.910064,13.257173 -6.383083,86.908132 -17.185224,109.003419c-16.203211,33.388435 -41.735543,47.62762 -87.399138,49.591646c-25.532332,0.491006 -42.717556,-1.473019 -54.50171,-6.383083zm77.57901,-52.046678c8.347109,-8.347109 15.712205,-32.897428 15.712205,-52.046678c0,-4.910064 -12.27516,-6.383083 -44.190575,-6.383083l-44.190575,0l0,14.239185c0,19.149249 8.347109,40.753531 18.167237,48.609633c13.257173,9.820128 43.699569,7.365096 54.50171,-4.419058z"/>
			<path stroke="null" id="svg_7" d="m1439.18835,1540.887781l0,-29.460384l170.870225,1.473019l170.379219,0.982013l0,27.005352l0,27.005352l-170.379219,1.473019l-170.870225,1.473019l0,-29.95139z"/>
			<path stroke="null" id="svg_8" d="m1917.919584,1564.456088c-25.041326,-8.838115 -41.735543,-23.568307 -53.519697,-47.136614c-15.712205,-31.915416 -18.167237,-45.172588 -18.167237,-96.72826c0.491006,-98.692285 37.316486,-144.846886 116.368515,-144.846886c38.789505,0 65.794857,10.311134 86.417125,32.406422c20.131262,21.604281 28.969377,48.609633 31.915416,97.219266c6.383083,106.548387 -35.35246,165.469155 -116.368515,164.487142c-17.67623,0 -38.298499,-2.455032 -46.645607,-5.40107zm75.614985,-52.537684c15.712205,-15.712205 21.604281,-47.136614 19.149249,-101.147317c-2.455032,-50.573659 -10.802141,-77.088004 -26.023339,-82.980081c-4.419058,-1.473019 -16.694217,-2.946038 -26.514345,-2.946038c-33.879441,0 -45.172588,24.55032 -45.663595,97.219266c0,55.483722 6.383083,80.525049 22.095288,91.818196c15.221198,10.802141 45.663595,9.329121 56.956742,-1.964026z"/>
			<path stroke="null" id="svg_9" d="m2183.063036,1563.474075c-29.460384,-13.748179 -46.645607,-41.735543 -46.645607,-77.088004c0,-44.190575 24.55032,-71.686933 78.561023,-87.890144c21.113275,-6.383083 36.334473,-13.748179 39.280511,-19.640256c7.365096,-14.239185 5.892077,-31.915416 -3.928051,-40.753531c-11.784153,-10.802141 -54.010703,-10.802141 -78.070017,-0.982013c-24.55032,10.311134 -29.460384,9.329121 -38.789505,-7.856102c-5.892077,-11.784153 -6.383083,-18.167237 -2.946038,-26.514345c9.820128,-21.604281 98.201279,-34.861454 138.954809,-21.604281c34.861454,11.784153 53.519697,41.244537 53.519697,83.962093c0,44.190575 -25.532332,74.632972 -74.141965,87.399138c-38.789505,10.311134 -48.609633,18.167237 -48.609633,36.334473c0,25.041326 8.838115,29.460384 53.519697,25.532332c41.735543,-3.437045 46.154601,-1.473019 52.046678,22.586294c2.946038,10.802141 0.982013,14.730192 -9.820128,21.604281c-18.167237,11.784153 -91.818196,15.221198 -112.931471,4.910064z"/>
			<path stroke="null" id="svg_10" d="m1439.18835,1387.20278c0,-67.267876 1.473019,-96.237253 5.892077,-100.656311c7.856102,-7.856102 44.190575,-7.856102 52.046678,0c4.419058,4.419058 5.892077,33.388435 5.892077,100.656311l0,94.764234l-31.915416,0l-31.915416,0l0,-94.764234z"/>
			<path stroke="null" id="svg_11" d="m1576.67014,1387.20278c0,-67.267876 1.473019,-96.237253 5.892077,-100.656311c7.856102,-7.856102 44.190575,-7.856102 52.046678,0c4.419058,4.419058 5.892077,33.388435 5.892077,100.656311l0,94.764234l-31.915416,0l-31.915416,0l0,-94.764234z"/>
			<path stroke="null" id="svg_12" d="m1717.588975,1478.529969c-4.910064,-8.838115 -3.928051,-178.235321 1.473019,-188.055449c3.928051,-7.365096 10.311134,-9.820128 27.005352,-9.820128c36.334473,0 36.82548,1.964026 36.82548,108.512413l0,92.800208l-31.424409,0c-17.67623,0 -32.897428,-1.473019 -33.879441,-3.437045z"/>
		</g>
	</g>
</svg>