<?xml version="1.0" encoding="utf-8"?>
<!-- Generator: Adobe Illustrator 15.0.0, SVG Export Plug-In . SVG Version: 6.00 Build 0)  -->
<!DOCTYPE svg PUBLIC "-//W3C//DTD SVG 1.1//EN" "http://www.w3.org/Graphics/SVG/1.1/DTD/svg11.dtd">
<svg version="1.1" id="Laag_1" xmlns="http://www.w3.org/2000/svg" xmlns:xlink="http://www.w3.org/1999/xlink" x="0px" y="0px"
	 width="300px" height="20px" viewBox="0.5 500.5 300 20" enable-background="new 0.5 500.5 300 20" xml:space="preserve">
<g enable-background="new    ">
	<path d="M1.366,509.129c0-1.713,0.56-3.146,1.681-4.299c1.12-1.154,2.58-1.73,4.379-1.73c1.814,0,3.292,0.576,4.433,1.73
		c1.141,1.153,1.712,2.598,1.712,4.334c0,1.771-0.581,3.234-1.742,4.387s-2.638,1.729-4.429,1.729c-1.143,0-2.194-0.273-3.153-0.819
		c-0.959-0.547-1.679-1.309-2.16-2.285C1.606,511.197,1.366,510.183,1.366,509.129z M3.31,509.138c0,1.321,0.379,2.429,1.137,3.323
		s1.754,1.342,2.988,1.342c1.222,0,2.227-0.457,3.013-1.372c0.786-0.915,1.18-2.007,1.18-3.276c0-1.28-0.4-2.363-1.201-3.249
		s-1.807-1.329-3.017-1.329c-1.206,0-2.19,0.436-2.954,1.307C3.691,506.755,3.31,507.84,3.31,509.138z"/>
	<path d="M14.912,515.093v-1.435h1.197v-5.338h-1.197v-1.436h1.197v-1.223c0-1.029,0.212-1.741,0.637-2.135
		c0.424-0.393,0.925-0.589,1.502-0.589c1.245,0,1.966,0.667,2.164,2.003l-1.434,0.221c-0.057-0.526-0.263-0.789-0.62-0.789
		c-0.244,0-0.411,0.084-0.501,0.25c-0.09,0.167-0.136,0.525-0.136,1.074v1.188h1.409v1.436h-1.409v5.338h1.562v1.435H14.912z"/>
	<path d="M24.35,515.093v-1.435h1.426v-8.938H24.35v-1.434h3.039v4.76c0.808-0.933,1.799-1.399,2.975-1.399
		c1.109,0,2.039,0.39,2.791,1.169c0.751,0.778,1.127,1.805,1.127,3.079c0,1.222-0.368,2.249-1.102,3.083
		c-0.735,0.833-1.676,1.25-2.824,1.25c-0.655,0-1.254-0.141-1.796-0.424s-0.932-0.598-1.169-0.943v1.231H24.35z M27.44,511.006
		c0,0.855,0.261,1.534,0.784,2.036c0.522,0.501,1.125,0.752,1.809,0.752c0.717,0,1.336-0.267,1.856-0.799
		c0.52-0.532,0.779-1.247,0.779-2.142c0-0.865-0.258-1.535-0.775-2.014c-0.517-0.477-1.123-0.715-1.817-0.715
		c-0.684,0-1.294,0.246-1.831,0.741C27.708,509.36,27.44,510.074,27.44,511.006z"/>
	<path d="M35.087,515.093v-1.435h1.46v-8.938h-1.46v-1.434h3.072v10.371h1.256v1.435H35.087z"/>
	<path d="M40.375,515.093v-1.435h1.282v-5.348h-1.282v-1.434h2.895v6.781h1.265v1.435H40.375z M41.326,504.084
		c0-0.26,0.102-0.486,0.305-0.679s0.461-0.288,0.773-0.288c0.266,0,0.495,0.093,0.688,0.279c0.192,0.188,0.289,0.416,0.289,0.688
		s-0.096,0.502-0.289,0.691c-0.192,0.19-0.422,0.285-0.688,0.285c-0.3,0-0.555-0.096-0.764-0.289
		C41.43,504.58,41.326,504.35,41.326,504.084z"/>
	<path d="M45.315,515.093v-1.435h1.477v-8.938h-1.477v-1.434h3.089v7.432l3.073-2.408H50.11v-1.434h4.541v1.434h-1.256l-3.081,2.516
		l2.894,2.832h1.443v1.435h-2.113l-4.134-4.083v2.648h1.417v1.435H45.315z"/>
	<path d="M59.727,508.311v-1.434h1.069v-1.266l1.613-1.477v2.742h1.519v1.434h-1.519v4.021c0,0.645,0.035,1.042,0.106,1.193
		c0.071,0.15,0.248,0.227,0.53,0.227c0.3,0,0.594-0.057,0.883-0.172v1.434c-0.413,0.143-0.826,0.215-1.239,0.215
		c-0.492,0-0.891-0.109-1.197-0.326c-0.305-0.219-0.498-0.491-0.577-0.82c-0.079-0.328-0.119-0.893-0.119-1.697v-4.074H59.727z"/>
	<path d="M65.074,510.984c0-1.262,0.435-2.3,1.303-3.115c0.868-0.814,1.866-1.222,2.992-1.222c1.104,0,2.104,0.397,3,1.192
		c0.896,0.795,1.362,1.979,1.396,3.553h-6.909c0.102,0.745,0.401,1.35,0.899,1.811c0.498,0.462,1.135,0.693,1.91,0.693
		c1.126,0,2.018-0.445,2.674-1.336l1.426,0.617c-0.464,0.729-1.066,1.271-1.808,1.623c-0.742,0.354-1.517,0.529-2.326,0.529
		c-1.256,0-2.33-0.392-3.221-1.176C65.52,513.371,65.074,512.314,65.074,510.984z M66.916,510.221h5.186
		c-0.113-0.545-0.413-1.037-0.899-1.478c-0.487-0.44-1.084-0.661-1.791-0.661c-0.645,0-1.197,0.199-1.655,0.597
		C67.298,509.076,67.018,509.591,66.916,510.221z"/>
	<path d="M74.792,515.093v-1.435h1.655v-5.348h-1.655v-1.434h2.945v1.707c0.181-0.445,0.433-0.816,0.755-1.109
		c0.323-0.295,0.664-0.488,1.023-0.584c0.359-0.094,0.85-0.141,1.473-0.141h0.424v1.477H81.09c-0.82,0-1.433,0.084-1.837,0.253
		c-0.405,0.169-0.705,0.476-0.9,0.921s-0.292,1.245-0.292,2.398v1.859h1.791v1.435H74.792z"/>
	<path d="M82.372,508.311v-1.434h2.775v4.982c0,0.604,0.017,1.009,0.051,1.217c0.034,0.209,0.133,0.381,0.297,0.516
		s0.371,0.202,0.62,0.202c0.747,0,1.545-0.345,2.394-1.035v-4.448h-1.451v-1.434h3.064v6.781h1.417v1.435h-3.03v-0.968
		c-0.945,0.736-1.85,1.104-2.716,1.104c-0.549,0-1.003-0.12-1.362-0.361c-0.359-0.24-0.599-0.551-0.717-0.934
		c-0.119-0.381-0.178-0.996-0.178-1.846v-3.777H82.372z"/>
	<path d="M92.32,511.078c0-1.293,0.415-2.338,1.246-3.135c0.831-0.796,1.792-1.193,2.884-1.193c1.084,0,2.051,0.423,2.898,1.27
		v-1.143h3.09v1.484h-1.477v6.091c0,0.822-0.042,1.433-0.127,1.829c-0.085,0.396-0.29,0.803-0.615,1.217
		c-0.325,0.412-0.812,0.76-1.463,1.043c-0.65,0.281-1.376,0.422-2.179,0.422c-1.221,0-2.311-0.365-3.269-1.096l1.082-1.17
		c0.712,0.553,1.486,0.83,2.322,0.83c0.463,0,0.893-0.088,1.288-0.268s0.69-0.396,0.885-0.652c0.195-0.256,0.321-0.498,0.377-0.729
		s0.084-0.618,0.084-1.164v-0.75c-0.254,0.326-0.652,0.636-1.195,0.928s-1.135,0.438-1.779,0.438c-1.196,0-2.17-0.41-2.924-1.229
		C92.696,513.281,92.32,512.273,92.32,511.078z M94.102,511.053c0,0.837,0.242,1.52,0.725,2.049s1.1,0.795,1.852,0.795
		c0.734,0,1.367-0.267,1.898-0.799c0.531-0.532,0.797-1.217,0.797-2.054c0-0.849-0.266-1.53-0.797-2.045
		c-0.531-0.515-1.146-0.772-1.847-0.772s-1.313,0.254-1.839,0.764S94.102,510.188,94.102,511.053z"/>
	<path d="M107.377,515.093v-1.435h1.468v-5.348h-1.367v-1.434h2.979v1.029c0.973-0.771,1.926-1.156,2.86-1.156
		c0.939,0,1.587,0.424,1.943,1.273c1.069-0.85,2.065-1.273,2.988-1.273c0.532,0,0.969,0.117,1.312,0.352
		c0.342,0.234,0.573,0.532,0.691,0.891c0.119,0.359,0.178,0.891,0.178,1.592v4.074h1.435v1.435h-3.047v-5.226
		c0-0.477-0.021-0.812-0.064-1.008s-0.15-0.357-0.322-0.484c-0.173-0.127-0.381-0.191-0.624-0.191c-0.69,0-1.474,0.357-2.351,1.07
		v4.404h1.409v1.435h-3.022v-5.38c0-0.537-0.078-0.927-0.233-1.168c-0.156-0.24-0.42-0.361-0.793-0.361
		c-0.611,0-1.397,0.357-2.359,1.07v4.404h1.443v1.435H107.377z"/>
	<path d="M122.586,510.984c0-1.262,0.435-2.3,1.303-3.115c0.868-0.814,1.866-1.222,2.992-1.222c1.104,0,2.104,0.397,3,1.192
		c0.896,0.795,1.362,1.979,1.396,3.553h-6.909c0.102,0.745,0.401,1.35,0.899,1.811c0.498,0.462,1.135,0.693,1.91,0.693
		c1.126,0,2.018-0.445,2.674-1.336l1.426,0.617c-0.464,0.729-1.066,1.271-1.808,1.623c-0.742,0.354-1.517,0.529-2.326,0.529
		c-1.256,0-2.33-0.392-3.221-1.176C123.032,513.371,122.586,512.314,122.586,510.984z M124.428,510.221h5.186
		c-0.113-0.545-0.413-1.037-0.899-1.478c-0.487-0.44-1.084-0.661-1.791-0.661c-0.645,0-1.197,0.199-1.655,0.597
		C124.811,509.076,124.53,509.591,124.428,510.221z"/>
	<path d="M132.449,508.311v-1.434h1.069v-1.266l1.613-1.477v2.742h1.519v1.434h-1.519v4.021c0,0.645,0.035,1.042,0.106,1.193
		c0.071,0.15,0.248,0.227,0.53,0.227c0.3,0,0.594-0.057,0.883-0.172v1.434c-0.413,0.143-0.826,0.215-1.239,0.215
		c-0.492,0-0.891-0.109-1.197-0.326c-0.305-0.219-0.498-0.491-0.577-0.82c-0.079-0.328-0.119-0.893-0.119-1.697v-4.074H132.449z"/>
	<path d="M142.278,511.011c0-1.351,0.422-2.415,1.265-3.194c0.843-0.779,1.795-1.169,2.857-1.169c1.107,0,2.073,0.437,2.898,1.31
		v-3.236h-1.579v-1.434h3.191v10.371h1.477v1.435h-3.089v-1.205c-0.802,0.894-1.779,1.341-2.932,1.341
		c-1.084,0-2.036-0.365-2.857-1.098C142.688,513.4,142.278,512.359,142.278,511.011z M144.061,510.969
		c0,0.907,0.255,1.605,0.767,2.094s1.123,0.731,1.835,0.731c0.689,0,1.301-0.257,1.834-0.771s0.801-1.225,0.801-2.132
		c0-0.914-0.272-1.604-0.818-2.069c-0.545-0.465-1.157-0.697-1.834-0.697c-0.729,0-1.342,0.273-1.839,0.82
		C144.309,509.494,144.061,510.168,144.061,510.969z"/>
	<path d="M153.006,510.984c0-1.262,0.435-2.3,1.303-3.115c0.868-0.814,1.866-1.222,2.992-1.222c1.104,0,2.104,0.397,3,1.192
		c0.896,0.795,1.362,1.979,1.396,3.553h-6.909c0.102,0.745,0.401,1.35,0.899,1.811c0.498,0.462,1.135,0.693,1.91,0.693
		c1.126,0,2.018-0.445,2.674-1.336l1.426,0.617c-0.464,0.729-1.066,1.271-1.808,1.623c-0.742,0.354-1.517,0.529-2.326,0.529
		c-1.256,0-2.33-0.392-3.221-1.176C153.452,513.371,153.006,512.314,153.006,510.984z M154.848,510.221h5.186
		c-0.113-0.545-0.413-1.037-0.899-1.478c-0.487-0.44-1.084-0.661-1.791-0.661c-0.645,0-1.197,0.199-1.655,0.597
		C155.23,509.076,154.95,509.591,154.848,510.221z"/>
</g>
<g enable-background="new    ">
	<path fill="#8A8A8A" d="M165.528,506.323c0-0.979,0.328-1.761,0.985-2.347c0.657-0.584,1.481-0.877,2.473-0.877
		c0.947,0,1.826,0.298,2.636,0.893v-0.766h1.46v3.582h-1.46v-0.839c-0.606-0.929-1.443-1.394-2.509-1.394
		c-0.646,0-1.142,0.149-1.488,0.447c-0.346,0.299-0.519,0.655-0.519,1.07c0,0.318,0.088,0.598,0.264,0.839s0.4,0.419,0.672,0.532
		c0.272,0.114,0.808,0.273,1.607,0.478c1.043,0.272,1.803,0.526,2.279,0.763c0.477,0.236,0.887,0.629,1.231,1.18
		c0.344,0.552,0.517,1.186,0.517,1.9c0,1.012-0.359,1.848-1.076,2.506c-0.717,0.659-1.604,0.988-2.662,0.988
		c-1.077,0-2.046-0.389-2.908-1.168v0.981h-1.46v-4.304h1.46v1.059c0.708,1.303,1.635,1.955,2.781,1.955
		c0.583,0,1.077-0.18,1.479-0.539s0.604-0.83,0.604-1.412c0-0.564-0.164-0.971-0.493-1.219c-0.329-0.249-0.95-0.496-1.862-0.741
		c-1.06-0.285-1.843-0.555-2.349-0.809c-0.506-0.253-0.91-0.616-1.21-1.087S165.528,506.969,165.528,506.323z"/>
	<path fill="#8A8A8A" d="M174.72,508.311v-1.434h1.069v-1.266l1.613-1.477v2.742h1.519v1.434h-1.519v4.021
		c0,0.645,0.035,1.042,0.106,1.193c0.071,0.15,0.248,0.227,0.53,0.227c0.3,0,0.594-0.057,0.883-0.172v1.434
		c-0.413,0.143-0.826,0.215-1.239,0.215c-0.492,0-0.891-0.109-1.197-0.326c-0.305-0.219-0.498-0.491-0.577-0.82
		c-0.079-0.328-0.119-0.893-0.119-1.697v-4.074H174.72z"/>
	<path fill="#8A8A8A" d="M180.067,510.984c0-1.262,0.435-2.3,1.303-3.115c0.868-0.814,1.866-1.222,2.992-1.222
		c1.104,0,2.104,0.397,3,1.192c0.896,0.795,1.362,1.979,1.396,3.553h-6.909c0.102,0.745,0.401,1.35,0.899,1.811
		c0.498,0.462,1.135,0.693,1.91,0.693c1.126,0,2.018-0.445,2.674-1.336l1.426,0.617c-0.464,0.729-1.066,1.271-1.808,1.623
		c-0.742,0.354-1.517,0.529-2.326,0.529c-1.256,0-2.33-0.392-3.221-1.176C180.513,513.371,180.067,512.314,180.067,510.984z
		 M181.909,510.221h5.186c-0.113-0.545-0.413-1.037-0.899-1.478c-0.487-0.44-1.084-0.661-1.791-0.661
		c-0.645,0-1.197,0.199-1.655,0.597C182.292,509.076,182.011,509.591,181.909,510.221z"/>
	<path fill="#8A8A8A" d="M189.862,515.093v-1.435h1.468v-5.348h-1.367v-1.434h2.979v1.029c0.973-0.771,1.926-1.156,2.86-1.156
		c0.939,0,1.587,0.424,1.943,1.273c1.069-0.85,2.065-1.273,2.988-1.273c0.532,0,0.969,0.117,1.312,0.352
		c0.342,0.234,0.573,0.532,0.691,0.891c0.119,0.359,0.178,0.891,0.178,1.592v4.074h1.435v1.435h-3.047v-5.226
		c0-0.477-0.021-0.812-0.064-1.008s-0.15-0.357-0.322-0.484c-0.173-0.127-0.381-0.191-0.624-0.191c-0.69,0-1.474,0.357-2.351,1.07
		v4.404h1.409v1.435h-3.022v-5.38c0-0.537-0.078-0.927-0.233-1.168c-0.156-0.24-0.42-0.361-0.793-0.361
		c-0.611,0-1.397,0.357-2.359,1.07v4.404h1.443v1.435H189.862z"/>
	<path fill="#8A8A8A" d="M204.902,515.093v-1.435h1.468v-5.348h-1.367v-1.434h2.979v1.029c0.973-0.771,1.926-1.156,2.86-1.156
		c0.939,0,1.587,0.424,1.943,1.273c1.069-0.85,2.065-1.273,2.988-1.273c0.532,0,0.969,0.117,1.312,0.352
		c0.342,0.234,0.573,0.532,0.691,0.891c0.119,0.359,0.178,0.891,0.178,1.592v4.074h1.435v1.435h-3.047v-5.226
		c0-0.477-0.021-0.812-0.064-1.008s-0.15-0.357-0.322-0.484c-0.173-0.127-0.381-0.191-0.624-0.191c-0.69,0-1.474,0.357-2.351,1.07
		v4.404h1.409v1.435h-3.022v-5.38c0-0.537-0.078-0.927-0.233-1.168c-0.156-0.24-0.42-0.361-0.793-0.361
		c-0.611,0-1.397,0.357-2.359,1.07v4.404h1.443v1.435H204.902z"/>
	<path fill="#8A8A8A" d="M220.112,510.984c0-1.262,0.435-2.3,1.303-3.115c0.868-0.814,1.866-1.222,2.992-1.222
		c1.104,0,2.104,0.397,3,1.192c0.896,0.795,1.362,1.979,1.396,3.553h-6.909c0.102,0.745,0.401,1.35,0.899,1.811
		c0.498,0.462,1.135,0.693,1.91,0.693c1.126,0,2.018-0.445,2.674-1.336l1.426,0.617c-0.464,0.729-1.066,1.271-1.808,1.623
		c-0.742,0.354-1.517,0.529-2.326,0.529c-1.256,0-2.33-0.392-3.221-1.176C220.558,513.371,220.112,512.314,220.112,510.984z
		 M221.954,510.221h5.186c-0.113-0.545-0.413-1.037-0.899-1.478c-0.487-0.44-1.084-0.661-1.791-0.661
		c-0.645,0-1.197,0.199-1.655,0.597C222.336,509.076,222.056,509.591,221.954,510.221z"/>
	<path fill="#8A8A8A" d="M229.916,515.093v-1.435h1.443v-5.348h-1.443v-1.434h3.056v0.999c1.036-0.751,1.98-1.126,2.835-1.126
		c0.532,0,0.972,0.125,1.32,0.377c0.348,0.252,0.576,0.561,0.683,0.926c0.107,0.364,0.161,0.898,0.161,1.6v4.006h1.384v1.435h-2.996
		v-5.366c0-0.621-0.094-1.027-0.28-1.217s-0.416-0.283-0.688-0.283c-0.713,0-1.52,0.345-2.419,1.035v4.396h1.417v1.435H229.916z"/>
</g>
<g enable-background="new    ">
	<path d="M238.981,507.776v-4.489h9.566v4.489h-1.46v-3.013h-2.428v8.852h1.537v1.478h-4.83v-1.478h1.511v-8.852h-2.436v3.013
		H238.981z"/>
	<path d="M249.124,515.093v-1.435h1.656v-5.348h-1.656v-1.434h2.945v1.707c0.182-0.445,0.434-0.816,0.756-1.109
		c0.322-0.295,0.664-0.488,1.023-0.584c0.359-0.094,0.85-0.141,1.473-0.141h0.424v1.477h-0.322c-0.82,0-1.434,0.084-1.838,0.253
		s-0.705,0.476-0.9,0.921s-0.293,1.245-0.293,2.398v1.859h1.791v1.435H249.124z"/>
	<path d="M256.355,512.631c0-0.764,0.299-1.396,0.897-1.9s1.319-0.756,2.163-0.756c0.768,0,1.511,0.232,2.228,0.696v-0.792
		c0-0.406-0.04-0.72-0.119-0.939s-0.264-0.418-0.555-0.594c-0.29-0.176-0.67-0.264-1.139-0.264c-0.808,0-1.392,0.311-1.753,0.93
		l-1.607-0.391c0.696-1.316,1.897-1.974,3.605-1.974c0.62,0,1.155,0.083,1.607,0.251c0.451,0.166,0.788,0.381,1.01,0.645
		s0.371,0.547,0.447,0.854c0.077,0.305,0.115,0.792,0.115,1.459v3.803h1.384v1.435h-2.833v-1.001c-0.78,0.758-1.65,1.137-2.61,1.137
		c-0.765,0-1.43-0.243-1.994-0.73C256.638,514.012,256.355,513.39,256.355,512.631z M257.968,512.623
		c0,0.385,0.132,0.707,0.395,0.967c0.262,0.261,0.619,0.391,1.07,0.391c0.779,0,1.517-0.328,2.211-0.984v-0.959
		c-0.694-0.543-1.397-0.814-2.108-0.814c-0.446,0-0.819,0.13-1.118,0.391C258.118,511.873,257.968,512.21,257.968,512.623z"/>
	<path d="M265.395,510.912c0-1.235,0.41-2.255,1.231-3.059c0.82-0.805,1.767-1.206,2.838-1.206c0.909,0,1.678,0.267,2.305,0.799
		v-0.569h1.46v3.092h-1.46c-0.073-0.595-0.314-1.051-0.725-1.368c-0.409-0.317-0.885-0.476-1.428-0.476
		c-0.723,0-1.31,0.256-1.762,0.769s-0.678,1.187-0.678,2.019c0,0.777,0.215,1.461,0.644,2.053c0.43,0.593,1.051,0.889,1.864,0.889
		c1.132,0,1.952-0.538,2.462-1.615l1.332,0.629c-0.735,1.643-2.022,2.463-3.862,2.463c-1.311,0-2.342-0.445-3.094-1.336
		S265.395,512.076,265.395,510.912z"/>
	<path d="M274.265,515.093v-1.435h1.477v-8.938h-1.477v-1.434h3.089v7.432l3.073-2.408h-1.367v-1.434h4.541v1.434h-1.256
		l-3.081,2.516l2.895,2.832h1.442v1.435h-2.113l-4.134-4.083v2.648h1.418v1.435H274.265z"/>
	<path d="M283.915,510.984c0-1.262,0.435-2.3,1.303-3.115c0.869-0.814,1.866-1.222,2.992-1.222c1.104,0,2.104,0.397,3,1.192
		c0.897,0.795,1.362,1.979,1.396,3.553h-6.909c0.103,0.745,0.402,1.35,0.9,1.811c0.497,0.462,1.134,0.693,1.909,0.693
		c1.126,0,2.018-0.445,2.674-1.336l1.426,0.617c-0.464,0.729-1.066,1.271-1.808,1.623c-0.741,0.354-1.517,0.529-2.326,0.529
		c-1.256,0-2.329-0.392-3.221-1.176C284.36,513.371,283.915,512.314,283.915,510.984z M285.757,510.221h5.187
		c-0.113-0.545-0.413-1.037-0.9-1.478c-0.486-0.44-1.083-0.661-1.791-0.661c-0.645,0-1.196,0.199-1.654,0.597
		C286.139,509.076,285.858,509.591,285.757,510.221z"/>
	<path d="M293.633,515.093v-1.435h1.655v-5.348h-1.655v-1.434h2.945v1.707c0.181-0.445,0.433-0.816,0.756-1.109
		c0.322-0.295,0.663-0.488,1.022-0.584c0.359-0.094,0.85-0.141,1.473-0.141h0.424v1.477h-0.322c-0.82,0-1.433,0.084-1.838,0.253
		c-0.404,0.169-0.704,0.476-0.899,0.921s-0.293,1.245-0.293,2.398v1.859h1.791v1.435H293.633z"/>
</g>
</svg>
